<svg width="40" height="40" viewBox="0 0 40 40" fill="none" xmlns="http://www.w3.org/2000/svg">
<path d="M4.68752 5.79688H21.1738C23.51 5.79688 25.4044 8.24563 25.4044 11.2656V16.4563L26.4025 16.7494L27.1344 21.9287L26.6288 27.1569L21.4113 27.125C21.3294 27.1325 21.2556 27.1569 21.1744 27.1569H4.68815C2.35002 27.1569 0.45627 24.7094 0.45627 21.6881V11.2662C0.455021 8.24625 2.35002 5.79688 4.68752 5.79688Z" fill="#F48020"/>
<path d="M4.68752 5.8075H21.1738C23.51 5.8075 25.4044 8.25562 25.4044 11.2762V16.4675L26.4025 16.7606L27.1344 21.9394L26.7831 25.5781L26.4025 22.8925L25.4044 22.5994V17.4087C25.4044 14.3887 23.5106 11.94 21.1738 11.94H4.68752C2.3494 11.94 0.455647 14.3894 0.455647 17.4087V11.2756C0.455647 8.25562 2.3494 5.8075 4.68752 5.8075Z" fill="#F9A425"/>
<path d="M27.6468 11.9438H31.0043C33.8093 12.1269 39.3881 13.4125 39.2812 20.7375V23.4338C39.2812 25.7406 38.2775 27.61 37.0418 27.61H27.6481C26.4112 27.61 25.4068 25.7413 25.4068 23.4338V16.1188C25.4068 13.8125 26.4106 11.9419 27.6481 11.9419" fill="#E3E4E3"/>
<path d="M26.75 9.36688H28.7625C30.4406 9.46313 33.7812 10.1306 33.7175 13.935V15.3331C33.7175 16.5319 33.1144 17.5025 32.3762 17.5025H26.7512C26.0119 17.5025 25.41 16.5319 25.41 15.3331V11.5375C25.4087 10.3388 26.0112 9.36688 26.7506 9.36688" fill="#E3E4E3"/>
<path d="M31.9287 13.9807H33.6124C35.0181 14.0857 37.8156 14.8213 37.7612 19.0119V20.5544C37.7612 21.875 37.2593 22.9457 36.6387 22.9457H31.9287C31.3081 22.9457 30.8037 21.875 30.8037 20.5544V16.37C30.8037 15.0507 31.3081 13.9813 31.9287 13.9813" fill="#A2C2CA"/>
<path d="M34.35 19.2206C34.4319 17.4544 34.3113 15.6381 33.7907 13.9744C35.205 14.0869 37.9669 14.8387 37.9138 19.0056V20.5481C37.9138 21.8687 37.4107 22.9394 36.79 22.9394H33.7294C34.0907 21.8212 34.2869 20.5844 34.35 19.2231" fill="#83AFB7"/>
<path d="M26.6937 28.7131C26.6947 29.8628 27.1522 30.9651 27.9655 31.7778C28.7788 32.5904 29.8815 33.0469 31.0312 33.0469C32.1803 33.0459 33.282 32.589 34.0946 31.7764C34.9071 30.9639 35.364 29.8622 35.365 28.7131C35.3647 27.5637 34.908 26.4615 34.0954 25.6486C33.2827 24.8357 32.1806 24.3788 31.0312 24.3781C30.4618 24.3779 29.8979 24.4899 29.3717 24.7077C28.8456 24.9255 28.3675 25.2447 27.9647 25.6473C27.5619 26.0498 27.2424 26.5278 27.0243 27.0538C26.8062 27.5798 26.6939 28.1437 26.6937 28.7131Z" fill="white"/>
<path d="M27.4625 28.7131C27.4633 29.6588 27.8395 30.5654 28.5085 31.2337C29.1774 31.9021 30.0844 32.2775 31.03 32.2775C31.975 32.2764 32.8809 31.9004 33.5491 31.2322C34.2173 30.564 34.5932 29.6581 34.5944 28.7131C34.5819 27.7756 34.2008 26.8806 33.5334 26.222C32.866 25.5634 31.9661 25.1941 31.0284 25.1941C30.0908 25.1941 29.1908 25.5634 28.5235 26.222C27.8561 26.8806 27.4749 27.7756 27.4625 28.7131Z" fill="#243438"/>
<path d="M28.7188 28.6632C28.7188 29.2762 28.9623 29.8642 29.3958 30.2977C29.8293 30.7312 30.4173 30.9747 31.0304 30.9747C31.6434 30.9747 32.2314 30.7312 32.6649 30.2977C33.0984 29.8642 33.3419 29.2762 33.3419 28.6632C33.3248 28.0615 33.0737 27.4902 32.6421 27.0707C32.2105 26.6512 31.6323 26.4165 31.0304 26.4165C30.4284 26.4165 29.8503 26.6512 29.4186 27.0707C28.987 27.4902 28.7359 28.0615 28.7188 28.6632Z" fill="#969796"/>
<path d="M8.85247 29.2738C8.8528 30.2749 9.25062 31.2349 9.9585 31.9427C10.6664 32.6506 11.6264 33.0484 12.6275 33.0488C13.6285 33.0481 14.5883 32.6502 15.2961 31.9424C16.0039 31.2346 16.4018 30.2748 16.4025 29.2738C16.4021 28.2727 16.0043 27.3127 15.2964 26.6048C14.5885 25.8969 13.6286 25.4991 12.6275 25.4988C12.1317 25.4988 11.6408 25.5964 11.1828 25.7861C10.7248 25.9758 10.3087 26.2539 9.95814 26.6044C9.6076 26.955 9.32953 27.3711 9.13982 27.8291C8.95011 28.2872 8.85247 28.778 8.85247 29.2738Z" fill="white"/>
<path d="M9.52129 29.2738C9.52129 30.0968 9.84822 30.8861 10.4302 31.468C11.0121 32.05 11.8014 32.3769 12.6244 32.3769C13.4474 32.3769 14.2367 32.05 14.8187 31.468C15.4006 30.8861 15.7275 30.0968 15.7275 29.2738C15.7279 28.8664 15.6479 28.463 15.4923 28.0866C15.3367 27.7102 15.1084 27.3681 14.8205 27.0799C14.5326 26.7917 14.1908 26.5631 13.8145 26.4071C13.4382 26.2511 13.0349 26.1707 12.6275 26.1707C12.2197 26.1702 11.8159 26.2501 11.439 26.4058C11.0621 26.5615 10.7196 26.79 10.4311 27.0783C10.1426 27.3665 9.91374 27.7087 9.75763 28.0854C9.60152 28.4622 9.5212 28.866 9.52129 29.2738Z" fill="#243438"/>
<path d="M10.6125 29.2319C10.6125 29.4963 10.6646 29.7581 10.7658 30.0024C10.867 30.2467 11.0153 30.4686 11.2023 30.6556C11.3893 30.8425 11.6113 30.9908 11.8556 31.0919C12.1 31.1931 12.3618 31.2451 12.6262 31.245C13.024 31.2446 13.4127 31.1264 13.7433 30.9051C14.0739 30.6839 14.3315 30.3696 14.4835 30.002C14.6355 29.6344 14.6752 29.23 14.5974 28.8399C14.5197 28.4498 14.3281 28.0915 14.0467 27.8103C13.7654 27.5291 13.4071 27.3375 13.0169 27.2599C12.6268 27.1823 12.2224 27.2221 11.8549 27.3742C11.4873 27.5264 11.1732 27.784 10.952 28.1147C10.7309 28.4453 10.6127 28.8341 10.6125 29.2319Z" fill="#969796"/>
<path d="M1.1313 29.2318C1.13171 29.7272 1.22968 30.2176 1.41961 30.675C1.60955 31.1325 1.88772 31.5481 2.23827 31.8981C2.58881 32.248 3.00484 32.5255 3.46263 32.7147C3.92041 32.9039 4.41097 33.001 4.9063 33.0006C5.40163 33.0002 5.89203 32.9022 6.34949 32.7123C6.80696 32.5224 7.22254 32.2442 7.5725 31.8936C7.92246 31.5431 8.19995 31.1271 8.38913 30.6693C8.5783 30.2115 8.67546 29.7209 8.67505 29.2256C8.67422 28.2252 8.27603 27.2662 7.56808 26.5594C6.86013 25.8526 5.90041 25.456 4.90005 25.4568C3.89968 25.4577 2.94062 25.8559 2.23384 26.5638C1.52707 27.2718 1.13047 28.2315 1.1313 29.2318Z" fill="white"/>
<path d="M1.80003 29.2318C1.80102 30.0551 2.1287 30.8443 2.71111 31.4261C3.29352 32.0079 4.08304 32.3348 4.90628 32.335C5.72928 32.335 6.51857 32.008 7.10052 31.4261C7.68247 30.8441 8.0094 30.0548 8.0094 29.2318C8.0094 28.4088 7.68247 27.6196 7.10052 27.0376C6.51857 26.4557 5.72928 26.1287 4.90628 26.1287C4.49855 26.1285 4.09477 26.2086 3.718 26.3644C3.34122 26.5202 2.99883 26.7487 2.71038 27.0369C2.42193 27.325 2.19307 27.6672 2.03687 28.0438C1.88067 28.4204 1.80019 28.8241 1.80003 29.2318Z" fill="#243438"/>
<path d="M2.89377 29.1894C2.88906 29.4566 2.93763 29.7221 3.03663 29.9704C3.13564 30.2186 3.28311 30.4447 3.47042 30.6353C3.65774 30.8259 3.88115 30.9774 4.12762 31.0807C4.37409 31.1841 4.63869 31.2373 4.90596 31.2373C5.17323 31.2373 5.43782 31.1841 5.68429 31.0807C5.93076 30.9774 6.15418 30.8259 6.34149 30.6353C6.52881 30.4447 6.67627 30.2186 6.77528 29.9704C6.87429 29.7221 6.92285 29.4566 6.91814 29.1894C6.90885 28.6619 6.69276 28.1591 6.31641 27.7893C5.94007 27.4195 5.43356 27.2123 4.90596 27.2123C4.37835 27.2123 3.87184 27.4195 3.4955 27.7893C3.11915 28.1591 2.90307 28.6619 2.89377 29.1894Z" fill="#969796"/>
<path d="M37.9169 25.1688C37.9169 26.22 38.3419 27.0731 38.8675 27.0731C39.3925 27.0731 39.8181 26.22 39.8181 25.1688V25.1263C39.8181 24.0763 39.3925 23.2256 38.8675 23.2256C38.3419 23.2256 37.9169 24.0763 37.9169 25.1263V25.1688Z" fill="#F1F1F1"/>
<path d="M0.181866 22.9662C0.181866 24.0175 0.606865 24.8681 1.13312 24.8681C1.65749 24.8681 2.08374 24.0175 2.08374 22.9662V22.925C2.08374 21.8725 1.65749 21.0219 1.13312 21.0219C0.60624 21.0219 0.181866 21.8725 0.181866 22.925V22.9662Z" fill="#DF394C"/>
</svg>
