<svg width="237" height="196" viewBox="0 0 237 196" fill="none" xmlns="http://www.w3.org/2000/svg">
<path d="M137.603 12.2777C139.931 10.5505 142.471 9.28108 145.456 9.05217C145.985 9.01055 146.514 8.96893 147.043 8.96893C169.226 8.96893 191.43 8.96893 213.613 8.96893C221.488 8.96893 227.69 15.0245 227.711 22.7657C227.732 26.8236 227.732 30.8607 227.753 34.9185C227.817 35.1474 227.965 35.3555 227.986 35.5844C228.007 36.0006 228.028 36.4168 228.007 36.8538C228.007 37.1035 228.007 37.3533 228.007 37.603C228.071 43.9291 228.071 50.2552 228.007 56.5605C228.007 56.8727 227.986 57.1848 228.007 57.5178C228.028 57.8924 228.007 58.2461 227.986 58.6207C227.986 58.8704 227.88 59.0785 227.753 59.3074C227.732 59.5779 227.711 59.8693 227.711 60.1398C227.711 81.324 227.711 102.508 227.711 123.692C227.711 123.963 227.732 124.254 227.753 124.525C227.859 124.691 227.944 124.858 227.965 125.066C228.049 126.543 228.007 128 227.986 129.477C227.986 129.665 227.986 129.873 227.986 130.06C228.049 132.807 228.007 135.533 228.007 138.28C228.007 152.763 228.049 167.247 227.986 181.73C227.965 185.892 226.293 189.388 223.054 192.135C222.588 192.468 222.101 192.78 221.53 192.926C218.799 194.632 215.836 195.257 212.597 195.257C190.584 195.215 168.549 195.236 146.535 195.236C139.508 195.236 133.391 189.638 132.861 182.771C132.734 182.396 132.798 182.022 132.798 181.647C132.798 172.761 132.798 163.876 132.798 154.969C132.798 154.491 132.84 153.991 132.565 153.554C132.607 146.729 132.586 139.924 132.586 133.098C132.586 124.608 132.607 116.138 132.565 107.648C132.565 106.129 132.65 104.61 132.523 103.091C132.48 102.966 132.438 102.841 132.417 102.695C132.375 102.487 132.375 102.3 132.332 102.092C132.29 101.509 132.311 100.906 132.311 100.323C132.311 84.4454 132.311 68.5677 132.311 52.69C132.311 52.1073 132.29 51.5038 132.375 50.9211C132.734 49.1731 132.586 47.4251 132.502 45.6563C132.48 45.5314 132.48 45.3858 132.502 45.2609C132.607 44.7407 132.565 44.2204 132.565 43.7002C132.565 36.3544 132.565 29.0086 132.565 21.6836C132.523 20.2686 132.925 18.9159 133.454 17.6049C133.539 17.4176 133.645 17.2304 133.75 17.0431C134.555 15.3991 135.507 13.88 136.904 12.6522C137.158 12.465 137.412 12.4233 137.603 12.2777Z" fill="black"/>
<path d="M62.9046 8.94814C62.9257 7.3666 62.9257 5.76426 62.9469 4.18273C62.9681 1.70639 64.6826 0 67.2015 0C82.8862 0 98.5498 0 114.235 0C116.711 0 118.383 1.68558 118.404 4.14111C118.426 6.84636 118.447 9.53081 118.447 12.2361C118.531 12.4025 118.616 12.5898 118.637 12.7771C118.722 14.1713 118.68 15.5864 118.658 17.0015C118.658 17.1887 118.658 17.3968 118.658 17.5841C118.68 23.9102 118.595 30.2364 118.701 36.5833C118.743 39.1221 116.859 41.203 114.023 41.2863C111.525 41.3487 109.027 41.3071 106.53 41.3071C103.609 41.3071 100.688 41.3487 97.7666 41.2863C97.6396 41.2863 97.4914 41.2863 97.3644 41.2863C95.9251 41.3071 94.4646 41.3279 93.0252 41.2863C87.3101 41.3071 81.6162 41.3071 75.9011 41.2863C74.8216 41.2863 74.0172 41.5984 73.2976 42.3476C70.7364 45.0112 68.2387 47.7581 65.5928 50.3385C65.2329 50.6714 64.9154 51.046 64.4709 51.2957C63.6877 51.7327 63.0104 51.4622 62.7352 50.6298C62.6294 50.2968 62.6082 49.9431 62.6082 49.6101C62.6082 39.8504 62.5871 30.0699 62.6082 20.3102C62.5447 16.8974 62.5871 13.4846 62.5871 10.0719C62.5871 9.63485 62.6082 9.26028 62.9046 8.94814Z" fill="#E74F4F"/>
<path d="M62.9045 8.94811C62.9045 12.7563 62.9045 16.5852 62.9045 20.3934C62.5235 20.7264 62.0367 20.6639 61.5922 20.6639C52.0459 20.6639 42.4995 20.6847 32.9532 20.6639C29.6724 20.6639 26.9206 18.1668 26.6878 14.9413C26.6243 14.1089 26.3492 13.7968 25.4813 13.7968C22.2851 13.8384 19.0677 13.7759 15.8715 13.8176C12.3789 13.88 8.97106 16.6269 7.91271 20.1229C7.74337 20.6639 7.6587 21.205 7.51053 21.746C7.36236 22.183 7.38353 22.6408 7.38353 23.0778C7.38353 59.4531 7.36236 95.8283 7.4047 132.183C7.4047 142.255 7.44702 152.347 7.42586 162.419C7.40469 168.558 7.42586 174.676 7.4047 180.815C7.4047 181.293 7.36237 181.793 7.48937 182.251C7.93388 185.102 9.24621 187.411 11.7863 188.972C13.1833 189.846 14.7073 190.325 16.3795 190.325C19.364 190.325 22.3698 190.325 25.3543 190.325C25.4813 190.325 25.6083 190.304 25.7353 190.304C31.6409 190.283 37.5253 190.262 43.4309 190.304C44.6586 190.283 45.8863 190.262 47.114 190.304C53.4005 190.242 59.7083 190.283 65.9949 190.283C72.0487 190.304 78.1024 190.346 84.1773 190.283C88.7282 190.242 92.623 186.205 92.6653 181.564C92.7076 176.029 92.6653 170.493 92.6653 164.937C92.6653 164.521 92.6653 164.105 92.6865 163.688C92.6018 158.216 92.6653 152.743 92.6653 147.27C92.6653 142.463 92.623 137.635 92.6865 132.828C92.623 132.162 92.6653 131.517 92.6653 130.851C92.6653 111.352 92.6653 91.8745 92.6653 72.3758C92.6653 71.7099 92.6441 71.0648 92.7076 70.3989C92.75 70.0452 92.8558 69.7122 93.131 69.4833C94.2952 68.4636 95.5652 67.5272 96.7929 66.5908C97.1315 66.3411 97.5337 66.2994 97.6819 66.8405C97.7665 67.3607 97.7454 67.881 97.7454 68.4012C97.7454 96.2237 97.8512 124.025 97.6819 151.848C97.6184 161.961 97.6607 172.054 97.5549 182.167C97.5549 182.334 97.5549 182.521 97.5125 182.688C96.9199 189.555 90.9508 195.132 83.9233 195.132C61.3805 195.173 38.8377 195.153 16.2948 195.132C14.0088 195.132 11.8498 194.508 9.86006 193.384C9.43672 193.155 8.99222 192.968 8.56888 192.739C8.33604 192.427 7.87037 192.531 7.61637 192.239C4.94933 190.179 3.40413 187.453 2.66329 184.248C2.43045 183.187 2.36694 182.126 2.36694 181.044C2.36694 128.354 2.36694 75.6846 2.36694 22.9946C2.36694 19.0616 3.7428 15.6904 6.4945 12.8395C6.76968 12.5898 7.06602 12.3609 7.42586 12.236C9.37322 10.8626 11.4052 9.65564 13.7971 9.19783C14.8343 9.01054 15.8715 8.88568 16.9298 8.88568C32.2124 8.94811 47.5585 8.94811 62.9045 8.94811Z" fill="black"/>
<path d="M7.93393 192.323C8.2091 192.385 8.44192 192.51 8.50543 192.801C6.00772 192.801 3.51002 192.801 0.991155 192.843C0.292645 192.864 -0.0883551 192.676 0.0174797 191.927C0.0386467 191.719 0.0174797 191.511 0.0174797 191.303C0.0174797 132.12 0.0174797 72.9378 0.0174797 13.776C0.0174797 12.0696 -0.173028 12.2777 1.52033 12.2777C3.44652 12.2777 5.39389 12.3193 7.32008 12.3401C7.21425 12.569 7.06609 12.7563 6.83326 12.8812C5.28807 13.1933 3.74288 13.0061 2.19769 13.0477C0.970003 13.0893 0.864163 13.1725 0.842996 14.3587C0.842996 14.7124 0.842996 15.0454 0.842996 15.3992C0.842996 73.4788 0.842996 131.538 0.842996 189.617C0.842996 192.281 0.67365 191.948 3.31952 192.031C4.86471 192.031 6.43107 191.698 7.93393 192.323Z" fill="#5882AE"/>
<path d="M227.753 124.983C227.753 124.816 227.753 124.67 227.753 124.504C230.441 124.504 233.108 124.525 235.797 124.504C236.516 124.504 236.813 124.712 236.77 125.44C236.728 126.689 236.749 127.938 236.77 129.186C236.77 129.769 236.559 129.977 235.966 129.977C234.23 129.956 232.516 129.998 230.78 129.956C230.187 129.935 229.933 130.143 230.018 130.726C230.039 130.955 230.018 131.205 230.018 131.454C230.018 151.432 230.018 171.43 230.018 191.407C230.018 192.905 230.018 192.905 228.452 192.905C226.166 192.905 223.879 192.905 221.572 192.905C221.911 192.655 222.25 192.385 222.588 192.135C224.303 191.886 226.039 192.052 227.753 191.99C228.917 191.948 229.023 191.865 229.044 190.741C229.065 190.221 229.044 189.701 229.044 189.18C229.044 170.389 229.044 151.577 229.044 132.786C229.044 132.578 229.023 132.37 229.044 132.162C229.192 131.08 228.896 130.289 227.732 129.977C227.732 129.81 227.732 129.665 227.732 129.498C228.155 129.145 228.663 129.228 229.15 129.207C230.97 129.186 232.812 129.186 234.632 129.207C235.479 129.228 235.839 128.916 235.818 128.062C235.754 124.837 236.199 125.316 233.045 125.274C231.711 125.253 230.378 125.274 229.044 125.274C228.6 125.274 228.134 125.316 227.753 124.983Z" fill="#688EB6"/>
<path d="M97.449 182.729C97.449 181.876 97.449 181.002 97.449 180.149C97.449 142.546 97.449 104.943 97.449 67.34C97.449 67.0694 97.449 66.7781 97.4279 66.5076C97.449 66.2163 97.576 66.2787 97.7242 66.4244C97.9147 66.8197 97.8724 67.2359 97.8935 67.6313C97.8935 67.881 97.8935 68.1307 97.8935 68.3805C97.957 72.7921 97.957 77.2037 97.8935 81.5946C97.8935 81.8027 97.8935 81.9899 97.8935 82.198C97.957 87.2132 97.9147 92.2075 97.9147 97.2226C97.83 98.4712 97.8935 99.7197 97.8935 100.968C97.8724 101.364 97.8935 101.759 97.8935 102.154C97.8724 105.422 97.9993 108.689 97.9147 111.977C97.9147 112.185 97.9358 112.372 97.9147 112.58C97.9993 114.89 97.957 117.221 97.957 119.531C97.957 128.978 97.9782 138.426 97.957 147.873C97.8935 148.185 97.957 148.518 97.9358 148.83C97.957 149.85 97.9359 150.891 97.957 151.91C97.957 152.306 97.8935 152.743 98.338 153.013C98.7825 153.2 99.2482 153.117 99.6927 153.117C110.17 153.117 120.627 153.117 131.105 153.138C131.676 153.138 132.311 152.972 132.819 153.45C132.861 153.783 132.946 154.137 132.946 154.47C132.967 163.813 132.967 173.157 132.967 182.521C132.967 182.584 132.946 182.646 132.925 182.729C132.65 182.272 132.777 181.793 132.756 181.314C132.756 172.553 132.734 163.793 132.777 155.011C132.777 153.97 132.48 153.783 131.486 153.783C120.521 153.825 109.557 153.825 98.592 153.783C97.8089 153.783 97.6183 153.929 97.6183 154.72C97.6395 163.584 97.6395 172.449 97.6183 181.314C97.6183 181.793 97.7454 182.292 97.449 182.729Z" fill="#5881AE"/>
<path d="M227.753 35.5636C227.753 35.3555 227.753 35.1266 227.753 34.9185C236.812 40.8909 237.003 53.1478 228.134 59.1201C228.028 59.2034 227.88 59.245 227.753 59.2866C227.753 59.0577 227.732 58.8496 227.732 58.6207C228.875 57.5386 230.103 56.5605 231.076 55.312C233.024 52.8356 233.807 50.0263 233.807 46.8841C233.786 42.8678 232.135 39.6631 229.277 36.9579C228.769 36.5001 228.071 36.2295 227.753 35.5636Z" fill="#5C85B1"/>
<path d="M118.426 12.6938C118.426 12.5482 118.426 12.3817 118.426 12.236C124.437 12.236 130.448 12.236 136.46 12.2568C136.841 12.2568 137.222 12.2776 137.624 12.2985C137.518 12.4857 137.391 12.673 137.158 12.7147C136.735 12.9852 136.248 13.0268 135.74 13.0268C130.406 13.0268 125.072 13.0268 119.738 13.0268C119.251 13.006 118.785 13.0476 118.426 12.6938Z" fill="#5881AE"/>
<path d="M230.589 81.9275C231.902 80.8038 233.214 79.6801 234.526 78.5564C234.632 78.4731 234.759 78.3899 234.907 78.4939C235.056 78.598 235.034 78.7436 234.907 78.8477C233.574 79.9922 232.24 81.1368 230.907 82.2813C230.822 82.1564 230.716 82.0316 230.589 81.9275Z" fill="#648BB4"/>
<path d="M137.412 132.911C137.391 132.536 137.391 132.141 137.391 131.767C137.391 95.537 137.391 59.2866 137.391 23.057C137.391 17.4801 141.413 13.4846 147.064 13.4846C150.134 13.4846 153.203 13.5054 156.272 13.4638C156.907 13.4638 157.076 13.5887 157.098 14.2546C157.182 17.9171 159.786 20.435 163.49 20.435C174.624 20.4558 185.758 20.4558 196.913 20.435C200.575 20.435 203.157 18.0003 203.326 14.4002C203.369 13.5887 203.623 13.4638 204.363 13.4846C207.369 13.5262 210.354 13.5054 213.359 13.5054C218.863 13.5054 222.673 16.9182 223.181 22.2871C223.181 58.8288 223.181 95.3705 223.181 131.891C223.181 133.015 223.096 133.182 222.059 133.182C217.339 133.223 212.619 133.223 207.898 133.182C207.644 133.182 207.411 133.14 207.179 133.057C206.734 132.849 206.692 132.391 206.628 131.995C205.041 123.963 202.839 116.076 200.807 108.168C200.575 107.232 200.532 106.379 200.956 105.442C201.464 104.36 201.506 103.216 201.464 101.988C201.358 98.8873 201.125 95.7659 200.934 92.6652C200.68 88.4617 200.49 84.2373 200.194 80.0338C200.067 78.3898 199.897 76.7251 199.94 75.0603C200.024 70.2949 196.764 67.548 192.933 67.6105C192.785 67.6105 192.658 67.5688 192.51 67.548C191.706 67.3399 190.901 67.4648 190.097 67.4232C188.954 67.3815 188.742 67.1943 188.679 66.1122C188.657 65.6335 188.679 65.1549 188.679 64.6763C188.657 63.8647 188.996 63.3653 189.843 63.2404C191.579 62.9699 192.827 62.0127 193.611 60.5144C195.918 56.0819 195.748 51.6287 193.399 47.2586C191.833 44.3453 189.187 43.2216 185.948 42.8678C183.112 42.5557 180.297 42.6597 177.524 43.1383C174.095 43.7418 171.639 45.5314 170.856 49.0899C170.327 51.5662 169.777 54.0426 169.798 56.5814C169.819 57.601 170.009 58.5791 170.412 59.5155C171.47 61.9502 173.587 62.8451 176.127 61.971C176.592 61.8046 177.016 61.534 177.524 61.4924C178.836 61.6797 180.085 62.1791 181.397 62.3872C181.99 62.4913 182.265 62.9283 182.286 63.511C182.329 64.4058 182.329 65.3006 182.286 66.1954C182.244 67.1735 182.011 67.3607 180.995 67.4024C179.429 67.4648 177.841 67.2983 176.275 67.5064C175.174 67.548 174.222 68.1723 173.121 68.2139C172.803 67.9434 172.74 67.548 172.592 67.1735C171.851 65.0925 170.898 64.385 168.634 64.2809C167.512 64.2393 166.39 64.2393 165.268 64.2809C162.643 64.4058 160.823 66.2162 160.696 68.7758C160.675 69.1504 160.696 69.5457 160.527 69.8995C160.4 70.1492 160.188 70.3365 159.997 70.5446C159.299 71.377 159.257 72.0845 160.061 72.8129C160.759 73.4371 160.971 74.1655 160.929 75.0187C160.823 76.6002 161.119 78.1817 160.759 79.7425C160.569 80.013 160.251 80.0754 159.955 80.1795C158.41 80.6997 158.177 81.0327 158.156 82.5934C158.156 82.8223 158.156 83.072 158.156 83.3009C158.135 83.6755 158.156 84.0501 158.071 84.4246C157.902 85.2362 157.584 85.9854 157.034 86.6305C156.738 86.9218 156.738 87.2756 156.822 87.6501C156.717 89.1484 157.203 90.397 158.325 91.4167C158.516 91.5831 158.643 91.7912 158.706 92.0201C159.108 94.9751 159.172 97.9717 159.405 100.947C159.489 102.071 159.68 103.195 159.743 104.319C159.447 105.609 158.876 106.837 158.96 108.252C159.108 110.77 161.035 112.372 163.575 112.039C164.4 111.935 165.205 111.623 166.072 111.789C166.178 111.831 166.284 111.893 166.348 111.977C166.475 112.434 166.326 112.871 166.199 113.308C164.548 119.53 162.855 125.753 161.267 131.995C161.162 132.412 161.035 132.807 160.569 132.974C160.061 133.14 159.532 133.098 159.003 133.098C152.356 133.098 145.71 133.098 139.063 133.098C138.555 133.182 137.941 133.306 137.412 132.911Z" fill="#ECE9E9"/>
<path d="M207.052 132.869C212.153 132.89 217.275 132.89 222.377 132.911C222.906 132.911 223.16 132.745 223.117 132.204C223.096 131.891 223.117 131.579 223.117 131.267C223.117 94.9959 223.096 58.7248 223.096 22.4536C223.096 22.3912 223.138 22.3287 223.138 22.2663C223.16 22.6409 223.223 23.0154 223.223 23.39C223.223 59.5571 223.223 95.7451 223.223 131.912C223.223 148.165 223.223 164.417 223.223 180.669C223.223 181.189 223.308 181.71 223.117 182.209C222.567 181.772 222.715 181.127 222.715 180.565C222.694 175.862 222.715 171.159 222.715 166.435C222.715 166.123 222.694 165.811 222.715 165.499C222.779 164.646 222.377 164.354 221.53 164.354C218.757 164.375 215.963 164.375 213.19 164.354C212.597 164.354 211.983 164.375 211.391 164.292C210.65 164.167 209.909 164.146 209.168 164.146C192.531 164.146 175.894 164.146 159.257 164.146C158.579 164.146 157.923 164.146 157.246 164.271C156.653 164.375 156.06 164.354 155.446 164.354C149.985 164.354 144.524 164.354 139.063 164.354C138.492 164.354 137.857 164.479 137.391 163.959C137.391 153.804 137.37 143.649 137.37 133.515C137.37 133.306 137.391 133.098 137.391 132.89C144.863 132.89 152.335 132.89 159.828 132.89C160.188 132.89 160.527 132.869 160.886 132.849C161.289 132.474 161.797 132.516 162.283 132.516C176.74 132.516 191.176 132.516 205.633 132.516C206.141 132.516 206.628 132.536 207.052 132.869Z" fill="#E98F27"/>
<path d="M118.426 12.6939C124.67 12.6939 130.914 12.6939 137.137 12.6939C135.909 14.0257 134.809 15.4408 134.004 17.0639C133.581 17.3761 133.073 17.3345 132.586 17.3345C130.11 17.3345 127.654 17.3553 125.178 17.3345C124.416 17.3345 124.119 17.5634 124.119 18.3541C124.141 26.9693 124.141 35.6053 124.119 44.2205C124.119 44.9904 124.416 45.261 125.178 45.261C127.252 45.2402 129.327 45.2402 131.422 45.261C131.867 45.261 132.353 45.1985 132.713 45.5523C132.946 47.0298 132.798 48.5073 132.798 50.0056C132.798 50.7131 132.142 50.609 131.676 50.6299C129.623 50.6507 127.591 50.6299 125.538 50.6507C124.141 50.6507 124.141 50.6507 124.141 52.0241C124.162 69.8996 124.141 87.775 124.141 105.651C124.141 119.364 124.141 133.098 124.119 146.812C124.119 148.435 123.971 148.581 122.299 148.581C121.664 148.581 121.029 148.602 120.394 148.581C119.357 148.539 119.124 148.31 119.082 147.249C119.061 146.833 119.082 146.417 119.082 146C119.082 114.848 119.082 83.6964 119.082 52.5652C119.082 52.0241 119.188 51.4622 118.955 50.9212C118.553 50.505 118.023 50.6507 117.558 50.6507C111.419 50.6299 105.302 50.6507 99.1636 50.6507C97.4067 50.6507 97.3009 50.5674 97.3009 48.8402C97.3009 48.1535 97.3009 47.446 97.3009 46.7593C97.3221 45.5107 97.5126 45.3026 98.7614 45.2818C100.624 45.261 102.487 45.2818 104.371 45.2818C108.816 45.2818 113.24 45.2818 117.685 45.2818C119.018 45.2818 119.082 45.2194 119.082 43.95C119.082 35.5013 119.082 27.0526 119.103 18.6038C119.103 17.9587 118.976 17.4593 118.404 17.0847C118.426 15.5864 118.426 14.1506 118.426 12.6939Z" fill="#FEFEFE"/>
<path d="M137.412 163.98C144.016 164.001 150.642 164.001 157.246 164.021C157.796 164.729 157.606 165.541 157.5 166.31C157.309 167.642 157.415 168.995 157.373 170.327C157.352 171.118 157.711 171.326 158.473 171.263C159.553 171.159 160.632 171.242 161.712 171.076C162.199 170.993 162.707 170.972 163.088 171.367C163.384 171.887 163.321 172.449 163.321 172.99C163.321 177.485 163.321 182.001 163.321 186.496C163.321 187.432 163.321 188.369 163.469 189.284C163.553 189.763 163.553 190.262 163.151 190.658C161.564 190.679 159.997 190.72 158.41 190.72C154.6 190.72 150.811 190.741 147.001 190.72C141.413 190.699 137.37 186.704 137.37 181.21C137.391 175.467 137.391 169.723 137.412 163.98Z" fill="#ECE9E9"/>
<path d="M211.412 164.021C215.074 164.001 218.736 164.001 222.377 163.959C223.139 163.959 223.117 164.375 223.117 164.895C223.096 170.576 223.096 176.237 223.096 181.918C223.096 182.022 223.117 182.126 223.139 182.23C222.673 187.058 218.947 190.554 214.037 190.72C212.873 190.762 211.73 190.699 210.565 190.679C209.274 189.305 208.406 187.62 207.39 186.059C203.961 180.711 200.469 175.404 197.061 170.035C196.786 169.619 196.214 169.203 196.807 168.6C197.865 168.163 199.008 168.246 200.13 168.121C203.347 167.767 206.565 167.517 209.782 167.184C211.391 167.018 211.391 166.976 211.2 165.395C211.137 164.916 211.031 164.438 211.412 164.021Z" fill="#ECE9E9"/>
<path d="M132.735 50.7338C132.777 51.0668 132.819 51.4206 132.819 51.7535C132.819 68.2972 132.819 84.8408 132.819 101.364C132.819 101.676 132.777 101.988 132.735 102.279C131.951 102.779 131.083 102.529 130.258 102.55C129.517 102.571 129.136 102.8 129.221 103.59C129.242 103.861 129.242 104.152 129.221 104.423C129.157 105.38 128.903 105.65 127.951 105.692C127.041 105.734 126.13 105.692 125.199 105.692C124.352 105.692 123.971 105.317 124.035 104.464C124.056 104.215 124.035 103.986 124.035 103.736C124.035 86.6513 124.035 69.5457 124.035 52.461C124.035 52.0865 124.014 51.6911 124.056 51.3165C124.098 50.8379 124.352 50.5257 124.86 50.5049C127.4 50.4841 129.919 50.4009 132.459 50.5466C132.565 50.5882 132.65 50.6922 132.735 50.7338Z" fill="#FEFEFE"/>
<path d="M196.616 168.808C198.585 171.908 200.553 175.009 202.543 178.11C205.041 182.001 207.56 185.851 210.057 189.742C210.248 190.033 210.375 190.366 210.523 190.679C206.523 190.699 202.522 190.72 198.543 190.741C196.616 190.741 194.69 190.699 192.764 190.679C192.362 190.45 192.066 190.117 191.833 189.721C189.737 186.288 187.557 182.896 185.44 179.462C184.001 177.173 183.027 174.697 182.286 172.137C182.075 171.388 181.736 170.743 181.44 170.035C181.63 169.869 181.884 169.827 182.117 169.807C186.52 169.474 190.923 168.995 195.325 168.558C195.77 168.496 196.257 168.475 196.616 168.808Z" fill="#FD9993"/>
<path d="M163.151 190.658C162.834 184.228 163.067 177.777 163.003 171.346C163.808 170.785 164.739 170.847 165.628 170.805C168.866 170.639 172.084 170.431 175.301 170.223C176.296 170.16 177.333 169.931 178.286 170.493C178.582 170.951 178.54 171.492 178.54 172.012C178.54 177.714 178.54 183.395 178.54 189.097C178.54 189.638 178.603 190.221 178.201 190.679C173.184 190.741 168.168 190.762 163.151 190.658Z" fill="#FD9993"/>
<path d="M133.772 17.4802C133.475 18.812 132.925 20.0606 132.904 21.4548C132.777 21.8294 132.84 22.2039 132.84 22.5785C132.84 29.7162 132.84 36.8331 132.84 43.9708C132.84 45.3234 132.84 45.3234 131.422 45.3234C129.369 45.3234 127.337 45.3234 125.284 45.3234C124.141 45.3234 124.056 45.2402 124.056 44.1581C124.056 35.6053 124.056 27.0526 124.056 18.4998C124.056 17.4593 124.246 17.2513 125.262 17.2513C127.802 17.2304 130.343 17.2513 132.861 17.2513C133.179 17.2513 133.518 17.2096 133.772 17.4802Z" fill="#FEFEFE"/>
<path d="M132.734 50.7338C130.237 50.7546 127.739 50.7755 125.241 50.7546C124.5 50.7546 124.289 50.9835 124.289 51.6911C124.31 69.296 124.31 86.9218 124.289 104.527C124.289 105.255 124.522 105.484 125.241 105.442C126.215 105.38 127.21 105.401 128.205 105.442C128.819 105.463 128.967 105.234 128.988 104.672C129.073 102.279 129.094 102.279 131.591 102.279C131.972 102.279 132.375 102.279 132.756 102.3C132.756 102.425 132.756 102.571 132.734 102.695C132.163 103.153 131.464 102.987 130.808 102.987C129.962 102.987 129.856 103.465 129.856 104.131C129.835 104.839 130.152 105.089 130.851 105.109C132.269 105.13 132.353 105.089 132.417 103.757C132.438 103.382 132.438 102.987 132.734 102.695C133.221 104.006 132.904 105.338 132.904 106.649C132.946 120.321 132.946 133.993 132.904 147.665C132.904 149.58 133.137 151.515 132.777 153.45C121.114 153.45 109.451 153.429 97.8089 153.429C97.8724 152.951 98.2746 152.972 98.6133 152.93C99.0578 152.867 99.5235 152.888 99.9891 152.888C110.17 152.888 120.352 152.888 130.533 152.888C132.396 152.888 132.396 152.888 132.396 151.036C132.396 149.184 132.396 149.184 130.533 149.184C120.182 149.184 109.811 149.184 99.46 149.184C98.8461 149.184 98.1899 149.309 97.6396 148.872C97.6396 148.581 97.6396 148.31 97.6396 148.019C98.1476 147.811 98.6768 147.936 99.2059 147.915C101.132 147.852 102.508 146.625 102.741 144.731C102.783 144.356 102.783 143.961 102.783 143.586C102.783 133.952 102.783 124.337 102.783 114.703C102.783 114.432 102.783 114.141 102.762 113.87C102.762 113.267 102.444 113.017 101.831 112.996C100.878 112.996 99.9256 113.017 98.9731 112.975C98.4863 112.955 97.9783 112.975 97.6396 112.518C97.6396 112.351 97.6396 112.164 97.6184 111.997C98.2958 111.727 98.4863 111.269 98.4016 110.541C98.0629 107.773 97.8089 105.005 97.7031 102.217C97.6819 101.842 97.7666 101.447 97.6396 101.072C97.6396 99.7821 97.6396 98.4711 97.6608 97.1809C98.2534 97.5139 98.1899 98.1382 98.2534 98.6584C98.5921 101.572 98.8673 104.506 99.1848 107.44C99.3118 108.605 99.4176 109.792 99.6081 110.957C99.6716 111.311 99.7563 111.644 100.222 111.664C100.645 111.685 100.878 111.456 101.026 111.103C101.174 110.749 101.259 110.374 101.344 110C103.355 101.717 105.387 93.4352 107.461 85.153C107.546 84.7784 107.588 84.4038 107.715 84.0292C108.011 83.1552 107.842 82.5726 106.974 82.0315C105.725 81.2616 105.26 79.9922 105.535 78.5979C105.852 76.9956 106.255 75.414 106.805 73.8741C107.313 72.4799 108.371 71.5851 109.811 71.1897C110.573 70.9816 111.144 70.7111 111.44 69.9203C111.694 69.192 112.287 68.8174 113.113 69.0463C113.832 69.2544 114.213 69.8995 114.002 70.7943C113.811 71.6059 114.15 71.9388 114.869 72.1469C116.055 72.5215 117.05 73.125 117.515 74.3528C117.664 74.7481 117.833 75.1851 117.515 75.5389C117.177 75.8927 116.796 75.5597 116.457 75.414C115.674 75.0187 115.25 75.3932 114.975 76.0591C114.615 76.9748 114.446 77.932 114.234 78.8684C113.769 80.991 112.52 82.3437 110.319 82.6766C109.324 82.8223 108.985 83.3425 108.773 84.2165C106.636 92.9774 104.498 101.738 102.317 110.478C102.148 111.165 102.085 111.706 103.037 111.789C103.545 111.831 103.715 112.226 103.778 112.663C103.842 113.121 103.82 113.558 103.82 114.016C103.82 123.651 103.82 133.286 103.82 142.9C103.82 144.627 103.841 146.312 102.487 147.644C102.868 147.998 103.249 147.873 103.566 147.873C108.011 147.873 112.456 147.873 116.88 147.873C118.595 147.873 118.595 147.873 118.595 146.208C118.595 131.371 118.595 116.555 118.595 101.717C118.595 85.6108 118.595 69.5041 118.595 53.3975C118.595 53.1269 118.595 52.8356 118.595 52.5651C118.595 51.0044 118.574 50.9835 117.029 50.9835C115.187 50.9835 113.367 50.9835 111.525 50.9835C107.44 50.9835 103.355 50.9835 99.2694 50.9835C98.7403 50.9835 98.1264 51.15 97.7242 50.5674C97.8724 50.276 98.1476 50.3593 98.3804 50.3593C105.175 50.3593 111.991 50.3593 118.785 50.3593C118.955 50.3593 119.145 50.3593 119.293 50.4633C119.315 50.9211 119.357 51.3581 119.357 51.8159C119.357 83.509 119.357 115.223 119.357 146.916C119.357 148.248 119.357 148.248 120.712 148.248C121.516 148.248 122.341 148.227 123.146 148.248C123.59 148.248 123.802 148.102 123.76 147.644C123.738 147.332 123.76 147.02 123.76 146.708C123.76 115.015 123.76 83.3009 123.76 51.6078C123.76 50.2552 123.76 50.2552 125.114 50.2552C127.379 50.2552 129.623 50.2344 131.888 50.276C132.48 50.276 132.692 50.1095 132.671 49.5269C132.629 48.1742 132.65 46.8216 132.65 45.469C133.073 47.2586 133.031 49.0066 132.734 50.7338Z" fill="#5882AE"/>
<path d="M178.201 190.658C178.201 183.915 178.201 177.173 178.201 170.452C179.238 169.578 180.339 169.931 181.461 170.223C181.863 170.264 182.159 170.306 182.265 170.826C183.069 174.676 184.847 178.11 186.964 181.398C188.933 184.457 190.859 187.557 192.785 190.658C187.917 190.762 183.048 190.762 178.201 190.658Z" fill="#ECE9E9"/>
<path d="M227.753 129.977C227.817 129.977 227.901 129.977 227.965 129.977C229.764 129.956 229.446 129.873 229.446 131.371C229.446 151.244 229.446 171.117 229.446 190.991C229.446 192.322 229.446 192.322 228.092 192.322C226.568 192.322 225.065 192.322 223.541 192.322C223.202 192.322 222.821 192.468 222.567 192.135C226.06 189.18 227.732 185.455 227.711 180.898C227.668 164.313 227.69 147.707 227.69 131.121C227.711 130.726 227.732 130.351 227.753 129.977Z" fill="#FEFEFE"/>
<path d="M227.732 56.7478C227.732 50.3177 227.732 43.8875 227.753 37.4365C229.087 37.7695 229.764 38.8724 230.484 39.8504C231.711 41.5152 232.452 43.4089 232.77 45.469C232.981 46.8841 232.727 47.1754 231.267 47.1754C230.949 47.1754 230.632 47.1962 230.441 47.1754C230.801 47.1962 231.267 47.1962 231.754 47.1754C232.621 47.113 232.897 47.5916 232.812 48.3408C232.452 51.5454 231.076 54.2923 228.642 56.4773C228.409 56.727 228.134 56.9975 227.732 56.7478Z" fill="#FEFEFE"/>
<path d="M227.753 124.983C230.293 124.983 232.812 125.003 235.352 124.962C235.987 124.962 236.22 125.128 236.199 125.773C236.156 126.731 236.156 127.709 236.199 128.666C236.22 129.311 236.008 129.498 235.352 129.478C232.812 129.457 230.293 129.478 227.753 129.478C227.753 128 227.753 126.481 227.753 124.983Z" fill="#FEFEFE"/>
<path d="M227.753 35.5637C231.373 37.7695 233.426 41.0574 233.997 45.1153C234.717 50.2552 232.981 54.5836 228.917 57.9756C228.579 58.2669 228.261 58.6207 227.753 58.6415C227.753 58.2878 227.753 57.934 227.753 57.5802C227.986 56.9767 228.515 56.5814 228.981 56.1652C234.272 51.2541 234.167 42.5141 228.494 37.6446C228.198 37.3949 227.88 37.166 227.774 36.7706C227.753 36.3752 227.753 35.9799 227.753 35.5637Z" fill="#FDFDFE"/>
<path d="M133.772 17.48C130.999 17.5008 128.205 17.5217 125.432 17.5008C124.585 17.48 124.289 17.6673 124.289 18.5829C124.331 27.0941 124.331 35.6052 124.289 44.1163C124.289 44.9487 124.522 45.1776 125.347 45.1568C127.485 45.0944 129.644 45.0944 131.782 45.1568C132.607 45.1776 132.756 44.9071 132.756 44.158C132.734 37.0203 132.734 29.9034 132.734 22.7657C132.734 22.3287 132.629 21.8709 132.904 21.4547C132.904 29.1958 132.925 36.9162 132.925 44.6574C132.925 44.9695 132.883 45.2817 132.713 45.5522C130.004 45.573 127.295 45.573 124.585 45.6146C123.865 45.6355 123.823 45.2609 123.823 44.7198C123.844 41.9938 123.823 39.2469 123.823 36.5208C123.823 30.4028 123.844 24.2848 123.802 18.1459C123.802 17.2927 124.014 17.043 124.903 17.043C127.93 17.1055 130.956 17.0638 133.983 17.0638C134.005 17.2511 133.941 17.3968 133.772 17.48Z" fill="#5982AF"/>
<path d="M227.753 36.7914C234.526 41.8274 234.929 51.2333 228.621 56.8311C228.325 57.0808 228.049 57.3305 227.753 57.5803C227.753 57.3097 227.753 57.0392 227.753 56.7687C229.404 55.7906 230.441 54.2715 231.309 52.6484C232.008 51.3166 232.367 49.8807 232.579 48.4032C232.685 47.6749 232.537 47.3211 231.669 47.3835C230.886 47.446 230.039 47.5292 229.277 47.1754C230.081 46.8009 230.907 46.9465 231.711 46.9465C232.367 46.9465 232.685 46.8217 232.6 46.0933C232.177 42.5765 230.695 39.6216 227.774 37.4574C227.753 37.2284 227.753 36.9995 227.753 36.7914Z" fill="#5C85B0"/>
<path d="M7.25663 21.642C7.80697 17.1055 11.4477 13.6719 16.0621 13.4846C19.4488 13.3598 22.8144 13.4638 26.2011 13.4222C26.7726 13.4222 26.9419 13.6095 26.8996 14.1505C26.7302 17.376 29.5454 20.4974 33.7365 20.435C43.4522 20.3102 53.1889 20.3934 62.9046 20.3934C62.9258 27.0109 62.9258 33.6075 62.9469 40.225C62.9469 43.4505 62.9469 46.6551 62.9469 49.8806C62.9469 50.4009 62.9258 50.9419 63.5608 51.1916C64.1958 51.4205 64.5345 51.0044 64.8943 50.6298C67.8153 47.5916 70.7364 44.5534 73.6574 41.4944C73.9538 41.1822 74.2289 40.9325 74.7158 40.9325C80.8119 40.9533 86.8868 40.9741 92.9829 40.9741C93.2369 41.2446 93.3004 41.5984 93.3004 41.9522C93.3004 46.6968 93.385 51.4414 93.258 56.1859C93.2369 56.4357 93.1734 56.6854 92.9829 56.8519C91.6494 58.038 90.1465 59.0161 88.6648 59.9941C88.1991 60.3063 87.924 60.0774 88.0086 59.5363C88.0933 58.912 88.2838 58.3293 88.432 57.7259C88.7283 56.5189 88.3473 55.7073 87.416 55.4784C86.6328 55.3119 86.0613 55.7906 85.7014 56.9351C85.1088 58.8496 84.5584 60.7849 83.9657 62.6994C83.7964 63.2612 83.5847 63.8023 83.2461 64.3017C80.6214 68.1099 78.1025 71.9805 75.5201 75.8094C75.3931 76.0175 75.2449 76.2048 75.0333 76.3505C74.9063 76.3921 74.7369 76.4337 74.6311 76.3505C73.8903 75.8927 73.4881 76.2672 73.1071 76.8499C72.1546 78.2233 71.1174 79.5343 70.1437 80.9078C69.3817 81.9899 69.1065 82.0107 68.0482 81.1991C64.0053 78.1609 60.3222 74.7481 56.8085 71.1689C56.5122 70.8775 56.2582 70.5446 56.0042 70.1908C54.2685 67.6521 51.7919 66.4867 48.7651 66.3827C47.2199 66.341 45.6747 66.341 44.1083 66.4035C43.4098 66.3827 42.6901 66.5283 42.034 66.2162C41.4201 64.8636 41.7165 63.4485 41.8223 62.0543C41.8646 61.534 42.4361 61.4508 42.8806 61.3467C43.8755 61.1386 44.8703 60.8889 45.8228 60.556C48.5322 59.5987 49.9716 57.7051 50.1409 54.8958C50.1621 54.5836 50.1621 54.2715 50.2679 53.9801C50.4161 53.6264 50.7336 53.4807 51.0511 53.3142C52.3423 52.6275 53.0408 51.587 52.9138 50.1304C52.7868 48.6529 51.8978 47.7789 50.5219 47.2794C50.3526 47.217 50.1833 47.1546 50.0351 47.0713C49.3154 46.5511 49.3789 45.7395 49.2731 45.0112C49.0614 43.5129 48.8921 41.9938 47.6432 40.8493C46.8177 40.0793 45.8652 39.6631 44.7222 39.6215C40.9545 39.4966 37.2079 39.788 33.4402 39.8712C31.5986 39.9128 30.2651 41.099 29.9476 42.9094C29.6301 44.699 29.7359 46.4887 29.8841 48.2783C29.6724 50.713 29.5455 53.1686 29.2703 55.6033C29.0374 57.5178 28.3601 59.2866 27.3441 60.9514C27.1747 61.2219 27.0054 61.4716 26.8784 61.7629C26.2434 62.9907 26.7937 63.8647 28.2119 63.6982C30.0323 63.4901 31.8738 63.615 33.6942 63.5734C34.1387 63.5734 34.6255 63.5317 35.0277 63.8231C35.4299 64.5098 35.3029 65.2381 35.1759 65.9457C35.1335 66.0497 35.07 66.1538 34.9854 66.237C34.2869 66.57 33.546 66.3619 32.8263 66.4867C32.403 66.4659 31.9796 66.7364 31.5563 66.5908C27.9367 66.3827 24.2749 66.0081 20.9305 67.9018C17.9671 69.5665 16.0833 71.8556 16.2738 75.4348C16.4431 78.6812 16.6547 81.9275 16.8453 85.1738C17.0146 87.8998 17.1628 90.6259 17.3321 93.3519C17.5226 96.5358 17.6708 99.6989 17.9248 102.883C18.0306 104.131 17.9671 105.38 18.1364 106.608C18.4751 109.042 19.8086 110.645 22.2428 111.144C24.4865 111.602 24.3384 111.581 24.0209 113.745C23.1319 119.718 22.2852 125.69 21.3538 131.642C21.2692 132.183 21.248 132.765 20.6765 133.077C20.2743 133.244 19.851 133.223 19.4276 133.244C15.8716 133.244 12.3155 133.265 8.75948 133.244C7.27779 133.244 7.19312 133.161 7.19312 131.746C7.19312 95.4537 7.19312 59.1409 7.19312 22.8489C7.19312 22.4119 7.12963 22.0166 7.25663 21.642Z" fill="#ECE9E9"/>
<path d="M97.6396 41.0157C98.0206 40.9949 98.4016 40.9325 98.7826 40.9325C103.757 40.9325 108.71 40.8701 113.684 40.9533C116.436 40.9949 118.468 39.1429 118.404 36.3336C118.277 30.4861 118.362 24.6386 118.362 18.7703C118.362 18.3541 118.383 17.9379 118.404 17.5217C118.828 17.2095 119.039 17.4176 119.145 17.8338C119.209 18.1044 119.166 18.3957 119.166 18.6662C119.166 27.0733 119.166 35.4804 119.166 43.8875C119.166 45.3233 119.166 45.3233 117.685 45.3233C111.419 45.3233 105.154 45.3233 98.8884 45.3233C97.3644 45.3233 97.2586 45.2609 97.3009 43.721C97.3432 42.8262 97.0258 41.8481 97.6396 41.0157Z" fill="#FEFEFE"/>
<path d="M92.9829 56.4981C92.9829 51.3165 92.9617 46.1349 92.9617 40.9533C94.4645 40.9117 95.9674 40.8493 97.4702 40.9949C97.5337 45.2401 97.4279 49.4853 97.6607 53.7096C97.6184 54.0842 97.449 54.3755 97.068 54.4588C95.8827 54.7293 94.9513 55.4576 94.02 56.1444C93.7237 56.3733 93.4274 56.6438 92.9829 56.4981Z" fill="black"/>
<path d="M97.4914 54.0217C97.4914 49.6725 97.4914 45.3233 97.4702 40.9949C97.5125 40.9741 97.576 40.9949 97.6184 40.9949C97.6184 42.1394 97.6395 43.284 97.6184 44.4285C97.5972 44.9696 97.7666 45.136 98.3169 45.136C104.963 45.1152 111.61 45.1152 118.277 45.136C118.87 45.136 118.976 44.9071 118.976 44.4077C118.955 35.6885 118.976 26.9692 118.976 18.25C118.976 17.8546 119.039 17.4384 118.426 17.5217C118.426 17.3552 118.426 17.2095 118.426 17.043C119.166 16.939 119.463 17.1679 119.463 17.9795C119.42 26.8444 119.42 35.7093 119.463 44.595C119.463 45.4898 119.103 45.5938 118.341 45.5938C111.779 45.573 105.217 45.5938 98.6767 45.573C97.8724 45.573 97.5549 45.7395 97.6184 46.5927C97.703 47.5291 97.703 48.4656 97.6184 49.402C97.5549 50.2136 97.8512 50.3593 98.6132 50.3593C105.175 50.3176 111.737 50.3384 118.277 50.3593C118.637 50.3593 119.061 50.172 119.357 50.5465C112.583 50.5465 105.81 50.5465 99.0366 50.5465C98.6344 50.5465 98.1899 50.4009 97.83 50.713C97.957 51.7743 98.0206 52.8148 97.7877 53.8761C97.7242 53.9801 97.6184 54.0217 97.4914 54.0217Z" fill="#5A83AF"/>
<path d="M90.2522 10.6546C84.8547 10.6546 79.4571 10.6546 74.0807 10.6546C73.8267 10.6546 73.5938 10.6546 73.3398 10.6546C73.0858 10.6546 72.8106 10.6129 72.7895 10.3216C72.7683 10.0095 73.0435 9.94703 73.2975 9.94703C73.5092 9.94703 73.7208 9.94703 73.9325 9.94703C84.8547 9.94703 95.798 9.94703 106.72 9.94703C107.143 9.94703 107.863 9.71812 107.884 10.3008C107.905 10.9459 107.165 10.6546 106.784 10.6754C101.259 10.6546 95.7556 10.6546 90.2522 10.6546Z" fill="#FEFEFE"/>
<path d="M86.9502 24.1599C82.611 24.1599 78.2929 24.1599 73.9537 24.1599C73.6785 24.1599 73.3821 24.1599 73.107 24.1391C72.9165 24.1183 72.7683 23.9934 72.7683 23.8061C72.7683 23.6189 72.8953 23.4732 73.0858 23.4524C73.361 23.4316 73.6573 23.4316 73.9325 23.4316C82.6321 23.4316 91.3106 23.4316 100.01 23.4524C100.412 23.4524 101.132 23.2027 101.153 23.8061C101.153 24.4512 100.434 24.1599 100.053 24.1599C95.671 24.1807 91.3106 24.1599 86.9502 24.1599Z" fill="#FEFEFE"/>
<path d="M82.1242 17.4593C79.309 17.4593 76.4938 17.4593 73.6574 17.4593C73.2976 17.4593 72.7472 17.6258 72.7684 17.0431C72.7896 16.4812 73.3399 16.6685 73.6997 16.6685C79.3302 16.6685 84.9818 16.6685 90.6122 16.6685C90.972 16.6685 91.5435 16.502 91.5435 17.0431C91.5647 17.6882 90.9297 17.4801 90.5698 17.4801C87.7546 17.4593 84.9394 17.4593 82.1242 17.4593Z" fill="#FDF7F7"/>
<path d="M77.531 30.9647C76.1975 30.9647 74.8639 30.9647 73.5304 30.9647C73.2129 30.9647 72.8107 31.0271 72.7896 30.611C72.7472 30.0907 73.2129 30.1532 73.5516 30.1532C76.3033 30.1532 79.0338 30.1532 81.7856 30.1532C82.1031 30.1532 82.5052 30.1115 82.5476 30.5277C82.5899 31.048 82.1242 30.9647 81.7856 30.9647C80.3462 30.9647 78.928 30.9647 77.531 30.9647Z" fill="#FDF6F6"/>
<path d="M7.25657 21.642C7.25657 22.1622 7.27773 22.6824 7.27773 23.2027C7.27773 59.3282 7.27773 95.4329 7.27773 131.558C7.27773 133.077 7.08721 132.911 8.61124 132.911C12.6965 132.911 16.7817 132.89 20.8669 132.869C21.3326 132.432 21.9253 132.536 22.4756 132.536C26.9207 132.536 31.3446 132.516 35.7896 132.536C36.6151 132.536 37.3137 132.391 37.864 131.766C38.4143 132.474 39.1552 132.578 40.0019 132.536C40.912 132.495 41.8222 132.516 42.7324 132.536C44.8914 132.495 47.0505 132.495 49.2307 132.536C55.6442 132.495 62.0367 132.474 68.4503 132.536C74.9697 132.474 81.4891 132.516 87.9874 132.495C89.1939 132.495 90.3792 132.495 91.5858 132.495C92.0726 132.495 92.5806 132.474 92.9828 132.849C93.004 141.526 93.004 150.204 93.004 158.881C93.004 160.546 92.9616 162.19 92.9404 163.855C92.6229 164.125 92.242 164.146 91.8398 164.146C86.167 164.146 80.4731 164.188 74.8004 164.125C69.805 164.188 64.8307 164.146 59.8353 164.146C59.031 164.146 58.2266 164.146 57.4223 164.209C53.1254 164.063 48.8073 164.188 44.5104 164.146C44.0236 164.146 43.5368 164.146 43.0499 164.125C38.0968 164.188 33.1226 164.146 28.1695 164.146C27.9155 164.146 27.6827 164.146 27.4287 164.146C25.9047 164.146 25.8623 164.188 25.8623 165.749C25.8623 173.469 25.8623 181.189 25.8623 188.889C25.8623 189.492 25.9893 190.158 25.4813 190.658H25.4178L25.3967 190.616C24.8463 190.158 24.9945 189.534 24.9945 188.972C24.9733 181.418 24.9945 173.885 24.9945 166.331C24.9945 166.019 24.9945 165.707 24.9945 165.395C24.9521 164.25 24.8675 164.146 23.7033 164.146C18.8137 164.125 13.9241 164.125 9.01341 164.146C7.8069 164.146 7.70107 164.25 7.70107 165.457C7.6799 170.576 7.70108 175.696 7.67991 180.815C7.67991 181.377 7.8069 182.001 7.32006 182.48C7.02372 182.063 7.15073 181.606 7.15073 181.169C7.15073 174.801 7.19306 168.433 7.19306 162.044C7.17189 115.764 7.1719 69.5041 7.15073 23.2235C7.06607 22.7241 6.93907 22.1622 7.25657 21.642Z" fill="#459257"/>
<path d="M92.9406 132.869C84.7701 132.869 76.5784 132.869 68.408 132.869C68.0058 132.536 67.9 132.058 67.7941 131.579C66.8628 127.688 65.8891 123.796 64.9366 119.926C64.8307 119.468 64.6826 118.989 64.9789 118.532C65.4234 118.136 65.9526 118.199 66.4818 118.199C68.662 118.178 70.8422 118.199 73.0224 118.199C75.0333 118.178 75.6894 117.533 75.6894 115.452C75.7106 108.605 75.6894 101.759 75.6894 94.9127C75.6894 94.33 75.6683 93.7474 75.7529 93.1647C76.3668 91.6664 77.531 90.5219 78.5047 89.2525C79.944 87.4004 81.4046 85.59 82.8439 83.7379C83.1826 83.3009 83.4154 82.8639 83.3307 82.3229C83.4366 81.8651 83.7329 81.5321 83.9869 81.1575C86.2306 77.9529 88.5167 74.7898 90.7816 71.5851C91.2896 70.8568 91.7764 69.9828 92.9194 70.0452C92.9406 70.2949 92.9618 70.5238 92.9618 70.7736C92.9618 91.271 92.9618 111.768 92.9618 132.266C92.9618 132.453 92.9618 132.661 92.9406 132.869Z" fill="#ECE9E9"/>
<path d="M74.7794 163.917C80.8331 163.897 86.8868 163.897 92.9406 163.876C92.9406 170.015 93.0676 176.133 92.9194 182.271C92.8136 186.6 88.813 190.533 84.4526 190.637C78.3566 190.762 72.2605 190.658 66.1644 190.658C65.8892 190.117 66.2067 189.638 66.3549 189.159C68.8314 181.897 71.1598 174.593 73.6787 167.351C73.9327 166.602 74.1443 165.832 74.3137 165.041C74.3772 164.625 74.4195 164.209 74.7794 163.917Z" fill="#ECE9E9"/>
<path d="M74.7793 163.917C74.3136 167.122 72.9801 170.077 71.9852 173.136C70.0802 178.984 68.0905 184.81 66.1431 190.637C59.7719 190.637 53.4006 190.637 47.0294 190.637C46.7542 190.179 47.0294 189.763 47.1988 189.347C50.395 181.252 53.5065 173.115 56.6815 164.999C56.8297 164.604 56.9567 164.209 57.38 164.001C57.507 163.959 57.634 163.876 57.7611 163.876C63.4338 163.897 69.1065 163.897 74.7793 163.917Z" fill="#8F3600"/>
<path d="M25.439 190.679C25.439 182.167 25.4813 173.635 25.439 165.124C25.439 164.021 25.7776 163.813 26.7937 163.834C32.2124 163.897 37.6311 163.897 43.071 163.897C43.4097 164.271 43.3674 164.729 43.3885 165.166C43.6849 170.743 43.579 176.32 43.6214 181.876C43.6425 184.29 43.9177 186.704 43.8119 189.139C43.7907 189.659 43.8542 190.179 43.4521 190.616C37.4406 190.658 31.4292 190.679 25.439 190.679Z" fill="#8F3600"/>
<path d="M7.25659 182.521C7.25659 176.715 7.27776 170.889 7.25659 165.083C7.25659 164.188 7.42592 163.834 8.44194 163.855C13.6913 163.917 18.9407 163.897 24.169 163.855C25.0792 163.855 25.3544 164.042 25.3544 165C25.312 173.552 25.3332 182.084 25.3332 190.637C22.0735 190.637 18.7926 190.783 15.5329 190.616C11.3206 190.408 7.74343 186.787 7.25659 182.521Z" fill="#ECE9E9"/>
<path d="M7.93399 192.322C5.71147 192.322 3.48894 192.322 1.26642 192.343C0.694913 192.343 0.398587 192.218 0.483254 191.594C0.504421 191.365 0.483254 191.116 0.483254 190.866C0.483254 131.954 0.483254 73.0417 0.483254 14.1297C0.483254 12.4649 0.271565 12.673 1.94375 12.7146C3.5736 12.7562 5.22463 12.5065 6.85448 12.8603C3.93345 15.7736 2.6211 19.2488 2.6211 23.3483C2.64227 75.414 2.66342 127.459 2.57876 179.525C2.57876 184.623 3.93345 188.931 7.93399 192.322Z" fill="#FDFDFD"/>
<path d="M92.9405 70.0451C91.9456 70.4405 91.3529 71.2313 90.7814 72.0637C88.3472 75.4973 85.8919 78.9309 83.4365 82.3852C82.9708 82.5101 82.6322 82.198 82.2935 81.9691C80.0286 80.3459 77.7849 78.7019 75.5201 77.0788C75.2449 76.8915 74.885 76.725 74.9274 76.288C77.1076 73.0001 79.2031 69.629 81.5315 66.4243C83.119 64.2393 84.0503 61.8461 84.7277 59.2866C84.9817 58.3501 85.2569 57.4345 85.5744 56.5189C85.9342 55.4368 86.7385 54.9374 87.6064 55.2079C88.5801 55.4992 89.0246 56.3524 88.7706 57.4137C88.5801 58.2461 88.3684 59.0785 88.0932 60.1814C89.8501 58.8704 91.4376 57.705 93.004 56.5397C94.4645 55.6449 95.7133 54.3963 97.5125 54.0634C97.576 54.0634 97.6184 54.0634 97.6607 54.0425C98.7191 53.5847 99.6292 54.0425 100.518 54.542C100.857 55.083 100.349 55.2703 100.053 55.4992C98.7825 56.4148 97.5125 57.3305 96.2213 58.2253C95.9038 58.4334 95.5652 58.6207 95.3958 59.016C96.4542 58.4958 97.3855 57.7467 98.3592 57.0807C99.3117 56.4356 100.137 55.6449 101.238 55.2079C102.127 55.4576 102.762 56.0195 103.206 56.7894C103.164 57.2472 102.762 57.3721 102.466 57.601C100.942 58.7247 99.3752 59.7652 97.9571 61.0138C98.5286 60.8265 98.9942 60.4935 99.4599 60.1398C100.561 59.3282 101.682 58.5374 102.804 57.7675C103.122 57.5594 103.418 57.3097 103.841 57.2888C105.704 57.6218 106.127 60.3062 104.688 61.3259C102.466 62.8658 100.328 64.489 98.2534 66.1954C98.084 66.3202 97.8935 66.4243 97.6819 66.4243C97.6184 66.4659 97.5549 66.5075 97.5125 66.5491C95.8615 67.5896 94.3587 68.7549 92.9405 70.0451Z" fill="#FD9993"/>
<path d="M43.4523 190.658C43.3253 181.751 43.1983 172.824 43.0713 163.917C47.601 163.917 52.1519 163.897 56.6816 163.897C56.9145 163.897 57.1684 163.98 57.4013 164.021C53.9511 172.907 50.5009 181.772 47.0507 190.658C45.8442 190.658 44.6377 190.658 43.4523 190.658Z" fill="#ECE9E9"/>
<path d="M97.6185 66.3827C99.5235 64.5931 101.598 63.0324 103.757 61.5757C105.789 60.2023 105.852 58.5791 103.778 57.3722C103.524 57.2057 103.312 56.9976 103.101 56.7687C102.487 56.2692 101.958 55.6658 101.259 55.2912C101.026 55.1247 100.794 54.9582 100.603 54.7293C99.6717 54.2923 98.6768 54.0842 97.6608 54.001C97.7455 52.8981 97.4491 51.7744 97.8301 50.6923C98.2535 50.7131 98.6768 50.7755 99.079 50.7755C105.323 50.7755 111.567 50.7963 117.791 50.7547C118.658 50.7547 118.997 50.8587 118.997 51.8576C118.955 83.6339 118.976 115.41 118.997 147.186C118.997 148.102 118.764 148.331 117.833 148.331C112.478 148.289 107.122 148.31 101.767 148.31C101.746 148.206 101.683 148.102 101.704 148.081C103.291 146.833 103.588 145.168 103.566 143.253C103.503 133.244 103.524 123.235 103.545 113.204C103.545 112.434 103.461 111.893 102.487 112.06C101.556 112.226 101.683 111.685 101.831 111.103C103.778 103.278 105.704 95.4538 107.63 87.6085C107.969 86.1935 108.329 84.7784 108.646 83.3634C108.773 82.7599 108.985 82.4477 109.726 82.4269C112.097 82.3229 113.409 81.1159 113.917 78.7852C114.15 77.7448 114.404 76.6835 114.743 75.6846C115.124 74.6025 115.716 74.4777 116.669 75.1852C116.88 75.3309 117.113 75.5806 117.304 75.4557C117.579 75.2892 117.388 74.9563 117.325 74.7066C117.071 73.7701 116.499 73.125 115.589 72.7505C115.145 72.5632 114.658 72.4175 114.192 72.2718C113.536 72.0846 113.197 71.7932 113.599 71.1065C113.684 70.9608 113.705 70.7735 113.769 70.6071C114.002 69.962 113.705 69.4834 113.134 69.2544C112.52 69.0047 111.885 69.2128 111.779 69.8371C111.589 71.0857 110.784 71.2938 109.705 71.5227C108.35 71.7932 107.419 72.7505 107.017 74.0615C106.593 75.4765 106.17 76.9124 105.831 78.3691C105.429 80.0754 106.128 81.4489 107.8 82.1772C108.329 82.4061 108.35 82.6142 108.223 83.0928C105.916 92.478 103.609 101.842 101.344 111.227C101.111 112.206 100.497 111.997 99.8622 112.039C99.079 112.081 99.2907 111.498 99.2483 111.103C98.6345 106.462 98.4016 101.801 97.6396 97.181C97.6396 92.1866 97.6396 87.1715 97.6185 82.1772C97.9783 81.6154 98.6768 81.5737 99.1425 81.1784C100.54 79.9922 101.153 78.5147 100.772 76.7459C100.264 74.4152 99.5447 72.147 98.9308 69.8371C98.698 68.9631 97.9571 68.318 97.5973 67.5064C97.6185 67.1527 97.6185 66.7781 97.6185 66.3827Z" fill="#FEFEFE"/>
<path d="M97.6608 112.538C99.1848 112.559 100.688 112.601 102.212 112.601C102.847 112.601 103.143 112.705 103.143 113.433C103.122 123.796 103.143 134.139 103.122 144.502C103.122 147.27 100.434 148.955 97.6608 148.019C97.6396 136.199 97.6396 124.379 97.6608 112.538Z" fill="#FEFEFE"/>
<path d="M97.6396 148.872C100.137 148.851 102.635 148.83 105.133 148.83C113.981 148.83 122.807 148.851 131.655 148.81C132.523 148.81 132.84 149.018 132.756 149.892C132.671 150.683 132.671 151.494 132.756 152.285C132.84 153.138 132.48 153.305 131.676 153.305C120.796 153.284 109.916 153.284 99.0366 153.305C98.6345 153.305 98.1899 153.159 97.8089 153.45C97.4068 151.931 97.7455 150.391 97.6396 148.872Z" fill="#FDFDFD"/>
<path d="M97.6396 81.6986C97.6396 77.2246 97.6396 72.7505 97.6396 68.2764C98.5498 68.3389 98.698 69.1504 98.8673 69.7123C99.6928 72.2094 100.37 74.7274 100.942 77.287C101.28 78.8477 99.9891 80.9911 98.5075 81.657C98.2323 81.7819 97.936 81.9484 97.6396 81.6986Z" fill="#FEFEFE"/>
<path d="M97.6396 81.6986C99.587 81.1992 101.09 79.2222 100.666 77.3286C100.116 74.769 99.3541 72.251 98.6133 69.7122C98.4651 69.1712 98.1688 68.6301 97.6396 68.2764C97.6396 68.0475 97.6396 67.7978 97.6184 67.5688C98.4439 68.1723 98.9519 69.0047 99.2271 69.9411C99.8833 72.1886 100.518 74.4568 101.069 76.7459C101.661 79.1806 100.095 81.6362 97.6396 82.2396C97.6396 82.0523 97.6396 81.8651 97.6396 81.6986Z" fill="#5F87B2"/>
<path d="M97.7878 102.092C98.1264 105.151 98.4439 108.21 98.8249 111.269C98.9731 112.476 98.1899 111.997 97.6396 112.018C97.6396 108.71 97.6396 105.401 97.6608 102.092C97.7031 102.092 97.7455 102.092 97.7878 102.092Z" fill="#F9FAFB"/>
<path d="M97.7878 102.092H97.7242H97.6608C97.6608 101.759 97.6608 101.447 97.6608 101.114C97.9359 101.405 97.8089 101.759 97.7878 102.092Z" fill="#CED7E2"/>
<path d="M207.052 132.869C206.692 132.89 206.353 132.911 205.993 132.911C191.346 132.911 176.698 132.911 162.051 132.911C161.67 132.911 161.267 132.89 160.886 132.869C162.537 125.898 164.527 119.031 166.305 112.101C166.369 111.977 166.475 111.873 166.602 111.81C169.946 110.686 172.676 108.501 175.682 106.795C176.614 106.275 177.439 106.087 178.455 106.483C179.958 107.065 181.524 107.523 183.091 107.898C184.826 108.293 186.477 108.064 188.065 107.232C187.874 106.837 187.536 106.774 187.261 106.649C183.81 104.943 180.339 103.237 176.846 101.593C176.296 101.322 175.851 101.468 175.343 101.572C175.047 100.448 173.989 100.24 173.121 99.7821C172.952 99.6989 172.782 99.6156 172.592 99.5324C171.999 99.1994 171.343 98.9705 170.729 98.6376C170.539 98.4503 170.454 98.2214 170.496 97.9509C172.38 95.5786 174.095 93.1022 175.978 90.7507C176.465 90.1264 176.508 89.6894 175.915 89.0652C174.751 87.8166 173.692 86.4848 172.084 85.7356C171.893 85.6524 171.745 85.4859 171.724 85.257C171.66 84.6743 171.555 84.0916 171.47 83.5298C171.237 81.865 170.496 80.5956 168.761 80.0962C168.591 80.0546 168.443 79.9297 168.401 79.7632C168.464 79.4511 168.612 79.1806 168.634 78.8684C168.718 78.2441 169.184 78.0569 169.713 77.8696C172.38 76.9748 173.206 75.7678 173.248 73.0209C173.269 71.7723 173.036 70.5446 172.952 69.296C172.93 68.9214 172.782 68.5468 173.121 68.2347C174.073 67.7561 175.111 67.4647 176.169 67.3191C181.588 67.2775 187.007 66.8613 192.425 67.2983C193.039 67.548 193.674 67.3607 194.288 67.4856C197.632 68.1099 199.876 70.5238 200.088 73.9574C200.49 80.3875 200.829 86.7969 201.188 93.2271C201.358 96.3069 201.527 99.3659 201.718 102.446C201.781 103.653 201.654 104.818 201.061 105.859C200.723 106.462 200.723 106.982 200.871 107.627C202.755 115.036 204.829 122.381 206.374 129.873C206.649 130.83 206.84 131.85 207.052 132.869Z" fill="#202B6D"/>
<path d="M177.333 61.7005C173.862 63.7398 170.454 62.2416 169.734 58.3085C169.12 55.0206 169.967 51.8367 170.666 48.6737C171.237 46.0309 172.994 44.3453 175.555 43.4088C177.46 42.7013 179.471 42.5556 181.461 42.4308C183.832 42.2851 186.181 42.5556 188.488 43.0343C190.69 43.4921 192.298 44.8447 193.378 46.6968C195.96 51.0876 196.214 55.6657 194.076 60.3063C193.272 62.0335 191.981 63.2404 189.97 63.4901C189.208 63.4069 188.467 63.7815 187.684 63.4693C186.435 62.9699 185.652 62.1375 185.356 60.8473C184.932 58.9953 184.805 57.0808 184.509 55.2079C184.297 53.8137 184.043 52.3986 183.768 51.0252C183.345 48.8818 181.842 47.3835 180.487 45.7811C179.979 45.1985 179.386 44.699 178.857 44.158C178.265 43.5753 177.672 43.5545 176.952 43.9499C175.83 44.5742 175.217 45.5314 174.836 46.6968C174.518 47.654 174.476 48.6737 174.306 49.6517C174.243 50.0263 174.391 50.2968 174.645 50.5882C175.365 51.3997 175.344 51.6078 174.476 52.2113C174.116 52.461 173.904 52.7316 173.883 53.1269C173.798 54.5004 173.671 55.8946 173.968 57.2681C174.306 58.7455 175.132 59.9109 176.402 60.7849C176.783 61.0346 177.312 61.1595 177.333 61.7005Z" fill="black"/>
<path d="M177.333 61.7005C175.471 60.6392 173.989 59.2658 173.65 57.06C173.396 55.5201 173.502 53.9594 173.693 52.3986C173.735 51.9616 173.904 51.92 174.285 51.9824C174.666 52.0657 174.899 51.7952 174.963 51.4622C175.026 51.1084 174.793 50.7963 174.476 50.7755C173.883 50.7339 173.925 50.4009 173.968 50.0055C174.137 48.7986 174.264 47.6124 174.624 46.4263C175.068 44.9696 176.042 43.9915 177.397 43.3464C177.841 43.1384 178.138 43.1592 178.519 43.4921C180.064 44.8655 181.461 46.3638 182.71 48.0078C183.98 49.6726 184.213 51.6287 184.53 53.564C184.869 55.6033 185.123 57.6635 185.419 59.7236C185.8 62.4913 186.858 63.3653 189.97 63.4693C189.06 63.511 188.954 64.0312 188.975 64.822C189.017 67.1318 188.996 67.1318 191.346 67.1526C191.727 67.1526 192.108 67.0486 192.468 67.2359C187.049 67.4232 181.63 67.2983 176.19 67.2567C177.799 67.0278 179.408 67.1735 181.016 67.1735C181.821 67.1735 182.075 66.9445 182.011 66.1746C181.948 65.3214 181.969 64.4474 182.011 63.5734C182.032 63.0323 181.863 62.6994 181.292 62.6578C179.937 62.5537 178.667 62.0127 177.333 61.7005Z" fill="#FD9993"/>
<path d="M171.872 85.2986C173.925 86.1518 175.195 87.8998 176.635 89.4606C176.846 89.6895 176.91 89.8976 176.698 90.1889C174.73 92.7693 172.782 95.3289 170.835 97.9093C170.793 97.9509 170.708 97.9717 170.645 97.9925C170.221 98.1174 169.904 97.8677 169.565 97.7012C166.369 96.1405 163.151 94.5797 159.955 92.9774C159.426 92.7069 158.854 92.4988 158.579 91.9161C157.013 90.834 156.399 89.3565 156.653 87.5044C157.034 87.2547 157.309 87.5461 157.606 87.7125C159.003 88.4409 160.336 89.2525 161.712 90.0016C162.051 90.1889 162.347 90.4386 162.813 90.3762C162.262 89.9184 161.627 89.5646 160.992 89.2317C159.807 88.6282 158.685 87.9415 157.521 87.2964C157.246 87.1507 156.928 87.0258 156.865 86.6721C157.203 86.0062 157.648 85.4027 157.838 84.6535C159.786 86.0686 161.987 87.0674 164.189 88.3368C164.125 87.879 163.829 87.8166 163.617 87.6917C162.072 86.7969 160.484 85.9645 158.939 85.0697C158.516 84.82 158.029 84.6119 158.219 83.9668C159.214 82.6558 160.611 82.302 162.559 82.8639C164.125 83.3425 165.649 84.0084 167.3 84.1957C168.274 84.2998 169.247 84.3622 170.221 84.5495C170.814 84.6952 171.491 84.6743 171.872 85.2986Z" fill="#FD9993"/>
<path d="M173.142 68.1723C173.269 69.7955 173.587 71.3978 173.587 73.0209C173.566 75.7678 172.422 77.3493 169.734 78.1193C169.29 78.2442 168.803 78.265 168.761 78.8684C168.21 78.7228 167.745 78.7436 167.596 79.4095C167.533 79.6592 167.342 79.7841 167.088 79.8465C165.374 79.9089 163.659 80.1378 161.945 80.1378C161.5 80.1378 161.014 80.1795 160.654 79.8257C160.654 78.0361 160.633 76.2256 160.633 74.436C160.633 74.0614 160.654 73.7285 160.294 73.3955C158.622 71.918 158.664 71.1273 160.463 69.7955C161.289 69.0047 162.368 68.6093 163.405 68.2764C165.543 67.6104 167.533 66.7156 169.247 65.259C169.713 64.8428 170.158 64.8428 170.666 65.2173C171.449 65.8 172.253 66.3411 172.909 67.0694C172.973 67.4856 173.058 67.8185 173.142 68.1723Z" fill="#FD9993"/>
<path d="M173.184 99.5949C173.883 99.6989 174.455 100.115 175.068 100.406C175.534 100.615 175.619 100.968 175.28 101.384C174.814 102.092 173.989 102.321 173.333 102.737C172.126 103.507 170.856 104.152 169.713 105.005C170.094 105.089 170.369 104.839 170.644 104.693C172.063 103.861 173.481 103.028 174.92 102.196C175.153 102.05 175.428 101.884 175.703 102.092C175.936 102.3 175.936 102.591 175.873 102.862C175.682 103.611 175.301 104.277 174.772 104.86C172.549 107.253 169.882 109.146 167.448 111.29C167.067 111.623 166.623 111.81 166.157 111.997C164.781 112.06 163.448 112.642 162.008 112.289C160.188 111.852 158.939 110.561 158.77 108.709C158.643 107.232 158.876 105.817 159.659 104.527C159.87 104.027 160.251 103.674 160.717 103.424C163.744 101.801 166.792 100.219 169.882 98.7001C170.2 98.5544 170.496 98.3255 170.877 98.4712C171.597 98.5336 172.168 98.8873 172.719 99.2827C172.549 99.7197 172.147 99.8654 171.787 100.073C170.496 100.843 169.205 101.593 167.914 102.383C167.639 102.55 167.258 102.633 167.11 103.174C169.226 102.03 171.216 100.843 173.184 99.5949Z" fill="#FD9993"/>
<path d="M170.856 98.5127C167.491 100.219 164.125 101.926 160.781 103.674C160.357 103.902 160.019 104.256 159.638 104.568C159.087 103.008 159.236 101.364 159.109 99.7613C158.897 97.1601 158.749 94.5381 158.579 91.9369C162.516 94.1219 166.623 95.9948 170.645 98.0133C170.708 98.159 170.772 98.3462 170.856 98.5127Z" fill="black"/>
<path d="M166.136 112.018C167.999 110.499 169.819 108.938 171.703 107.461C172.825 106.566 173.841 105.567 174.772 104.485C175.322 103.861 175.703 103.112 175.64 102.071C174.222 102.904 172.888 103.673 171.555 104.464C171.047 104.756 170.539 105.089 170.009 105.38C169.755 105.505 169.438 105.796 169.205 105.359C169.015 105.005 169.332 104.88 169.565 104.735C169.84 104.568 170.094 104.402 170.369 104.256C171.999 103.32 173.629 102.362 175.259 101.426C175.746 100.781 176.254 101.01 176.846 101.322C180.466 103.112 184.107 104.86 187.726 106.628C188.044 106.774 188.404 106.857 188.679 107.232C186.647 108.397 184.551 108.689 182.329 108.002C180.847 107.544 179.365 107.128 177.905 106.608C177.27 106.379 176.804 106.462 176.254 106.795C173.82 108.272 171.364 109.667 168.951 111.165C168.126 111.685 167.194 111.852 166.284 112.122C166.242 112.081 166.178 112.06 166.136 112.018Z" fill="black"/>
<path d="M160.632 79.8465C162.897 79.8881 165.141 79.6384 167.406 79.5551C167.787 79.347 168.168 79.3054 168.507 79.6592C171.364 80.4083 171.915 82.4061 171.872 85.2778C170.666 84.8616 169.417 84.6743 168.168 84.6119C166.136 84.5286 164.316 83.7379 162.432 83.1344C160.781 82.6141 159.405 82.8431 158.262 84.1749C157.733 84.0708 158.177 83.5922 157.944 83.3633C157.881 82.6766 157.754 82.0107 158.008 81.324C158.473 80.1378 159.574 80.013 160.632 79.8465Z" fill="black"/>
<path d="M172.888 67.1318C171.957 66.7156 171.237 65.9873 170.433 65.3838C170.052 65.0925 169.84 65.0717 169.48 65.4046C167.787 66.9029 165.839 67.9018 163.617 68.4844C162.516 68.7758 161.5 69.3584 160.463 69.8162C160.23 66.2578 162.093 64.1976 165.691 64.0104C166.644 63.9687 167.596 63.9895 168.528 64.0312C171.047 64.156 172.063 64.8636 172.888 67.1318Z" fill="black"/>
<path d="M157.944 83.3842C158.05 83.6547 158.156 83.9252 158.262 84.1957C158.325 84.716 158.833 84.7576 159.172 84.9449C160.823 85.9021 162.516 86.8177 164.188 87.7542C164.442 87.8998 164.845 88.0247 164.675 88.4201C164.485 88.8571 164.146 88.6282 163.892 88.4825C162.008 87.442 160.124 86.3807 158.219 85.3403C157.923 85.1738 157.817 84.9865 157.838 84.6743C158.092 84.2582 157.817 83.8003 157.944 83.3842Z" fill="#060303"/>
<path d="M156.865 86.6929C158.876 87.8166 160.908 88.9195 162.919 90.0432C163.194 90.1889 163.554 90.3554 163.363 90.7299C163.151 91.1045 162.834 90.8964 162.538 90.7299C160.569 89.6478 158.622 88.5865 156.653 87.5253C156.399 87.1507 156.42 86.8593 156.865 86.6929Z" fill="#070404"/>
<path d="M181.44 170.223C180.36 170.306 179.259 170.181 178.18 170.452C173.1 170.639 168.041 170.993 162.982 171.346C161.31 171.43 159.617 171.471 157.944 171.617C157.225 171.679 157.013 171.513 157.055 170.826C157.14 168.558 157.182 166.29 157.225 164.021C157.585 163.834 157.987 163.917 158.368 163.917C175.619 163.917 192.87 163.917 210.121 163.917C210.544 163.917 210.968 163.98 211.37 164.021C211.433 164.812 211.433 165.603 211.56 166.394C211.687 167.205 211.37 167.351 210.608 167.413C206.163 167.788 201.739 168.246 197.294 168.683C197.061 168.704 196.807 168.787 196.574 168.828C193.039 169.141 189.525 169.453 185.991 169.786C184.509 169.911 182.985 170.077 181.44 170.223Z" fill="#202B6D"/>
<path d="M206.798 148.518C206.777 154.012 202.226 158.444 196.616 158.444C191.007 158.444 186.456 153.887 186.499 148.352C186.541 142.9 191.134 138.467 196.765 138.488C202.332 138.488 206.798 142.962 206.798 148.518Z" fill="#FEFEFD"/>
<path d="M166.813 138.467C172.38 138.488 176.931 142.983 176.931 148.477C176.91 153.95 172.338 158.445 166.771 158.424C161.162 158.403 156.632 153.95 156.632 148.456C156.611 142.879 161.141 138.446 166.813 138.467Z" fill="#FEFEFD"/>
<path d="M132.734 127.251C132.734 133.931 132.713 140.611 132.756 147.291C132.756 148.123 132.523 148.352 131.697 148.331C129.623 148.269 127.549 148.269 125.453 148.331C124.522 148.352 124.268 148.123 124.268 147.186C124.31 138.322 124.289 129.457 124.289 120.592C124.289 116.097 124.31 111.581 124.268 107.086C124.246 106.129 124.543 105.921 125.453 105.963C127.527 106.025 129.602 106.025 131.697 105.963C132.523 105.942 132.756 106.171 132.756 107.003C132.713 113.745 132.734 120.509 132.734 127.251Z" fill="#FEFEFE"/>
<path d="M116.69 74.3736C115.102 74.1864 114.721 74.4153 114.235 75.8095C113.875 76.8292 113.663 77.8697 113.473 78.931C112.986 81.5946 109.408 83.0305 107.355 81.4073C106.424 80.6582 106.064 79.6801 106.339 78.5356C106.678 77.1205 107.059 75.7263 107.482 74.332C107.906 72.9586 108.879 72.1262 110.34 71.8973C110.932 71.7933 111.102 71.9805 110.911 72.5632C110.446 73.8742 110.022 75.1852 109.578 76.4962C109.324 77.2454 109.197 77.9945 110.17 78.2859C111.081 78.5564 111.398 77.9113 111.631 77.1829C112.054 75.8303 112.541 74.4985 112.965 73.1459C113.113 72.6673 113.324 72.4384 113.854 72.6673C114.848 73.0835 116.055 73.1251 116.69 74.3736Z" fill="#FEFEFE"/>
<path d="M109.916 76.9331C110.657 74.7065 111.44 72.3758 112.245 70.0451C112.372 69.6914 112.647 69.5665 113.007 69.7122C113.409 69.8787 113.409 70.2116 113.303 70.5862C112.795 72.1261 112.287 73.6868 111.779 75.2267C111.546 75.9551 111.292 76.6626 111.038 77.3909C110.911 77.7239 110.678 77.9112 110.297 77.8071C109.874 77.6823 109.811 77.391 109.916 76.9331Z" fill="#FCFDFD"/>
<path d="M132.734 102.695C132.734 102.841 132.734 102.966 132.734 103.112C132.777 105.692 132.777 105.692 130.152 105.484C129.644 105.442 129.538 105.255 129.496 104.797C129.369 102.758 129.369 102.758 131.486 102.758C131.888 102.737 132.311 102.716 132.734 102.695Z" fill="#FBFBFB"/>
<path d="M37.9062 131.85C37.8639 132.765 37.3348 132.932 36.4669 132.911C31.2598 132.869 26.0528 132.869 20.8457 132.869C21.4595 128.708 22.0946 124.546 22.7084 120.384C23.1106 117.762 23.4704 115.119 23.8937 112.497C23.9996 111.873 23.9361 111.664 23.2164 111.602C20.8034 111.373 18.9407 110.312 18.0305 107.981C17.713 107.19 17.7341 106.337 17.6918 105.526C17.4166 101.322 17.2473 97.0977 16.9933 92.8941C16.6758 87.7126 16.316 82.5518 15.9985 77.3702C15.8291 74.769 15.7445 72.2094 17.6918 70.0244C19.872 67.5896 22.6026 66.3619 25.8199 66.1746C27.5768 66.0705 29.3336 66.1538 31.1117 66.1538C31.4292 66.1538 31.7678 66.1122 31.8737 66.5284C32.2123 66.9029 32.1488 67.3815 32.1488 67.8185C32.1488 71.481 32.1277 75.1435 32.17 78.806C32.17 79.8257 31.8737 80.4708 30.8153 80.8454C29.4395 81.324 28.9103 82.7182 29.2701 84.5079C29.5453 85.9229 30.392 86.568 31.9583 86.5888C34.8159 86.6305 35.3874 86.0478 35.3451 83.1969C35.3239 81.9067 34.7735 81.0743 33.5459 80.7205C32.6992 80.4708 32.3817 79.9714 32.3817 79.1182C32.3817 75.206 32.3817 71.2938 32.3817 67.4024C32.3817 67.0278 32.3605 66.6324 32.678 66.3411C33.44 66.0081 34.2444 66.1746 35.0275 66.237C35.4932 66.7364 35.4721 67.4024 35.5144 68.0058C35.8531 72.5631 36.2764 77.0996 36.6574 81.6361C36.9537 85.257 37.2924 88.8571 37.6099 92.478C37.8216 94.9543 38.0332 97.4307 38.2237 99.9278C38.2449 100.178 38.2238 100.406 38.0968 100.635C37.6734 101.052 37.1231 100.947 36.5939 100.968C35.0487 100.989 33.5035 100.947 31.9583 101.156C31.2598 101.239 31.027 101.489 31.154 102.154C31.6197 104.527 32.0007 106.92 32.4664 109.292C32.6145 110.041 32.9955 110.353 33.7575 110.333C35.0275 110.312 36.2976 110.312 37.5676 110.333C38.0544 110.333 38.5624 110.27 38.9646 110.666C39.3879 111.852 39.2609 113.079 39.1339 114.266C38.9011 116.222 38.9223 118.199 38.8164 120.176C38.6259 123.63 38.4143 127.084 38.3296 130.539C38.2661 130.976 38.3507 131.496 37.9062 131.85Z" fill="#6DB5DE"/>
<path d="M37.9487 100.594C36.9539 89.1276 35.9802 77.6615 34.9854 66.2162L35.0277 66.1538C35.2817 65.8833 35.6203 65.8208 35.9802 65.8C37.6524 65.7792 39.3246 65.7792 40.9967 65.8C41.3566 65.8 41.6953 65.8625 41.9493 66.133C42.7324 66.1538 43.4944 66.1746 44.2776 66.1954C44.6163 66.3619 44.7433 66.6948 44.8703 67.0278C47.1563 73.458 49.7175 79.7841 52.3211 86.1102C52.4481 86.4016 52.5539 86.6929 52.5751 87.0051C52.3422 90.293 52.5116 93.5601 52.4692 96.848C52.4692 97.3891 52.5327 97.9509 52.2999 98.492C52.2152 98.6793 52.0671 98.8665 51.8766 98.929C50.0985 99.5741 48.384 100.552 46.5001 100.677C44.0448 100.823 41.5894 101.093 39.1341 100.948C38.6896 100.906 38.2662 100.968 37.9487 100.594Z" fill="black"/>
<path d="M52.3422 86.7137C49.9927 81.3032 47.8337 75.7886 45.7805 70.2741C45.2725 68.9215 44.7856 67.548 44.2776 66.1954C46.2885 66.1538 48.2782 66.0497 50.289 66.2995C52.5751 66.5908 54.4378 67.6729 55.7924 69.4625C57.6975 71.9805 60.0682 74.0406 62.3754 76.1632C64.2592 77.9112 66.376 79.4303 68.3445 81.1159C69.043 81.7194 69.3817 81.6153 69.8685 80.887C70.821 79.472 71.8794 78.1401 72.8742 76.7667C73.7421 75.5806 73.7209 75.5806 74.9486 76.2881C77.7426 78.3482 80.5367 80.45 83.4365 82.3645C83.7752 82.6766 83.7964 82.9263 83.4789 83.3217C80.9812 86.4432 78.5258 89.5854 76.0493 92.7277C75.6894 92.3739 75.7529 91.8953 75.7318 91.4583C75.7106 90.3554 75.7741 89.2525 75.7106 88.1496C75.6259 86.6097 74.8851 85.9021 73.3187 85.7981C72.7472 85.7565 72.1969 85.7773 71.6254 85.7773C67.1591 85.7773 62.6929 85.7773 58.2266 85.7773C56.2158 85.7773 54.1414 85.4859 52.3422 86.7137Z" fill="#6DB5DE"/>
<path d="M29.7146 48.2575C29.5453 48.1535 29.4818 48.0078 29.4818 47.8205C29.503 46.1349 29.3548 44.4285 29.6723 42.743C30.0321 40.8909 31.4715 39.5591 33.3765 39.5175C37.1442 39.4134 40.912 39.351 44.6585 39.2886C46.881 39.2678 48.6167 40.662 49.1671 42.7846C49.3999 43.6586 49.5904 44.5326 49.6327 45.4274C49.6539 45.9476 49.6116 46.5511 50.1619 46.9257C49.5692 47.4667 48.7649 47.2378 48.0875 47.4667C46.9869 47.4251 45.9073 47.7997 44.8067 47.6748C43.325 47.1338 41.8433 47.1338 40.404 47.8621C39.3456 47.9454 38.3084 48.2159 37.2501 48.1326C35.091 48.2575 32.932 48.3199 30.7942 48.4864C30.4132 48.5072 30.0322 48.528 29.7146 48.2575Z" fill="#6DB5DE"/>
<path d="M37.3559 47.8413C38.3931 47.7789 39.4303 47.7165 40.4675 47.6541C40.5945 48.0702 40.2558 48.2783 40.0653 48.5697C39.0705 50.1096 39.4091 52.0241 40.8485 52.9813C42.4572 54.0426 44.3622 53.6888 45.4629 52.1281C46.1614 51.1293 46.1826 51.1293 46.9022 52.1281C47.5584 53.0229 48.4051 53.564 49.5481 53.6056C49.8656 53.6264 50.1831 53.6056 50.416 53.8761C50.4371 58.3918 48.384 60.6601 43.452 61.5757C41.6317 61.9086 41.9915 61.5549 41.9492 63.3653C41.928 64.3017 41.9492 65.2382 41.9492 66.1746C39.642 66.1746 37.3348 66.1954 35.0276 66.1954C35.0064 65.4255 35.0064 64.6347 34.9852 63.8647C34.9852 63.7607 35.0064 63.6566 35.0064 63.5526C34.6466 59.8485 36.4458 56.4773 36.6786 52.8565C36.7633 51.5871 36.8903 50.3177 36.9961 49.0275C37.0384 48.5905 36.9961 48.1535 37.3559 47.8413Z" fill="#FD9993"/>
<path d="M37.3559 47.8413C37.2289 50.6714 37.0173 53.5015 36.4881 56.2692C36.4034 56.6854 36.3822 57.1224 36.1917 57.4762C35.2181 59.1617 35.4509 60.993 35.4297 62.8034C35.4297 63.178 35.6202 63.6774 35.0064 63.8023C32.7627 63.8439 30.4978 63.8647 28.2541 63.9271C27.5768 63.948 26.8994 64.0104 26.4549 63.3445C25.9892 62.6369 26.3279 62.0335 26.7301 61.43C28.4446 58.8704 29.122 55.9987 29.249 52.9813C29.3125 51.3789 29.4606 49.7974 29.7146 48.2367C32.2547 48.1118 34.7947 47.9662 37.3559 47.8413Z" fill="black"/>
<path d="M50.4371 53.8553C48.4686 54.0218 47.0293 53.2934 46.2037 51.2957C45.8439 52.0865 45.5052 52.6899 44.9125 53.1269C43.4944 54.209 41.4623 54.0634 40.1923 52.8356C38.9858 51.6495 38.8588 49.6517 39.9172 48.2783C40.0865 48.0702 40.277 47.8621 40.4675 47.654C41.8433 46.7176 43.2615 46.7176 44.7221 47.4251C45.3782 47.6332 45.7381 48.1951 46.1826 48.7361C46.7752 48.1326 47.1774 47.4043 48.0241 47.217C48.7226 46.9673 49.4211 46.8632 50.162 46.9049C51.94 47.3002 53.0618 48.4656 53.1888 50.0263C53.337 51.8159 52.4692 53.0021 50.4371 53.8553Z" fill="#010101"/>
<path d="M32.6358 66.3203C32.6358 70.6487 32.6569 74.9771 32.6358 79.3055C32.6358 79.9506 32.7628 80.2627 33.4824 80.3876C34.9641 80.6581 35.6203 81.5321 35.6203 83.0304C35.6203 83.4882 35.6203 83.9252 35.6203 84.383C35.578 86.0062 34.6466 86.9218 32.9745 86.9426C32.8686 86.9426 32.7628 86.9426 32.6569 86.9426C29.5454 86.9426 28.5082 85.7773 28.8892 82.7183C29.0374 81.5529 29.7147 80.6789 30.9001 80.4708C31.7256 80.3252 31.8314 79.909 31.8314 79.2015C31.8103 74.9771 31.8314 70.7528 31.8526 66.5284C32.0643 66.2371 32.2971 66.029 32.6358 66.3203Z" fill="#FDFDFE"/>
<path d="M37.9063 131.85C38.2027 125.44 38.5202 119.031 38.8165 112.622C38.8377 111.977 38.8165 111.311 38.7954 110.666C39.0917 110.27 39.5362 110.291 39.9595 110.291C43.6638 110.27 47.3468 110.27 51.051 110.291C51.4109 110.291 51.7496 110.312 52.0671 110.499C52.5116 110.853 52.4481 111.373 52.4481 111.852C52.4692 113.1 52.4269 114.349 52.4692 115.597C52.5327 117.533 53.2524 118.219 55.1786 118.219C57.9303 118.24 60.6609 118.219 63.4126 118.24C63.9417 118.24 64.5768 118.115 64.9366 118.698C66.1008 123.422 67.2438 128.166 68.408 132.89C61.9944 132.89 55.5808 132.89 49.1672 132.89C48.384 132.162 48.384 131.142 48.0877 130.227C47.622 128.853 47.622 128.812 46.2038 128.812C45.463 128.812 44.7221 128.791 43.9813 128.832C43.2404 128.853 42.9018 129.207 42.9229 129.935C42.9441 130.518 42.9229 131.101 42.9229 131.704C42.9229 132.12 42.9441 132.536 42.6266 132.89C41.4412 132.89 40.2347 132.849 39.0494 132.932C38.1815 132.973 37.8217 132.682 37.9063 131.85Z" fill="#8F3600"/>
<path d="M75.0333 148.435C75.0121 154.012 70.4612 158.444 64.8096 158.424C59.2638 158.403 54.6706 153.825 54.7129 148.393C54.7764 142.879 59.3062 138.467 64.9154 138.467C70.5247 138.467 75.0544 142.92 75.0333 148.435Z" fill="#FDFEFD"/>
<path d="M45.1456 148.497C45.1244 153.97 40.5523 158.444 34.9642 158.424C29.3762 158.403 24.8464 153.908 24.8464 148.414C24.8464 142.92 29.3973 138.446 34.9854 138.446C40.6582 138.446 45.1668 142.9 45.1456 148.497Z" fill="#FDFEFD"/>
<path d="M42.6264 132.849C42.6264 131.663 42.6476 130.497 42.5841 129.311C42.5629 128.77 42.7534 128.562 43.2826 128.562C44.6161 128.541 45.9496 128.5 47.2832 128.416C47.8123 128.395 47.9393 128.666 48.0452 129.061C48.405 130.331 48.786 131.579 49.1458 132.849C46.9868 132.849 44.8066 132.849 42.6264 132.849Z" fill="#6DB5DE"/>
<path d="M64.9366 118.656C63.5819 118.407 62.2061 118.573 60.8302 118.552C58.8193 118.511 56.8085 118.552 54.8188 118.552C53.0407 118.552 52.1941 117.72 52.1729 115.951C52.1517 114.182 52.1729 112.414 52.1729 110.666C52.5539 110.229 53.0831 110.333 53.5488 110.333C56.0888 110.312 58.6077 110.312 61.1477 110.333C62.1849 110.333 63.2009 110.249 64.1958 110.062C65.9526 109.75 66.9263 108.626 67.3496 106.961C67.4131 106.296 66.884 106.566 66.63 106.566C64.9789 106.545 63.3279 106.566 61.6769 106.545C61.2112 106.545 60.682 106.67 60.3222 106.191C60.6185 105.63 61.1689 105.754 61.6345 105.754C63.0104 105.734 64.3862 105.754 65.7621 105.734C66.0373 105.734 66.3336 105.754 66.6088 105.713C66.9474 105.671 67.3708 105.671 67.3285 105.172C67.3073 104.756 66.9263 104.735 66.6088 104.735C65.0636 104.693 63.4972 104.735 61.952 104.693C61.3805 104.672 60.7244 104.88 60.3222 104.256C60.6609 103.757 61.19 103.882 61.6557 103.882C63.2644 103.861 64.8731 103.882 66.4818 103.861C66.7781 103.861 67.2015 104.09 67.3496 103.569C67.0109 102.321 66.1431 101.676 64.9154 101.384C63.6242 101.072 62.2907 100.947 60.9995 100.552C60.5127 100.032 59.8354 100.136 59.2215 99.9694C57.1683 98.9913 55.0516 98.3462 52.7232 98.7416C52.5116 98.7833 52.2999 98.7416 52.1517 98.5543C52.1517 95.204 52.1306 91.8328 52.1517 88.4825C52.1517 87.8998 52.2576 87.3171 52.3211 86.7345C53.0196 85.7772 53.9721 85.4651 55.1363 85.4859C61.1054 85.5067 67.0744 85.5067 73.0647 85.5067C75.1814 85.5067 75.9646 86.2975 75.9858 88.3992C75.9858 89.8559 76.0069 91.2918 76.0281 92.7485C76.0069 94.0178 75.9858 95.308 75.9646 96.5774C75.9646 102.904 75.9646 109.23 75.9646 115.556C75.9646 117.991 75.3507 118.573 72.8319 118.594C70.2072 118.615 67.5613 118.448 64.9366 118.656Z" fill="#202B6D"/>
<path d="M103.079 56.7686C103.609 56.6229 103.884 56.7894 103.757 57.3721C101.958 58.6415 100.158 59.89 98.3381 61.1594C98.0841 61.3467 97.7878 61.7837 97.4491 61.3883C97.0681 60.9305 97.5973 60.7432 97.8936 60.5351C99.6081 59.2658 101.344 58.0172 103.079 56.7686Z" fill="#050303"/>
<path d="M100.582 54.7293C101.047 54.6253 101.238 54.8334 101.238 55.2912C99.4176 56.5814 97.5972 57.8924 95.7557 59.1826C95.4805 59.3698 95.163 59.7652 94.8455 59.3699C94.4645 58.8912 95.036 58.7248 95.3112 58.5167C97.0681 57.2473 98.8249 55.9987 100.582 54.7293Z" fill="#060404"/>
<path d="M87.7969 63.8439C87.8604 63.8855 87.9874 63.9271 88.0932 64.0104C89.1516 64.7595 90.1887 65.5295 91.2259 66.2786C91.4376 66.4451 91.7339 66.6324 91.5011 66.9445C91.2259 67.3607 90.9296 67.0486 90.6968 66.8821C89.6807 66.1538 88.6647 65.4046 87.6487 64.6555C87.4582 64.5098 87.2042 64.3641 87.3101 64.0728C87.3736 63.9479 87.5217 63.8231 87.7969 63.8439Z" fill="#0A0606"/>
<path d="M191.134 94.3508C190.796 91.3542 190.478 88.5033 190.16 85.6524C190.097 85.0697 190.034 84.487 189.97 83.9044C189.928 83.613 189.97 83.3009 190.309 83.2593C190.69 83.2177 190.711 83.5714 190.753 83.8419C191.007 86.0686 191.261 88.316 191.515 90.5427C191.663 91.8537 191.79 93.1647 191.96 94.4549C192.044 95.204 191.854 95.5161 191.05 95.1832C190.012 94.767 188.954 94.3716 187.917 93.9762C187.642 93.8722 187.388 93.7057 187.515 93.3728C187.663 93.019 187.959 93.1439 188.234 93.2479C189.123 93.6017 190.055 93.9346 191.134 94.3508Z" fill="#FBFBFC"/>
<path d="M173.184 99.5949C173.206 99.9278 172.952 100.073 172.698 100.219C170.962 101.239 169.205 102.279 167.469 103.299C167.215 103.445 166.898 103.757 166.644 103.361C166.348 102.924 166.792 102.758 167.088 102.591C168.951 101.489 170.835 100.406 172.698 99.3035C172.888 99.366 173.057 99.4284 173.184 99.5949Z" fill="#060404"/>
<path d="M168.507 79.6592C168.147 79.6176 167.787 79.5759 167.406 79.5551C167.406 79.0765 167.3 78.5979 168.02 78.473C168.464 78.3898 168.697 78.4314 168.761 78.8892C168.824 79.1806 169.015 79.5343 168.507 79.6592Z" fill="#DFD9DC"/>
<path d="M189.716 55.0206C189.716 54.1882 189.737 53.3558 189.716 52.5235C189.695 52.0032 189.885 51.8159 190.393 52.0032C190.88 52.1905 191.409 52.3154 191.854 52.5651C192.827 53.1061 193.484 53.8761 193.484 55.0414C193.484 56.2276 192.764 56.9767 191.833 57.5178C189.885 58.6207 189.716 58.5166 189.716 56.3732C189.716 55.9362 189.716 55.4784 189.716 55.0206Z" fill="#FC9993"/>
<path d="M182.011 51.6287C181.969 52.0241 181.736 52.253 181.334 52.2322C180.974 52.2114 180.741 52.0449 180.72 51.6703C180.72 51.2749 180.931 50.9836 181.334 50.9836C181.736 50.9628 181.969 51.2333 182.011 51.6287Z" fill="#0E0908"/>
<path d="M172.465 88.3161C172.38 88.649 172.211 88.8571 171.809 88.6282C169.798 87.5045 167.787 86.4016 165.776 85.2779C165.543 85.153 165.395 84.9241 165.607 84.6952C165.882 84.4039 166.178 84.612 166.453 84.7576C168.274 85.7773 170.115 86.7762 171.936 87.7958C172.169 87.9207 172.401 88.0247 172.465 88.3161Z" fill="#0A0606"/>
<path d="M172.063 70.2324C172.063 70.5238 171.914 70.711 171.639 70.7318C171.364 70.7527 171.152 70.607 171.11 70.3573C171.068 70.0659 171.237 69.837 171.576 69.837C171.872 69.837 172.02 70.0035 172.063 70.2324Z" fill="#170E0E"/>
<path d="M166.919 70.4614C166.877 70.7319 166.729 70.9192 166.432 70.9192C166.157 70.9192 165.967 70.7319 165.967 70.4614C165.945 70.1492 166.157 70.0244 166.432 70.0244C166.707 70.0036 166.877 70.1701 166.919 70.4614Z" fill="#1C1110"/>
<path d="M205.972 148.56C205.909 153.741 201.739 157.674 196.341 157.612C191.304 157.55 187.239 153.346 187.303 148.269C187.366 143.233 191.6 139.216 196.807 139.258C201.951 139.32 206.036 143.461 205.972 148.56Z" fill="#E98F27"/>
<path d="M157.436 148.456C157.436 143.337 161.522 139.3 166.707 139.279C171.914 139.258 176.106 143.358 176.084 148.498C176.063 153.575 171.914 157.633 166.729 157.612C161.543 157.612 157.457 153.575 157.436 148.456Z" fill="#E98F27"/>
<path d="M60.4492 104.194C61.6557 104.527 62.8834 104.277 64.09 104.339C64.9578 104.381 65.8468 104.381 66.7146 104.339C67.4343 104.298 67.773 104.402 67.773 105.255C67.773 106.129 67.2862 106.067 66.7146 106.067C64.9578 106.046 63.2009 106.046 61.4441 106.067C61.1054 106.067 60.7456 105.942 60.4281 106.191C60.6397 106.649 61.0631 106.545 61.4441 106.545C63.0528 106.566 64.6826 106.545 66.2913 106.566C66.7358 106.566 67.2227 106.504 67.5613 106.899C67.392 108.772 65.9103 110.249 63.9206 110.437C60.6397 110.728 57.3377 110.562 54.0356 110.603C53.4006 110.624 52.7656 110.624 52.1518 110.645C47.6855 110.645 43.2193 110.645 38.7742 110.666C36.9327 110.666 35.1123 110.624 33.2708 110.666C32.5723 110.686 32.2971 110.457 32.1701 109.771C31.7256 107.045 31.2176 104.319 30.6884 101.613C30.5614 100.927 30.7096 100.802 31.3658 100.781C33.546 100.76 35.7262 100.656 37.9064 100.594C40.7851 100.531 43.7061 100.698 46.5425 100.344C48.4475 100.115 50.2679 99.1578 52.1094 98.5335C54.6918 97.9301 57.0625 98.4503 59.285 99.7821C58.8829 100.177 58.3749 100.094 57.888 100.094C56.618 100.115 55.3691 100.073 54.0991 100.198C56.3852 100.427 58.6924 100.219 60.9784 100.365C62.3754 100.635 63.7936 100.843 65.1906 101.176C66.4183 101.468 67.3073 102.175 67.519 103.507C67.1803 103.923 66.6935 103.84 66.249 103.84C64.6403 103.861 63.0104 103.84 61.4017 103.861C61.0842 103.861 60.6397 103.715 60.4492 104.194Z" fill="#FD9993"/>
<path d="M48.0243 47.2379C47.3046 47.779 46.606 48.3616 46.2885 49.4229C45.7805 48.653 45.3572 47.9663 44.7222 47.4252C45.8229 47.3628 46.9236 47.3003 48.0243 47.2379Z" fill="#F4948F"/>
<path d="M34.1174 57.1432C31.8737 56.8103 30.3496 55.4993 30.392 53.9802C30.4131 52.4402 31.9584 51.1917 34.1174 50.9628C34.1174 53.0229 34.1174 55.0831 34.1174 57.1432Z" fill="#FC9993"/>
<path d="M45.4418 50.3802C45.4207 51.8993 44.2353 53.0438 42.6902 53.0438C41.1661 53.0438 39.9808 51.8577 40.002 50.3178C40.0232 48.8611 41.2296 47.6749 42.6902 47.6749C44.193 47.6749 45.463 48.9027 45.4418 50.3802Z" fill="#FC9993"/>
<path d="M50.6277 52.8564C49.2941 53.231 48.2993 52.9605 47.5373 52.024C46.8599 51.1916 46.7753 49.9431 47.3256 49.0066C47.9183 48.0286 48.9131 47.5916 50.1832 47.7789C50.0562 48.4656 50.4372 49.1523 50.162 49.839C49.5481 50.3801 49.781 50.8171 50.3525 51.1916C50.5218 51.7327 50.6488 52.2737 50.6277 52.8564Z" fill="#FC9993"/>
<path d="M50.6276 52.8564C50.1408 52.3778 50.2678 51.7535 50.2255 51.1708C50.289 50.713 50.2678 50.276 50.035 49.8598C49.9715 49.4228 49.9291 48.965 49.8656 48.528C49.8233 48.2159 49.7386 47.9037 50.1831 47.7789C51.4955 48.0702 52.2576 48.8818 52.3634 50.0471C52.4904 51.4206 51.9612 52.2738 50.6276 52.8564Z" fill="#EBE8E8"/>
<path d="M34.8372 83.7171C34.8372 85.7773 34.4562 86.131 32.276 86.131C30.1805 86.131 29.7148 85.6732 29.7148 83.5506C29.7148 81.6153 30.2864 81.0951 32.4454 81.0951C34.3927 81.0951 34.8372 81.5737 34.8372 83.7171Z" fill="#6DB5DE"/>
<path d="M64.9154 139.279C70.1013 139.279 74.2077 143.316 74.2289 148.435C74.25 153.533 70.1225 157.612 64.9366 157.633C59.793 157.654 55.5596 153.533 55.5384 148.518C55.5172 143.378 59.6871 139.279 64.9154 139.279Z" fill="#459257"/>
<path d="M44.3412 148.477C44.3412 153.554 40.1501 157.633 34.9854 157.612C29.7994 157.591 25.6719 153.513 25.6719 148.435C25.6719 143.274 29.7994 139.258 35.07 139.258C40.2348 139.279 44.3412 143.358 44.3412 148.477Z" fill="#459257"/>
<path d="M61.0208 100.365C60.8091 100.677 60.4704 100.635 60.1741 100.635C58.1421 100.635 56.0888 100.635 54.0568 100.635C53.7181 100.635 53.2524 100.719 53.2524 100.24C53.2524 99.7613 53.7181 99.8237 54.0568 99.8237C55.8137 99.8029 57.5706 99.8029 59.3274 99.8029C59.8989 99.9902 60.7456 99.3659 61.0208 100.365Z" fill="#040203"/>
<path d="M67.5824 106.899C65.4022 106.899 63.2221 106.899 61.063 106.878C60.6397 106.878 60.0047 106.982 60.4492 106.191C62.7352 106.191 65.0212 106.212 67.3072 106.212C67.5824 106.212 67.9422 106.129 68.0481 106.462C68.1539 106.795 67.8153 106.837 67.5824 106.899Z" fill="#0E0908"/>
<path d="M60.4492 104.194C60.3434 103.549 60.3434 103.528 61.0419 103.528C63.2221 103.507 65.3811 103.507 67.5613 103.507C67.7729 103.57 68.0058 103.611 67.9634 103.882C67.8999 104.298 67.5613 104.173 67.2861 104.173C65.0212 104.194 62.7352 104.194 60.4492 104.194Z" fill="#0E0908"/>
<path d="M199.537 147.811C200.469 147.103 201.231 146.541 202.12 145.855C202.12 147.623 202.12 149.226 202.12 151.015C201.231 150.35 200.469 149.767 199.707 149.205C199.622 149.309 199.537 149.351 199.537 149.392C199.432 151.598 199.368 151.64 197.146 151.64C196.024 151.64 194.902 151.661 193.759 151.64C192.552 151.619 192.171 151.265 192.15 150.1C192.129 148.997 192.129 147.894 192.15 146.77C192.171 145.626 192.552 145.251 193.759 145.23C195.071 145.21 196.362 145.23 197.675 145.23C199.199 145.23 199.495 145.543 199.537 147.062C199.537 147.249 199.537 147.415 199.537 147.811Z" fill="#FEFEFE"/>
<path d="M169.819 154.054C169.184 153.991 168.485 153.742 167.85 153.388C164.612 151.598 162.347 148.997 161.416 145.418C161.077 144.148 161.733 143.045 163.024 143.004C164.104 142.962 164.146 144.294 164.802 144.918C165.035 145.147 165.247 145.376 164.908 145.792C163.935 147.041 163.977 147.519 164.972 148.706C165.586 149.434 166.242 150.1 167.025 150.662C167.66 151.12 168.358 151.224 168.951 150.662C169.353 150.266 169.65 150.35 170.031 150.641C170.369 150.891 170.771 151.057 171.068 151.348C171.428 151.681 172.274 151.661 172.02 152.472C171.703 153.471 170.877 154.116 169.819 154.054Z" fill="#FEFEFE"/>
<path d="M43.8753 50.5882C43.833 51.0044 43.579 51.2333 43.1768 51.2333C42.8381 51.2333 42.5841 51.046 42.563 50.6506C42.5418 50.2344 42.7535 49.9847 43.1768 49.9639C43.6002 49.9223 43.8118 50.2136 43.8753 50.5882Z" fill="#110A0A"/>
<path d="M50.0351 49.8599C50.7759 50.1928 50.7971 50.6506 50.2256 51.1709C49.8234 51.1917 49.4212 51.1709 49.3365 50.6714C49.2307 50.1512 49.5482 49.9223 50.0351 49.8599Z" fill="#121111"/>
<path d="M70.4188 145.813C70.4188 147.623 70.4188 149.247 70.4188 151.057C69.5087 150.35 68.7255 149.746 67.9423 149.143C67.8576 149.247 67.7941 149.288 67.7941 149.351C67.7095 151.577 67.6671 151.619 65.4446 151.619C64.2381 151.619 63.0527 151.598 61.8462 151.619C60.8725 151.64 60.428 151.119 60.4069 150.225C60.3857 149.018 60.3857 147.811 60.4069 146.583C60.428 145.647 60.9572 145.189 61.8674 145.189C63.2009 145.168 64.5556 145.168 65.8891 145.189C67.4131 145.189 67.7518 145.542 67.773 147.02C67.773 147.228 67.773 147.436 67.773 147.832C68.7043 147.103 69.5087 146.5 70.4188 145.813Z" fill="#FEFEFE"/>
<path d="M38.2026 154.054C36.869 153.866 35.599 153.284 34.4983 152.389C32.17 150.516 30.2861 148.331 29.6511 145.314C29.3971 144.044 29.9474 143.295 31.2174 142.921C31.7466 142.754 31.8948 143.108 32.0006 143.378C32.3393 144.19 33.6305 144.731 33.1436 145.667C32.3181 147.228 32.1911 147.499 33.3765 148.83C33.8421 149.351 34.3501 149.829 34.8582 150.308C35.6413 151.036 36.4669 151.307 37.377 150.495C37.5887 150.308 37.7792 150.266 38.0332 150.433C38.7317 150.911 39.4302 151.348 40.1499 151.806C40.2981 151.91 40.4039 152.014 40.3828 152.222C40.2769 153.055 39.1551 154.074 38.2026 154.054Z" fill="#FEFEFE"/>
</svg>
