<svg width="360" height="640" viewBox="0 0 360 640" fill="none" xmlns="http://www.w3.org/2000/svg">
<g clip-path="url(#clip0_511_233)">
<rect width="360" height="640" fill="white"/>
<path fill-rule="evenodd" clip-rule="evenodd" d="M32.3047 521.168C40.4106 463.304 127.81 461.044 173.102 424.132C205.856 397.439 220.114 350.643 259.694 335.856C301.242 320.333 346.084 333.3 389.278 343.369C440.297 355.262 499.019 358.644 532.013 399.336C566.03 441.291 570.986 501.762 560.696 554.785C551.103 604.214 506.969 635.563 478.153 676.853C445.727 723.317 433.389 788.862 381.483 811.58C327.677 835.13 258.854 827.332 210.494 794.001C164.732 762.46 172.345 693.024 141.953 646.491C110.84 598.852 24.411 577.517 32.3047 521.168Z" fill="#ABC5FE" fill-opacity="0.4"/>
<path d="M199.603 234.278C201.931 232.55 204.471 231.281 207.456 231.052C207.985 231.011 208.514 230.969 209.043 230.969C231.226 230.969 253.43 230.969 275.613 230.969C283.488 230.969 289.69 237.025 289.711 244.766C289.732 248.824 289.732 252.861 289.753 256.919C289.817 257.147 289.965 257.356 289.986 257.584C290.007 258.001 290.028 258.417 290.007 258.854C290.007 259.104 290.007 259.353 290.007 259.603C290.071 265.929 290.071 272.255 290.007 278.561C290.007 278.873 289.986 279.185 290.007 279.518C290.028 279.892 290.007 280.246 289.986 280.621C289.986 280.87 289.88 281.079 289.753 281.307C289.732 281.578 289.711 281.869 289.711 282.14C289.711 303.324 289.711 324.508 289.711 345.692C289.711 345.963 289.732 346.254 289.753 346.525C289.859 346.691 289.944 346.858 289.965 347.066C290.049 348.543 290.007 350 289.986 351.477C289.986 351.665 289.986 351.873 289.986 352.06C290.049 354.807 290.007 357.533 290.007 360.28C290.007 374.763 290.049 389.247 289.986 403.73C289.965 407.892 288.293 411.388 285.054 414.135C284.588 414.468 284.101 414.78 283.53 414.926C280.799 416.632 277.836 417.257 274.597 417.257C252.584 417.215 230.549 417.236 208.535 417.236C201.508 417.236 195.391 411.638 194.861 404.771C194.734 404.396 194.798 404.022 194.798 403.647C194.798 394.761 194.798 385.876 194.798 376.969C194.798 376.491 194.84 375.991 194.565 375.554C194.607 368.729 194.586 361.924 194.586 355.098C194.586 346.608 194.607 338.138 194.565 329.648C194.565 328.129 194.65 326.61 194.523 325.091C194.48 324.966 194.438 324.841 194.417 324.695C194.375 324.487 194.375 324.3 194.332 324.092C194.29 323.509 194.311 322.906 194.311 322.323C194.311 306.445 194.311 290.568 194.311 274.69C194.311 274.107 194.29 273.504 194.375 272.921C194.734 271.173 194.586 269.425 194.502 267.656C194.48 267.531 194.48 267.386 194.502 267.261C194.607 266.741 194.565 266.22 194.565 265.7C194.565 258.354 194.565 251.009 194.565 243.684C194.523 242.269 194.925 240.916 195.454 239.605C195.539 239.418 195.645 239.23 195.75 239.043C196.555 237.399 197.507 235.88 198.904 234.652C199.158 234.465 199.412 234.423 199.603 234.278Z" fill="black"/>
<path d="M124.905 230.948C124.926 229.367 124.926 227.764 124.947 226.183C124.968 223.706 126.683 222 129.201 222C144.886 222 160.55 222 176.235 222C178.711 222 180.383 223.686 180.404 226.141C180.426 228.846 180.447 231.531 180.447 234.236C180.531 234.403 180.616 234.59 180.637 234.777C180.722 236.171 180.68 237.586 180.658 239.001C180.658 239.189 180.658 239.397 180.658 239.584C180.68 245.91 180.595 252.236 180.701 258.583C180.743 261.122 178.859 263.203 176.023 263.286C173.525 263.349 171.027 263.307 168.53 263.307C165.609 263.307 162.688 263.349 159.767 263.286C159.64 263.286 159.491 263.286 159.364 263.286C157.925 263.307 156.465 263.328 155.025 263.286C149.31 263.307 143.616 263.307 137.901 263.286C136.822 263.286 136.017 263.598 135.298 264.348C132.736 267.011 130.239 269.758 127.593 272.338C127.233 272.671 126.915 273.046 126.471 273.296C125.688 273.733 125.01 273.462 124.735 272.63C124.629 272.297 124.608 271.943 124.608 271.61C124.608 261.85 124.587 252.07 124.608 242.31C124.545 238.897 124.587 235.485 124.587 232.072C124.587 231.635 124.608 231.26 124.905 230.948Z" fill="#E74F4F"/>
<path d="M124.905 230.948C124.905 234.756 124.905 238.585 124.905 242.393C124.524 242.726 124.037 242.664 123.592 242.664C114.046 242.664 104.5 242.685 94.9532 242.664C91.6724 242.664 88.9206 240.167 88.6878 236.941C88.6243 236.109 88.3492 235.797 87.4813 235.797C84.2851 235.838 81.0677 235.776 77.8715 235.818C74.3789 235.88 70.9711 238.627 69.9127 242.123C69.7434 242.664 69.6587 243.205 69.5105 243.746C69.3624 244.183 69.3835 244.641 69.3835 245.078C69.3835 281.453 69.3624 317.828 69.4047 354.183C69.4047 364.255 69.447 374.347 69.4259 384.419C69.4047 390.558 69.4259 396.676 69.4047 402.815C69.4047 403.293 69.3624 403.793 69.4894 404.251C69.9339 407.102 71.2462 409.411 73.7863 410.972C75.1833 411.846 76.7073 412.325 78.3795 412.325C81.364 412.325 84.3698 412.325 87.3543 412.325C87.4813 412.325 87.6083 412.304 87.7353 412.304C93.6409 412.283 99.5253 412.262 105.431 412.304C106.659 412.283 107.886 412.262 109.114 412.304C115.401 412.242 121.708 412.283 127.995 412.283C134.049 412.304 140.102 412.346 146.177 412.283C150.728 412.242 154.623 408.205 154.665 403.564C154.708 398.029 154.665 392.493 154.665 386.937C154.665 386.521 154.665 386.105 154.686 385.688C154.602 380.216 154.665 374.743 154.665 369.27C154.665 364.463 154.623 359.635 154.686 354.828C154.623 354.162 154.665 353.517 154.665 352.851C154.665 333.352 154.665 313.874 154.665 294.376C154.665 293.71 154.644 293.065 154.708 292.399C154.75 292.045 154.856 291.712 155.131 291.483C156.295 290.464 157.565 289.527 158.793 288.591C159.132 288.341 159.534 288.299 159.682 288.84C159.767 289.361 159.745 289.881 159.745 290.401C159.745 318.224 159.851 346.025 159.682 373.848C159.618 383.961 159.661 394.054 159.555 404.167C159.555 404.334 159.555 404.521 159.513 404.688C158.92 411.555 152.951 417.132 145.923 417.132C123.381 417.173 100.838 417.153 78.2948 417.132C76.0088 417.132 73.8498 416.508 71.8601 415.384C71.4367 415.155 70.9922 414.968 70.5689 414.739C70.336 414.427 69.8704 414.531 69.6164 414.239C66.9493 412.179 65.4041 409.453 64.6633 406.248C64.4304 405.187 64.3669 404.126 64.3669 403.044C64.3669 350.354 64.3669 297.685 64.3669 244.995C64.3669 241.062 65.7428 237.69 68.4945 234.84C68.7697 234.59 69.066 234.361 69.4259 234.236C71.3732 232.863 73.4052 231.656 75.7971 231.198C76.8343 231.011 77.8715 230.886 78.9298 230.886C94.2124 230.948 109.558 230.948 124.905 230.948Z" fill="black"/>
<path d="M69.9339 414.323C70.2091 414.385 70.4419 414.51 70.5054 414.801C68.0077 414.801 65.51 414.801 62.9912 414.843C62.2926 414.864 61.9116 414.676 62.0175 413.927C62.0386 413.719 62.0175 413.511 62.0175 413.303C62.0175 354.12 62.0175 294.938 62.0175 235.776C62.0175 234.07 61.827 234.278 63.5203 234.278C65.4465 234.278 67.3939 234.319 69.3201 234.34C69.2142 234.569 69.0661 234.756 68.8333 234.881C67.2881 235.193 65.7429 235.006 64.1977 235.048C62.97 235.089 62.8642 235.173 62.843 236.359C62.843 236.712 62.843 237.045 62.843 237.399C62.843 295.479 62.843 353.538 62.843 411.617C62.843 414.281 62.6737 413.948 65.3195 414.031C66.8647 414.031 68.4311 413.698 69.9339 414.323Z" fill="#5882AE"/>
<path d="M289.753 346.983C289.753 346.816 289.753 346.67 289.753 346.504C292.441 346.504 295.108 346.525 297.797 346.504C298.516 346.504 298.813 346.712 298.77 347.44C298.728 348.689 298.749 349.938 298.77 351.186C298.77 351.769 298.559 351.977 297.966 351.977C296.23 351.956 294.516 351.998 292.78 351.956C292.187 351.935 291.933 352.143 292.018 352.726C292.039 352.955 292.018 353.205 292.018 353.454C292.018 373.432 292.018 393.43 292.018 413.407C292.018 414.905 292.018 414.905 290.452 414.905C288.166 414.905 285.879 414.905 283.572 414.905C283.911 414.655 284.25 414.385 284.588 414.135C286.303 413.886 288.039 414.052 289.753 413.99C290.917 413.948 291.023 413.865 291.044 412.741C291.065 412.221 291.044 411.701 291.044 411.18C291.044 392.389 291.044 373.577 291.044 354.786C291.044 354.578 291.023 354.37 291.044 354.162C291.192 353.08 290.896 352.289 289.732 351.977C289.732 351.81 289.732 351.665 289.732 351.498C290.155 351.145 290.663 351.228 291.15 351.207C292.97 351.186 294.812 351.186 296.632 351.207C297.479 351.228 297.839 350.916 297.818 350.062C297.754 346.837 298.199 347.316 295.045 347.274C293.711 347.253 292.378 347.274 291.044 347.274C290.6 347.274 290.134 347.316 289.753 346.983Z" fill="#688EB6"/>
<path d="M159.449 404.729C159.449 403.876 159.449 403.002 159.449 402.149C159.449 364.546 159.449 326.943 159.449 289.34C159.449 289.069 159.449 288.778 159.428 288.508C159.449 288.216 159.576 288.279 159.724 288.424C159.915 288.82 159.872 289.236 159.894 289.631C159.894 289.881 159.894 290.131 159.894 290.38C159.957 294.792 159.957 299.204 159.894 303.595C159.894 303.803 159.894 303.99 159.894 304.198C159.957 309.213 159.915 314.207 159.915 319.223C159.83 320.471 159.894 321.72 159.894 322.968C159.872 323.364 159.894 323.759 159.894 324.154C159.872 327.422 159.999 330.689 159.915 333.977C159.915 334.185 159.936 334.372 159.915 334.58C159.999 336.89 159.957 339.221 159.957 341.531C159.957 350.978 159.978 360.426 159.957 369.873C159.894 370.185 159.957 370.518 159.936 370.83C159.957 371.85 159.936 372.891 159.957 373.91C159.957 374.306 159.894 374.743 160.338 375.013C160.783 375.2 161.248 375.117 161.693 375.117C172.17 375.117 182.627 375.117 193.105 375.138C193.676 375.138 194.311 374.972 194.819 375.45C194.861 375.783 194.946 376.137 194.946 376.47C194.967 385.813 194.967 395.157 194.967 404.521C194.967 404.584 194.946 404.646 194.925 404.729C194.65 404.272 194.777 403.793 194.756 403.314C194.756 394.553 194.734 385.793 194.777 377.011C194.777 375.97 194.48 375.783 193.486 375.783C182.521 375.825 171.557 375.825 160.592 375.783C159.809 375.783 159.618 375.929 159.618 376.72C159.64 385.584 159.64 394.449 159.618 403.314C159.618 403.793 159.745 404.292 159.449 404.729Z" fill="#5881AE"/>
<path d="M289.753 257.564C289.753 257.356 289.753 257.127 289.753 256.919C298.812 262.891 299.003 275.148 290.134 281.12C290.028 281.203 289.88 281.245 289.753 281.287C289.753 281.058 289.732 280.85 289.732 280.621C290.875 279.539 292.103 278.561 293.076 277.312C295.024 274.836 295.807 272.026 295.807 268.884C295.786 264.868 294.135 261.663 291.277 258.958C290.769 258.5 290.071 258.23 289.753 257.564Z" fill="#5C85B1"/>
<path d="M180.426 234.694C180.426 234.548 180.426 234.382 180.426 234.236C186.437 234.236 192.448 234.236 198.46 234.257C198.841 234.257 199.222 234.278 199.624 234.298C199.518 234.486 199.391 234.673 199.158 234.715C198.735 234.985 198.248 235.027 197.74 235.027C192.406 235.027 187.072 235.027 181.738 235.027C181.251 235.006 180.785 235.048 180.426 234.694Z" fill="#5881AE"/>
<path d="M292.589 303.928C293.902 302.804 295.214 301.68 296.526 300.556C296.632 300.473 296.759 300.39 296.907 300.494C297.056 300.598 297.034 300.744 296.907 300.848C295.574 301.992 294.24 303.137 292.907 304.281C292.822 304.156 292.716 304.032 292.589 303.928Z" fill="#648BB4"/>
<path d="M199.412 354.911C199.391 354.536 199.391 354.141 199.391 353.767C199.391 317.537 199.391 281.287 199.391 245.057C199.391 239.48 203.413 235.485 209.064 235.485C212.134 235.485 215.203 235.505 218.272 235.464C218.907 235.464 219.076 235.589 219.098 236.255C219.182 239.917 221.786 242.435 225.49 242.435C236.624 242.456 247.758 242.456 258.913 242.435C262.575 242.435 265.157 240 265.326 236.4C265.369 235.589 265.623 235.464 266.363 235.485C269.369 235.526 272.354 235.505 275.359 235.505C280.863 235.505 284.673 238.918 285.181 244.287C285.181 280.829 285.181 317.371 285.181 353.891C285.181 355.015 285.096 355.182 284.059 355.182C279.339 355.223 274.619 355.223 269.898 355.182C269.644 355.182 269.411 355.14 269.179 355.057C268.734 354.849 268.692 354.391 268.628 353.995C267.041 345.963 264.839 338.076 262.807 330.168C262.575 329.232 262.532 328.379 262.956 327.442C263.464 326.36 263.506 325.216 263.464 323.988C263.358 320.887 263.125 317.766 262.934 314.665C262.68 310.462 262.49 306.237 262.194 302.034C262.067 300.39 261.897 298.725 261.94 297.06C262.024 292.295 258.764 289.548 254.933 289.61C254.785 289.61 254.658 289.569 254.51 289.548C253.706 289.34 252.901 289.465 252.097 289.423C250.954 289.382 250.742 289.194 250.679 288.112C250.657 287.634 250.679 287.155 250.679 286.676C250.657 285.865 250.996 285.365 251.843 285.24C253.579 284.97 254.827 284.013 255.611 282.514C257.918 278.082 257.748 273.629 255.399 269.259C253.833 266.345 251.187 265.222 247.948 264.868C245.112 264.556 242.297 264.66 239.524 265.138C236.095 265.742 233.639 267.531 232.856 271.09C232.327 273.566 231.777 276.043 231.798 278.581C231.819 279.601 232.009 280.579 232.412 281.516C233.47 283.95 235.587 284.845 238.127 283.971C238.592 283.805 239.016 283.534 239.524 283.492C240.836 283.68 242.085 284.179 243.397 284.387C243.99 284.491 244.265 284.928 244.286 285.511C244.329 286.406 244.329 287.301 244.286 288.195C244.244 289.173 244.011 289.361 242.995 289.402C241.429 289.465 239.841 289.298 238.275 289.506C237.174 289.548 236.222 290.172 235.121 290.214C234.803 289.943 234.74 289.548 234.592 289.173C233.851 287.092 232.898 286.385 230.634 286.281C229.512 286.239 228.39 286.239 227.268 286.281C224.643 286.406 222.823 288.216 222.696 290.776C222.675 291.15 222.696 291.546 222.527 291.9C222.4 292.149 222.188 292.337 221.997 292.545C221.299 293.377 221.257 294.085 222.061 294.813C222.759 295.437 222.971 296.165 222.929 297.019C222.823 298.6 223.119 300.182 222.759 301.742C222.569 302.013 222.251 302.075 221.955 302.179C220.41 302.7 220.177 303.033 220.156 304.593C220.156 304.822 220.156 305.072 220.156 305.301C220.135 305.675 220.156 306.05 220.071 306.425C219.902 307.236 219.584 307.985 219.034 308.63C218.738 308.922 218.738 309.276 218.822 309.65C218.717 311.148 219.203 312.397 220.325 313.417C220.516 313.583 220.643 313.791 220.706 314.02C221.108 316.975 221.172 319.972 221.405 322.947C221.489 324.071 221.68 325.195 221.743 326.319C221.447 327.609 220.876 328.837 220.96 330.252C221.108 332.77 223.035 334.372 225.575 334.039C226.4 333.935 227.205 333.623 228.072 333.789C228.178 333.831 228.284 333.893 228.348 333.977C228.475 334.434 228.326 334.871 228.199 335.308C226.548 341.53 224.855 347.753 223.267 353.995C223.162 354.412 223.035 354.807 222.569 354.974C222.061 355.14 221.532 355.098 221.003 355.098C214.356 355.098 207.71 355.098 201.063 355.098C200.555 355.182 199.941 355.306 199.412 354.911Z" fill="#ECE9E9"/>
<path d="M269.052 354.869C274.153 354.89 279.275 354.89 284.377 354.911C284.906 354.911 285.16 354.745 285.117 354.204C285.096 353.891 285.117 353.579 285.117 353.267C285.117 316.996 285.096 280.725 285.096 244.454C285.096 244.391 285.138 244.329 285.138 244.266C285.16 244.641 285.223 245.015 285.223 245.39C285.223 281.557 285.223 317.745 285.223 353.912C285.223 370.165 285.223 386.417 285.223 402.669C285.223 403.189 285.308 403.71 285.117 404.209C284.567 403.772 284.715 403.127 284.715 402.565C284.694 397.862 284.715 393.159 284.715 388.435C284.715 388.123 284.694 387.811 284.715 387.499C284.779 386.646 284.377 386.354 283.53 386.354C280.757 386.375 277.963 386.375 275.19 386.354C274.597 386.354 273.983 386.375 273.391 386.292C272.65 386.167 271.909 386.146 271.168 386.146C254.531 386.146 237.894 386.146 221.257 386.146C220.579 386.146 219.923 386.146 219.246 386.271C218.653 386.375 218.06 386.354 217.446 386.354C211.985 386.354 206.524 386.354 201.063 386.354C200.492 386.354 199.857 386.479 199.391 385.959C199.391 375.804 199.37 365.649 199.37 355.515C199.37 355.306 199.391 355.098 199.391 354.89C206.863 354.89 214.335 354.89 221.828 354.89C222.188 354.89 222.527 354.869 222.886 354.849C223.289 354.474 223.797 354.516 224.283 354.516C238.74 354.516 253.176 354.516 267.633 354.516C268.141 354.516 268.628 354.536 269.052 354.869Z" fill="#E98F27"/>
<path d="M180.426 234.694C186.67 234.694 192.914 234.694 199.137 234.694C197.909 236.026 196.809 237.441 196.004 239.064C195.581 239.376 195.073 239.334 194.586 239.334C192.11 239.334 189.654 239.355 187.178 239.334C186.416 239.334 186.119 239.563 186.119 240.354C186.141 248.969 186.141 257.605 186.119 266.22C186.119 266.99 186.416 267.261 187.178 267.261C189.252 267.24 191.327 267.24 193.422 267.261C193.867 267.261 194.353 267.199 194.713 267.552C194.946 269.03 194.798 270.507 194.798 272.006C194.798 272.713 194.142 272.609 193.676 272.63C191.623 272.651 189.591 272.63 187.538 272.651C186.141 272.651 186.141 272.651 186.141 274.024C186.162 291.9 186.141 309.775 186.141 327.651C186.141 341.364 186.141 355.098 186.119 368.812C186.119 370.435 185.971 370.581 184.299 370.581C183.664 370.581 183.029 370.602 182.394 370.581C181.357 370.539 181.124 370.31 181.082 369.249C181.061 368.833 181.082 368.417 181.082 368C181.082 336.848 181.082 305.696 181.082 274.565C181.082 274.024 181.188 273.462 180.955 272.921C180.553 272.505 180.023 272.651 179.558 272.651C173.419 272.63 167.302 272.651 161.164 272.651C159.407 272.651 159.301 272.567 159.301 270.84C159.301 270.154 159.301 269.446 159.301 268.759C159.322 267.511 159.513 267.303 160.761 267.282C162.624 267.261 164.487 267.282 166.371 267.282C170.816 267.282 175.24 267.282 179.685 267.282C181.018 267.282 181.082 267.219 181.082 265.95C181.082 257.501 181.082 249.053 181.103 240.604C181.103 239.959 180.976 239.459 180.404 239.085C180.426 237.586 180.426 236.151 180.426 234.694Z" fill="#FEFEFE"/>
<path d="M199.412 385.98C206.016 386.001 212.642 386.001 219.246 386.021C219.796 386.729 219.606 387.541 219.5 388.31C219.309 389.642 219.415 390.995 219.373 392.327C219.352 393.118 219.711 393.326 220.473 393.263C221.553 393.159 222.632 393.242 223.712 393.076C224.199 392.993 224.707 392.972 225.088 393.367C225.384 393.887 225.321 394.449 225.321 394.99C225.321 399.485 225.321 404.001 225.321 408.496C225.321 409.432 225.321 410.369 225.469 411.284C225.553 411.763 225.553 412.262 225.151 412.658C223.564 412.679 221.997 412.72 220.41 412.72C216.6 412.72 212.811 412.741 209.001 412.72C203.413 412.699 199.37 408.704 199.37 403.21C199.391 397.467 199.391 391.723 199.412 385.98Z" fill="#ECE9E9"/>
<path d="M273.412 386.021C277.074 386.001 280.736 386.001 284.377 385.959C285.139 385.959 285.117 386.375 285.117 386.895C285.096 392.576 285.096 398.237 285.096 403.918C285.096 404.022 285.117 404.126 285.139 404.23C284.673 409.058 280.947 412.554 276.037 412.72C274.873 412.762 273.73 412.699 272.565 412.679C271.274 411.305 270.406 409.62 269.39 408.059C265.961 402.711 262.469 397.404 259.061 392.035C258.786 391.619 258.214 391.203 258.807 390.6C259.865 390.163 261.008 390.246 262.13 390.121C265.347 389.767 268.565 389.517 271.782 389.184C273.391 389.018 273.391 388.976 273.2 387.395C273.137 386.916 273.031 386.438 273.412 386.021Z" fill="#ECE9E9"/>
<path d="M194.735 272.734C194.777 273.067 194.819 273.421 194.819 273.754C194.819 290.297 194.819 306.841 194.819 323.364C194.819 323.676 194.777 323.988 194.735 324.279C193.951 324.779 193.083 324.529 192.258 324.55C191.517 324.571 191.136 324.8 191.221 325.59C191.242 325.861 191.242 326.152 191.221 326.423C191.157 327.38 190.903 327.65 189.951 327.692C189.041 327.734 188.13 327.692 187.199 327.692C186.352 327.692 185.971 327.317 186.035 326.464C186.056 326.215 186.035 325.986 186.035 325.736C186.035 308.651 186.035 291.546 186.035 274.461C186.035 274.086 186.014 273.691 186.056 273.317C186.098 272.838 186.352 272.526 186.86 272.505C189.4 272.484 191.919 272.401 194.459 272.547C194.565 272.588 194.65 272.692 194.735 272.734Z" fill="#FEFEFE"/>
<path d="M258.616 390.808C260.585 393.908 262.553 397.009 264.543 400.11C267.041 404.001 269.56 407.851 272.057 411.742C272.248 412.033 272.375 412.366 272.523 412.679C268.523 412.699 264.522 412.72 260.543 412.741C258.616 412.741 256.69 412.699 254.764 412.679C254.362 412.45 254.066 412.117 253.833 411.721C251.737 408.288 249.557 404.896 247.44 401.462C246.001 399.173 245.027 396.697 244.286 394.137C244.075 393.388 243.736 392.743 243.44 392.035C243.63 391.869 243.884 391.827 244.117 391.807C248.52 391.474 252.923 390.995 257.325 390.558C257.77 390.496 258.257 390.475 258.616 390.808Z" fill="#FD9993"/>
<path d="M225.151 412.658C224.834 406.228 225.067 399.777 225.003 393.346C225.808 392.785 226.739 392.847 227.628 392.805C230.866 392.639 234.084 392.431 237.301 392.223C238.296 392.16 239.333 391.931 240.286 392.493C240.582 392.951 240.54 393.492 240.54 394.012C240.54 399.714 240.54 405.395 240.54 411.097C240.54 411.638 240.603 412.221 240.201 412.679C235.184 412.741 230.168 412.762 225.151 412.658Z" fill="#FD9993"/>
<path d="M195.772 239.48C195.475 240.812 194.925 242.061 194.904 243.455C194.777 243.829 194.84 244.204 194.84 244.579C194.84 251.716 194.84 258.833 194.84 265.971C194.84 267.323 194.84 267.323 193.422 267.323C191.369 267.323 189.337 267.323 187.284 267.323C186.141 267.323 186.056 267.24 186.056 266.158C186.056 257.605 186.056 249.053 186.056 240.5C186.056 239.459 186.246 239.251 187.262 239.251C189.802 239.23 192.343 239.251 194.861 239.251C195.179 239.251 195.518 239.21 195.772 239.48Z" fill="#FEFEFE"/>
<path d="M194.734 272.734C192.237 272.755 189.739 272.775 187.241 272.755C186.5 272.755 186.289 272.984 186.289 273.691C186.31 291.296 186.31 308.922 186.289 326.527C186.289 327.255 186.522 327.484 187.241 327.442C188.215 327.38 189.21 327.401 190.205 327.442C190.819 327.463 190.967 327.234 190.988 326.672C191.073 324.279 191.094 324.279 193.591 324.279C193.972 324.279 194.375 324.279 194.756 324.3C194.756 324.425 194.756 324.571 194.734 324.695C194.163 325.153 193.464 324.987 192.808 324.987C191.962 324.987 191.856 325.465 191.856 326.131C191.835 326.839 192.152 327.089 192.851 327.109C194.269 327.13 194.353 327.089 194.417 325.757C194.438 325.382 194.438 324.987 194.734 324.695C195.221 326.006 194.904 327.338 194.904 328.649C194.946 342.321 194.946 355.993 194.904 369.665C194.904 371.58 195.137 373.515 194.777 375.45C183.114 375.45 171.451 375.429 159.809 375.429C159.872 374.951 160.275 374.972 160.613 374.93C161.058 374.867 161.523 374.888 161.989 374.888C172.17 374.888 182.352 374.888 192.533 374.888C194.396 374.888 194.396 374.888 194.396 373.036C194.396 371.184 194.396 371.184 192.533 371.184C182.182 371.184 171.811 371.184 161.46 371.184C160.846 371.184 160.19 371.309 159.64 370.872C159.64 370.581 159.64 370.31 159.64 370.019C160.148 369.811 160.677 369.936 161.206 369.915C163.132 369.852 164.508 368.625 164.741 366.731C164.783 366.356 164.783 365.961 164.783 365.586C164.783 355.952 164.783 346.337 164.783 336.703C164.783 336.432 164.783 336.141 164.762 335.87C164.762 335.267 164.444 335.017 163.831 334.996C162.878 334.996 161.926 335.017 160.973 334.975C160.486 334.955 159.978 334.975 159.64 334.518C159.64 334.351 159.64 334.164 159.618 333.997C160.296 333.727 160.486 333.269 160.402 332.541C160.063 329.773 159.809 327.005 159.703 324.217C159.682 323.842 159.767 323.447 159.64 323.072C159.64 321.782 159.64 320.471 159.661 319.181C160.253 319.514 160.19 320.138 160.253 320.658C160.592 323.572 160.867 326.506 161.185 329.44C161.312 330.605 161.418 331.792 161.608 332.957C161.672 333.311 161.756 333.644 162.222 333.664C162.645 333.685 162.878 333.456 163.026 333.103C163.174 332.749 163.259 332.374 163.344 332C165.355 323.717 167.387 315.435 169.461 307.153C169.546 306.778 169.588 306.404 169.715 306.029C170.011 305.155 169.842 304.573 168.974 304.032C167.725 303.262 167.26 301.992 167.535 300.598C167.852 298.996 168.255 297.414 168.805 295.874C169.313 294.48 170.371 293.585 171.811 293.19C172.573 292.982 173.144 292.711 173.44 291.92C173.694 291.192 174.287 290.817 175.113 291.046C175.832 291.254 176.213 291.899 176.002 292.794C175.811 293.606 176.15 293.939 176.869 294.147C178.055 294.522 179.05 295.125 179.515 296.353C179.664 296.748 179.833 297.185 179.515 297.539C179.177 297.893 178.796 297.56 178.457 297.414C177.674 297.019 177.25 297.393 176.975 298.059C176.615 298.975 176.446 299.932 176.234 300.868C175.769 302.991 174.52 304.344 172.319 304.677C171.324 304.822 170.985 305.343 170.773 306.217C168.636 314.977 166.498 323.738 164.317 332.478C164.148 333.165 164.085 333.706 165.037 333.789C165.545 333.831 165.715 334.226 165.778 334.663C165.842 335.121 165.82 335.558 165.82 336.016C165.82 345.651 165.82 355.286 165.82 364.9C165.82 366.627 165.841 368.312 164.487 369.644C164.868 369.998 165.249 369.873 165.566 369.873C170.011 369.873 174.456 369.873 178.88 369.873C180.595 369.873 180.595 369.873 180.595 368.208C180.595 353.371 180.595 338.555 180.595 323.717C180.595 307.611 180.595 291.504 180.595 275.397C180.595 275.127 180.595 274.836 180.595 274.565C180.595 273.004 180.574 272.984 179.029 272.984C177.187 272.984 175.367 272.984 173.525 272.984C169.44 272.984 165.355 272.984 161.269 272.984C160.74 272.984 160.126 273.15 159.724 272.567C159.872 272.276 160.148 272.359 160.38 272.359C167.175 272.359 173.991 272.359 180.785 272.359C180.955 272.359 181.145 272.359 181.293 272.463C181.315 272.921 181.357 273.358 181.357 273.816C181.357 305.509 181.357 337.223 181.357 368.916C181.357 370.248 181.357 370.248 182.712 370.248C183.516 370.248 184.341 370.227 185.146 370.248C185.59 370.248 185.802 370.102 185.76 369.644C185.738 369.332 185.76 369.02 185.76 368.708C185.76 337.015 185.76 305.301 185.76 273.608C185.76 272.255 185.76 272.255 187.114 272.255C189.379 272.255 191.623 272.234 193.888 272.276C194.48 272.276 194.692 272.11 194.671 271.527C194.629 270.174 194.65 268.822 194.65 267.469C195.073 269.259 195.031 271.007 194.734 272.734Z" fill="#5882AE"/>
<path d="M240.201 412.658C240.201 405.915 240.201 399.173 240.201 392.452C241.238 391.578 242.339 391.931 243.461 392.223C243.863 392.264 244.159 392.306 244.265 392.826C245.069 396.676 246.847 400.11 248.964 403.398C250.933 406.457 252.859 409.557 254.785 412.658C249.917 412.762 245.048 412.762 240.201 412.658Z" fill="#ECE9E9"/>
<path d="M289.753 351.977C289.817 351.977 289.901 351.977 289.965 351.977C291.764 351.956 291.446 351.873 291.446 353.371C291.446 373.244 291.446 393.117 291.446 412.991C291.446 414.322 291.446 414.322 290.092 414.322C288.568 414.322 287.065 414.322 285.541 414.322C285.202 414.322 284.821 414.468 284.567 414.135C288.06 411.18 289.732 407.455 289.711 402.898C289.668 386.313 289.69 369.707 289.69 353.121C289.711 352.726 289.732 352.351 289.753 351.977Z" fill="#FEFEFE"/>
<path d="M289.732 278.748C289.732 272.318 289.732 265.887 289.753 259.437C291.087 259.769 291.764 260.872 292.484 261.85C293.711 263.515 294.452 265.409 294.77 267.469C294.981 268.884 294.727 269.175 293.267 269.175C292.949 269.175 292.632 269.196 292.441 269.175C292.801 269.196 293.267 269.196 293.754 269.175C294.621 269.113 294.897 269.592 294.812 270.341C294.452 273.545 293.076 276.292 290.642 278.477C290.409 278.727 290.134 278.998 289.732 278.748Z" fill="#FEFEFE"/>
<path d="M289.753 346.983C292.293 346.983 294.812 347.003 297.352 346.962C297.987 346.962 298.22 347.128 298.199 347.773C298.156 348.731 298.156 349.709 298.199 350.666C298.22 351.311 298.008 351.498 297.352 351.478C294.812 351.457 292.293 351.478 289.753 351.478C289.753 350 289.753 348.481 289.753 346.983Z" fill="#FEFEFE"/>
<path d="M289.753 257.564C293.373 259.769 295.426 263.057 295.997 267.115C296.717 272.255 294.981 276.584 290.917 279.976C290.579 280.267 290.261 280.621 289.753 280.642C289.753 280.288 289.753 279.934 289.753 279.58C289.986 278.977 290.515 278.581 290.981 278.165C296.272 273.254 296.167 264.514 290.494 259.645C290.198 259.395 289.88 259.166 289.774 258.771C289.753 258.375 289.753 257.98 289.753 257.564Z" fill="#FDFDFE"/>
<path d="M195.772 239.48C192.999 239.501 190.205 239.522 187.432 239.501C186.585 239.48 186.289 239.667 186.289 240.583C186.331 249.094 186.331 257.605 186.289 266.116C186.289 266.949 186.522 267.178 187.347 267.157C189.485 267.094 191.644 267.094 193.782 267.157C194.607 267.178 194.756 266.907 194.756 266.158C194.734 259.02 194.734 251.903 194.734 244.766C194.734 244.329 194.629 243.871 194.904 243.455C194.904 251.196 194.925 258.916 194.925 266.657C194.925 266.97 194.883 267.282 194.713 267.552C192.004 267.573 189.295 267.573 186.585 267.615C185.865 267.635 185.823 267.261 185.823 266.72C185.844 263.994 185.823 261.247 185.823 258.521C185.823 252.403 185.844 246.285 185.802 240.146C185.802 239.293 186.014 239.043 186.903 239.043C189.93 239.105 192.956 239.064 195.983 239.064C196.005 239.251 195.941 239.397 195.772 239.48Z" fill="#5982AF"/>
<path d="M289.753 258.791C296.526 263.827 296.929 273.233 290.621 278.831C290.325 279.081 290.049 279.331 289.753 279.58C289.753 279.31 289.753 279.039 289.753 278.769C291.404 277.791 292.441 276.272 293.309 274.648C294.008 273.317 294.367 271.881 294.579 270.403C294.685 269.675 294.537 269.321 293.669 269.384C292.886 269.446 292.039 269.529 291.277 269.175C292.081 268.801 292.907 268.947 293.711 268.947C294.367 268.947 294.685 268.822 294.6 268.093C294.177 264.577 292.695 261.622 289.774 259.457C289.753 259.228 289.753 259 289.753 258.791Z" fill="#5C85B0"/>
<path d="M69.2566 243.642C69.807 239.105 73.4477 235.672 78.0621 235.485C81.4488 235.36 84.8144 235.464 88.2011 235.422C88.7726 235.422 88.9419 235.609 88.8996 236.151C88.7302 239.376 91.5454 242.497 95.7365 242.435C105.452 242.31 115.189 242.393 124.905 242.393C124.926 249.011 124.926 255.608 124.947 262.225C124.947 265.45 124.947 268.655 124.947 271.881C124.947 272.401 124.926 272.942 125.561 273.192C126.196 273.421 126.534 273.004 126.894 272.63C129.815 269.592 132.736 266.553 135.657 263.494C135.954 263.182 136.229 262.932 136.716 262.932C142.812 262.953 148.887 262.974 154.983 262.974C155.237 263.245 155.3 263.598 155.3 263.952C155.3 268.697 155.385 273.441 155.258 278.186C155.237 278.436 155.173 278.685 154.983 278.852C153.649 280.038 152.147 281.016 150.665 281.994C150.199 282.306 149.924 282.077 150.009 281.536C150.093 280.912 150.284 280.329 150.432 279.726C150.728 278.519 150.347 277.707 149.416 277.478C148.633 277.312 148.061 277.791 147.701 278.935C147.109 280.85 146.558 282.785 145.966 284.699C145.796 285.261 145.585 285.802 145.246 286.302C142.621 290.11 140.103 293.98 137.52 297.809C137.393 298.018 137.245 298.205 137.033 298.35C136.906 298.392 136.737 298.434 136.631 298.35C135.89 297.893 135.488 298.267 135.107 298.85C134.155 300.223 133.117 301.534 132.144 302.908C131.382 303.99 131.107 304.011 130.048 303.199C126.005 300.161 122.322 296.748 118.809 293.169C118.512 292.878 118.258 292.545 118.004 292.191C116.268 289.652 113.792 288.487 110.765 288.383C109.22 288.341 107.675 288.341 106.108 288.403C105.41 288.383 104.69 288.528 104.034 288.216C103.42 286.864 103.716 285.449 103.822 284.054C103.865 283.534 104.436 283.451 104.881 283.347C105.875 283.139 106.87 282.889 107.823 282.556C110.532 281.599 111.972 279.705 112.141 276.896C112.162 276.584 112.162 276.271 112.268 275.98C112.416 275.626 112.734 275.481 113.051 275.314C114.342 274.628 115.041 273.587 114.914 272.13C114.787 270.653 113.898 269.779 112.522 269.279C112.353 269.217 112.183 269.155 112.035 269.071C111.315 268.551 111.379 267.74 111.273 267.011C111.061 265.513 110.892 263.994 109.643 262.849C108.818 262.079 107.865 261.663 106.722 261.621C102.954 261.497 99.2079 261.788 95.4402 261.871C93.5986 261.913 92.2651 263.099 91.9476 264.909C91.6301 266.699 91.7359 268.489 91.8841 270.278C91.6724 272.713 91.5455 275.169 91.2703 277.603C91.0374 279.518 90.3601 281.287 89.3441 282.951C89.1747 283.222 89.0054 283.472 88.8784 283.763C88.2434 284.991 88.7937 285.865 90.2119 285.698C92.0323 285.49 93.8738 285.615 95.6942 285.573C96.1387 285.573 96.6255 285.532 97.0277 285.823C97.4299 286.51 97.3029 287.238 97.1759 287.946C97.1335 288.05 97.07 288.154 96.9854 288.237C96.2869 288.57 95.546 288.362 94.8263 288.487C94.403 288.466 93.9796 288.736 93.5563 288.591C89.9367 288.383 86.2749 288.008 82.9305 289.902C79.9671 291.567 78.0833 293.856 78.2738 297.435C78.4431 300.681 78.6547 303.927 78.8453 307.174C79.0146 309.9 79.1628 312.626 79.3321 315.352C79.5226 318.536 79.6708 321.699 79.9248 324.883C80.0306 326.131 79.9671 327.38 80.1364 328.608C80.4751 331.042 81.8086 332.645 84.2428 333.144C86.4865 333.602 86.3384 333.581 86.0209 335.745C85.1319 341.718 84.2852 347.69 83.3538 353.642C83.2692 354.183 83.248 354.765 82.6765 355.077C82.2743 355.244 81.851 355.223 81.4276 355.244C77.8716 355.244 74.3155 355.265 70.7595 355.244C69.2778 355.244 69.1931 355.161 69.1931 353.746C69.1931 317.454 69.1931 281.141 69.1931 244.849C69.1931 244.412 69.1296 244.017 69.2566 243.642Z" fill="#ECE9E9"/>
<path d="M159.64 263.016C160.021 262.995 160.402 262.933 160.783 262.933C165.757 262.933 170.71 262.87 175.684 262.953C178.436 262.995 180.468 261.143 180.404 258.334C180.277 252.486 180.362 246.639 180.362 240.77C180.362 240.354 180.383 239.938 180.404 239.522C180.828 239.21 181.039 239.418 181.145 239.834C181.209 240.104 181.166 240.396 181.166 240.666C181.166 249.073 181.166 257.48 181.166 265.887C181.166 267.323 181.166 267.323 179.685 267.323C173.419 267.323 167.154 267.323 160.888 267.323C159.364 267.323 159.259 267.261 159.301 265.721C159.343 264.826 159.026 263.848 159.64 263.016Z" fill="#FEFEFE"/>
<path d="M154.983 278.498C154.983 273.317 154.962 268.135 154.962 262.953C156.465 262.912 157.967 262.849 159.47 262.995C159.534 267.24 159.428 271.485 159.661 275.71C159.618 276.084 159.449 276.376 159.068 276.459C157.883 276.729 156.951 277.458 156.02 278.144C155.724 278.373 155.427 278.644 154.983 278.498Z" fill="black"/>
<path d="M159.491 276.022C159.491 271.673 159.491 267.323 159.47 262.995C159.513 262.974 159.576 262.995 159.618 262.995C159.618 264.139 159.64 265.284 159.618 266.429C159.597 266.97 159.767 267.136 160.317 267.136C166.963 267.115 173.61 267.115 180.277 267.136C180.87 267.136 180.976 266.907 180.976 266.408C180.955 257.688 180.976 248.969 180.976 240.25C180.976 239.855 181.039 239.438 180.426 239.522C180.426 239.355 180.426 239.21 180.426 239.043C181.166 238.939 181.463 239.168 181.463 239.979C181.42 248.844 181.42 257.709 181.463 266.595C181.463 267.49 181.103 267.594 180.341 267.594C173.779 267.573 167.217 267.594 160.677 267.573C159.872 267.573 159.555 267.74 159.618 268.593C159.703 269.529 159.703 270.466 159.618 271.402C159.555 272.214 159.851 272.359 160.613 272.359C167.175 272.318 173.737 272.338 180.277 272.359C180.637 272.359 181.061 272.172 181.357 272.547C174.583 272.547 167.81 272.547 161.037 272.547C160.634 272.547 160.19 272.401 159.83 272.713C159.957 273.774 160.021 274.815 159.788 275.876C159.724 275.98 159.618 276.022 159.491 276.022Z" fill="#5A83AF"/>
<path d="M152.252 232.655C146.855 232.655 141.457 232.655 136.081 232.655C135.827 232.655 135.594 232.655 135.34 232.655C135.086 232.655 134.811 232.613 134.789 232.322C134.768 232.009 135.043 231.947 135.297 231.947C135.509 231.947 135.721 231.947 135.933 231.947C146.855 231.947 157.798 231.947 168.72 231.947C169.143 231.947 169.863 231.718 169.884 232.301C169.905 232.946 169.165 232.655 168.784 232.675C163.259 232.655 157.756 232.655 152.252 232.655Z" fill="#FEFEFE"/>
<path d="M148.95 246.16C144.611 246.16 140.293 246.16 135.954 246.16C135.678 246.16 135.382 246.16 135.107 246.139C134.916 246.118 134.768 245.993 134.768 245.806C134.768 245.619 134.895 245.473 135.086 245.452C135.361 245.432 135.657 245.432 135.932 245.432C144.632 245.432 153.311 245.432 162.01 245.452C162.412 245.452 163.132 245.203 163.153 245.806C163.153 246.451 162.434 246.16 162.053 246.16C157.671 246.181 153.311 246.16 148.95 246.16Z" fill="#FEFEFE"/>
<path d="M144.124 239.459C141.309 239.459 138.494 239.459 135.657 239.459C135.298 239.459 134.747 239.626 134.768 239.043C134.79 238.481 135.34 238.669 135.7 238.669C141.33 238.669 146.982 238.669 152.612 238.669C152.972 238.669 153.544 238.502 153.544 239.043C153.565 239.688 152.93 239.48 152.57 239.48C149.755 239.459 146.939 239.459 144.124 239.459Z" fill="#FDF7F7"/>
<path d="M139.531 252.965C138.197 252.965 136.864 252.965 135.53 252.965C135.213 252.965 134.811 253.027 134.79 252.611C134.747 252.091 135.213 252.153 135.552 252.153C138.303 252.153 141.034 252.153 143.786 252.153C144.103 252.153 144.505 252.112 144.548 252.528C144.59 253.048 144.124 252.965 143.786 252.965C142.346 252.965 140.928 252.965 139.531 252.965Z" fill="#FDF6F6"/>
<path d="M69.2566 243.642C69.2566 244.162 69.2777 244.682 69.2777 245.203C69.2777 281.328 69.2777 317.433 69.2777 353.558C69.2777 355.077 69.0872 354.911 70.6112 354.911C74.6965 354.911 78.7817 354.89 82.8669 354.869C83.3326 354.432 83.9253 354.536 84.4756 354.536C88.9207 354.536 93.3446 354.516 97.7896 354.536C98.6151 354.536 99.3137 354.391 99.864 353.766C100.414 354.474 101.155 354.578 102.002 354.536C102.912 354.495 103.822 354.516 104.732 354.536C106.891 354.495 109.05 354.495 111.231 354.536C117.644 354.495 124.037 354.474 130.45 354.536C136.97 354.474 143.489 354.516 149.987 354.495C151.194 354.495 152.379 354.495 153.586 354.495C154.073 354.495 154.581 354.474 154.983 354.849C155.004 363.526 155.004 372.204 155.004 380.881C155.004 382.546 154.962 384.19 154.94 385.855C154.623 386.125 154.242 386.146 153.84 386.146C148.167 386.146 142.473 386.188 136.8 386.125C131.805 386.188 126.831 386.146 121.835 386.146C121.031 386.146 120.227 386.146 119.422 386.209C115.125 386.063 110.807 386.188 106.51 386.146C106.024 386.146 105.537 386.146 105.05 386.125C100.097 386.188 95.1226 386.146 90.1695 386.146C89.9155 386.146 89.6827 386.146 89.4287 386.146C87.9047 386.146 87.8623 386.188 87.8623 387.749C87.8623 395.469 87.8623 403.189 87.8623 410.889C87.8623 411.492 87.9893 412.158 87.4813 412.658H87.4178L87.3967 412.616C86.8463 412.158 86.9945 411.534 86.9945 410.972C86.9733 403.418 86.9945 395.885 86.9945 388.331C86.9945 388.019 86.9945 387.707 86.9945 387.395C86.9521 386.25 86.8675 386.146 85.7033 386.146C80.8137 386.125 75.9241 386.125 71.0134 386.146C69.8069 386.146 69.7011 386.25 69.7011 387.457C69.6799 392.576 69.7011 397.696 69.6799 402.815C69.6799 403.377 69.8069 404.001 69.3201 404.48C69.0237 404.063 69.1507 403.606 69.1507 403.169C69.1507 396.801 69.1931 390.433 69.1931 384.044C69.1719 337.764 69.1719 291.504 69.1507 245.223C69.0661 244.724 68.9391 244.162 69.2566 243.642Z" fill="#459257"/>
<path d="M154.941 354.869C146.77 354.869 138.578 354.869 130.408 354.869C130.006 354.536 129.9 354.058 129.794 353.579C128.863 349.688 127.889 345.796 126.937 341.926C126.831 341.468 126.683 340.989 126.979 340.532C127.423 340.136 127.953 340.199 128.482 340.199C130.662 340.178 132.842 340.199 135.022 340.199C137.033 340.178 137.689 339.533 137.689 337.452C137.711 330.605 137.689 323.759 137.689 316.913C137.689 316.33 137.668 315.747 137.753 315.165C138.367 313.666 139.531 312.522 140.505 311.252C141.944 309.4 143.405 307.59 144.844 305.738C145.183 305.301 145.415 304.864 145.331 304.323C145.437 303.865 145.733 303.532 145.987 303.158C148.231 299.953 150.517 296.79 152.782 293.585C153.29 292.857 153.776 291.983 154.919 292.045C154.941 292.295 154.962 292.524 154.962 292.774C154.962 313.271 154.962 333.768 154.962 354.266C154.962 354.453 154.962 354.661 154.941 354.869Z" fill="#ECE9E9"/>
<path d="M136.779 385.917C142.833 385.897 148.887 385.897 154.941 385.876C154.941 392.015 155.068 398.133 154.919 404.271C154.814 408.6 150.813 412.533 146.453 412.637C140.357 412.762 134.26 412.658 128.164 412.658C127.889 412.117 128.207 411.638 128.355 411.159C130.831 403.897 133.16 396.593 135.679 389.351C135.933 388.602 136.144 387.832 136.314 387.041C136.377 386.625 136.42 386.209 136.779 385.917Z" fill="#ECE9E9"/>
<path d="M136.779 385.917C136.314 389.122 134.98 392.077 133.985 395.136C132.08 400.984 130.09 406.81 128.143 412.637C121.772 412.637 115.401 412.637 109.029 412.637C108.754 412.179 109.029 411.763 109.199 411.347C112.395 403.252 115.507 395.115 118.682 386.999C118.83 386.604 118.957 386.209 119.38 386.001C119.507 385.959 119.634 385.876 119.761 385.876C125.434 385.897 131.107 385.897 136.779 385.917Z" fill="#8F3600"/>
<path d="M87.439 412.679C87.439 404.167 87.4813 395.635 87.439 387.124C87.439 386.021 87.7776 385.813 88.7937 385.834C94.2124 385.897 99.6311 385.897 105.071 385.897C105.41 386.271 105.367 386.729 105.389 387.166C105.685 392.743 105.579 398.32 105.621 403.876C105.643 406.29 105.918 408.704 105.812 411.139C105.791 411.659 105.854 412.179 105.452 412.616C99.4406 412.658 93.4292 412.679 87.439 412.679Z" fill="#8F3600"/>
<path d="M69.2566 404.521C69.2566 398.715 69.2778 392.889 69.2566 387.083C69.2566 386.188 69.4259 385.834 70.4419 385.855C75.6913 385.917 80.9407 385.897 86.169 385.855C87.0792 385.855 87.3544 386.042 87.3544 387C87.312 395.552 87.3332 404.084 87.3332 412.637C84.0735 412.637 80.7926 412.783 77.5329 412.616C73.3206 412.408 69.7434 408.787 69.2566 404.521Z" fill="#ECE9E9"/>
<path d="M69.934 414.322C67.7115 414.322 65.4889 414.322 63.2664 414.343C62.6949 414.343 62.3986 414.218 62.4833 413.594C62.5044 413.365 62.4833 413.116 62.4833 412.866C62.4833 353.954 62.4833 295.042 62.4833 236.13C62.4833 234.465 62.2716 234.673 63.9437 234.715C65.5736 234.756 67.2246 234.507 68.8545 234.86C65.9335 237.774 64.6211 241.249 64.6211 245.348C64.6423 297.414 64.6634 349.459 64.5788 401.525C64.5788 406.623 65.9334 410.931 69.934 414.322Z" fill="#FDFDFD"/>
<path d="M154.94 292.045C153.946 292.441 153.353 293.231 152.781 294.064C150.347 297.497 147.892 300.931 145.436 304.385C144.971 304.51 144.632 304.198 144.293 303.969C142.029 302.346 139.785 300.702 137.52 299.079C137.245 298.892 136.885 298.725 136.927 298.288C139.108 295 141.203 291.629 143.531 288.424C145.119 286.239 146.05 283.846 146.728 281.287C146.982 280.35 147.257 279.435 147.574 278.519C147.934 277.437 148.739 276.937 149.606 277.208C150.58 277.499 151.025 278.352 150.771 279.414C150.58 280.246 150.368 281.078 150.093 282.181C151.85 280.87 153.438 279.705 155.004 278.54C156.464 277.645 157.713 276.396 159.513 276.063C159.576 276.063 159.618 276.063 159.661 276.043C160.719 275.585 161.629 276.043 162.518 276.542C162.857 277.083 162.349 277.27 162.053 277.499C160.783 278.415 159.513 279.33 158.221 280.225C157.904 280.433 157.565 280.621 157.396 281.016C158.454 280.496 159.386 279.747 160.359 279.081C161.312 278.436 162.137 277.645 163.238 277.208C164.127 277.458 164.762 278.019 165.206 278.789C165.164 279.247 164.762 279.372 164.466 279.601C162.942 280.725 161.375 281.765 159.957 283.014C160.529 282.826 160.994 282.494 161.46 282.14C162.561 281.328 163.682 280.537 164.804 279.767C165.122 279.559 165.418 279.31 165.841 279.289C167.704 279.622 168.127 282.306 166.688 283.326C164.466 284.866 162.328 286.489 160.253 288.195C160.084 288.32 159.894 288.424 159.682 288.424C159.618 288.466 159.555 288.508 159.513 288.549C157.861 289.59 156.359 290.755 154.94 292.045Z" fill="#FD9993"/>
<path d="M105.452 412.658C105.325 403.751 105.198 394.824 105.071 385.917C109.601 385.917 114.152 385.897 118.682 385.897C118.914 385.897 119.168 385.98 119.401 386.021C115.951 394.907 112.501 403.772 109.051 412.658C107.844 412.658 106.638 412.658 105.452 412.658Z" fill="#ECE9E9"/>
<path d="M159.618 288.383C161.523 286.593 163.598 285.032 165.757 283.576C167.789 282.202 167.852 280.579 165.778 279.372C165.524 279.206 165.312 278.998 165.101 278.769C164.487 278.269 163.958 277.666 163.259 277.291C163.026 277.125 162.794 276.958 162.603 276.729C161.672 276.292 160.677 276.084 159.661 276.001C159.745 274.898 159.449 273.774 159.83 272.692C160.253 272.713 160.677 272.775 161.079 272.775C167.323 272.775 173.567 272.796 179.791 272.755C180.658 272.755 180.997 272.859 180.997 273.858C180.955 305.634 180.976 337.41 180.997 369.186C180.997 370.102 180.764 370.331 179.833 370.331C174.478 370.289 169.122 370.31 163.767 370.31C163.746 370.206 163.683 370.102 163.704 370.081C165.291 368.833 165.588 367.168 165.566 365.253C165.503 355.244 165.524 345.235 165.545 335.204C165.545 334.434 165.461 333.893 164.487 334.06C163.556 334.226 163.683 333.685 163.831 333.103C165.778 325.278 167.704 317.454 169.63 309.609C169.969 308.193 170.329 306.778 170.646 305.363C170.773 304.76 170.985 304.448 171.726 304.427C174.097 304.323 175.409 303.116 175.917 300.785C176.15 299.745 176.404 298.683 176.743 297.685C177.124 296.603 177.716 296.478 178.669 297.185C178.88 297.331 179.113 297.581 179.304 297.456C179.579 297.289 179.388 296.956 179.325 296.707C179.071 295.77 178.499 295.125 177.589 294.75C177.145 294.563 176.658 294.418 176.192 294.272C175.536 294.085 175.197 293.793 175.599 293.107C175.684 292.961 175.705 292.774 175.769 292.607C176.002 291.962 175.705 291.483 175.134 291.254C174.52 291.005 173.885 291.213 173.779 291.837C173.589 293.086 172.784 293.294 171.705 293.523C170.35 293.793 169.419 294.75 169.017 296.061C168.593 297.477 168.17 298.912 167.831 300.369C167.429 302.075 168.128 303.449 169.8 304.177C170.329 304.406 170.35 304.614 170.223 305.093C167.916 314.478 165.609 323.842 163.344 333.227C163.111 334.206 162.497 333.997 161.862 334.039C161.079 334.081 161.291 333.498 161.248 333.103C160.634 328.462 160.402 323.801 159.64 319.181C159.64 314.187 159.64 309.172 159.618 304.177C159.978 303.615 160.677 303.574 161.142 303.178C162.54 301.992 163.153 300.515 162.772 298.746C162.264 296.415 161.545 294.147 160.931 291.837C160.698 290.963 159.957 290.318 159.597 289.506C159.618 289.153 159.618 288.778 159.618 288.383Z" fill="#FEFEFE"/>
<path d="M159.661 334.538C161.185 334.559 162.688 334.601 164.212 334.601C164.847 334.601 165.143 334.705 165.143 335.433C165.122 345.796 165.143 356.139 165.122 366.502C165.122 369.27 162.434 370.955 159.661 370.019C159.64 358.199 159.64 346.379 159.661 334.538Z" fill="#FEFEFE"/>
<path d="M159.64 370.872C162.137 370.851 164.635 370.83 167.133 370.83C175.981 370.83 184.807 370.851 193.655 370.81C194.523 370.81 194.84 371.018 194.756 371.892C194.671 372.683 194.671 373.494 194.756 374.285C194.84 375.138 194.48 375.305 193.676 375.305C182.796 375.284 171.916 375.284 161.037 375.305C160.634 375.305 160.19 375.159 159.809 375.45C159.407 373.931 159.745 372.391 159.64 370.872Z" fill="#FDFDFD"/>
<path d="M159.64 303.699C159.64 299.225 159.64 294.75 159.64 290.276C160.55 290.339 160.698 291.15 160.867 291.712C161.693 294.209 162.37 296.727 162.942 299.287C163.28 300.848 161.989 302.991 160.507 303.657C160.232 303.782 159.936 303.948 159.64 303.699Z" fill="#FEFEFE"/>
<path d="M159.64 303.699C161.587 303.199 163.09 301.222 162.666 299.329C162.116 296.769 161.354 294.251 160.613 291.712C160.465 291.171 160.169 290.63 159.64 290.276C159.64 290.047 159.64 289.798 159.618 289.569C160.444 290.172 160.952 291.005 161.227 291.941C161.883 294.189 162.518 296.457 163.069 298.746C163.661 301.181 162.095 303.636 159.64 304.24C159.64 304.052 159.64 303.865 159.64 303.699Z" fill="#5F87B2"/>
<path d="M159.788 324.092C160.126 327.151 160.444 330.21 160.825 333.269C160.973 334.476 160.19 333.997 159.64 334.018C159.64 330.71 159.64 327.401 159.661 324.092C159.703 324.092 159.745 324.092 159.788 324.092Z" fill="#F9FAFB"/>
<path d="M159.788 324.092H159.724H159.661C159.661 323.759 159.661 323.447 159.661 323.114C159.936 323.405 159.809 323.759 159.788 324.092Z" fill="#CED7E2"/>
<path d="M269.052 354.869C268.692 354.89 268.353 354.911 267.993 354.911C253.346 354.911 238.698 354.911 224.051 354.911C223.67 354.911 223.267 354.89 222.886 354.869C224.537 347.898 226.527 341.031 228.305 334.101C228.369 333.977 228.475 333.873 228.602 333.81C231.946 332.686 234.676 330.501 237.682 328.795C238.614 328.275 239.439 328.087 240.455 328.483C241.958 329.065 243.524 329.523 245.091 329.898C246.826 330.293 248.477 330.064 250.065 329.232C249.874 328.837 249.536 328.774 249.261 328.649C245.81 326.943 242.339 325.237 238.846 323.593C238.296 323.322 237.851 323.468 237.343 323.572C237.047 322.448 235.989 322.24 235.121 321.782C234.952 321.699 234.782 321.616 234.592 321.532C233.999 321.199 233.343 320.971 232.729 320.638C232.539 320.45 232.454 320.221 232.496 319.951C234.38 317.579 236.095 315.102 237.978 312.751C238.465 312.126 238.508 311.689 237.915 311.065C236.751 309.817 235.692 308.485 234.084 307.736C233.893 307.652 233.745 307.486 233.724 307.257C233.66 306.674 233.555 306.092 233.47 305.53C233.237 303.865 232.496 302.596 230.761 302.096C230.591 302.055 230.443 301.93 230.401 301.763C230.464 301.451 230.612 301.181 230.634 300.868C230.718 300.244 231.184 300.057 231.713 299.87C234.38 298.975 235.206 297.768 235.248 295.021C235.269 293.772 235.036 292.545 234.952 291.296C234.93 290.921 234.782 290.547 235.121 290.235C236.073 289.756 237.111 289.465 238.169 289.319C243.588 289.277 249.007 288.861 254.425 289.298C255.039 289.548 255.674 289.361 256.288 289.486C259.632 290.11 261.876 292.524 262.088 295.957C262.49 302.388 262.829 308.797 263.188 315.227C263.358 318.307 263.527 321.366 263.718 324.446C263.781 325.653 263.654 326.818 263.061 327.859C262.723 328.462 262.723 328.982 262.871 329.627C264.755 337.036 266.829 344.381 268.374 351.873C268.649 352.83 268.84 353.85 269.052 354.869Z" fill="#202B6D"/>
<path d="M239.333 283.701C235.862 285.74 232.454 284.242 231.734 280.309C231.12 277.021 231.967 273.837 232.666 270.674C233.237 268.031 234.994 266.345 237.555 265.409C239.46 264.701 241.471 264.556 243.461 264.431C245.832 264.285 248.181 264.556 250.488 265.034C252.69 265.492 254.298 266.845 255.378 268.697C257.96 273.088 258.214 277.666 256.076 282.306C255.272 284.033 253.981 285.24 251.97 285.49C251.208 285.407 250.467 285.781 249.684 285.469C248.435 284.97 247.652 284.138 247.356 282.847C246.932 280.995 246.805 279.081 246.509 277.208C246.297 275.814 246.043 274.399 245.768 273.025C245.345 270.882 243.842 269.383 242.487 267.781C241.979 267.198 241.386 266.699 240.857 266.158C240.265 265.575 239.672 265.555 238.952 265.95C237.83 266.574 237.217 267.531 236.836 268.697C236.518 269.654 236.476 270.674 236.306 271.652C236.243 272.026 236.391 272.297 236.645 272.588C237.365 273.4 237.344 273.608 236.476 274.211C236.116 274.461 235.904 274.732 235.883 275.127C235.798 276.5 235.671 277.895 235.968 279.268C236.306 280.746 237.132 281.911 238.402 282.785C238.783 283.035 239.312 283.159 239.333 283.701Z" fill="black"/>
<path d="M239.333 283.701C237.471 282.639 235.989 281.266 235.65 279.06C235.396 277.52 235.502 275.959 235.693 274.399C235.735 273.962 235.904 273.92 236.285 273.982C236.666 274.066 236.899 273.795 236.963 273.462C237.026 273.108 236.793 272.796 236.476 272.775C235.883 272.734 235.925 272.401 235.968 272.006C236.137 270.799 236.264 269.612 236.624 268.426C237.068 266.97 238.042 265.992 239.397 265.346C239.841 265.138 240.138 265.159 240.519 265.492C242.064 266.866 243.461 268.364 244.71 270.008C245.98 271.673 246.213 273.629 246.53 275.564C246.869 277.603 247.123 279.663 247.419 281.724C247.8 284.491 248.858 285.365 251.97 285.469C251.06 285.511 250.954 286.031 250.975 286.822C251.017 289.132 250.996 289.132 253.346 289.153C253.727 289.153 254.108 289.049 254.468 289.236C249.049 289.423 243.63 289.298 238.19 289.257C239.799 289.028 241.408 289.173 243.016 289.173C243.821 289.173 244.075 288.945 244.011 288.175C243.948 287.321 243.969 286.447 244.011 285.573C244.032 285.032 243.863 284.699 243.292 284.658C241.937 284.554 240.667 284.013 239.333 283.701Z" fill="#FD9993"/>
<path d="M233.872 307.299C235.925 308.152 237.195 309.9 238.635 311.461C238.846 311.689 238.91 311.898 238.698 312.189C236.73 314.769 234.782 317.329 232.835 319.909C232.793 319.951 232.708 319.972 232.645 319.993C232.221 320.117 231.904 319.868 231.565 319.701C228.369 318.14 225.151 316.58 221.955 314.977C221.426 314.707 220.854 314.499 220.579 313.916C219.013 312.834 218.399 311.357 218.653 309.504C219.034 309.255 219.309 309.546 219.606 309.713C221.003 310.441 222.336 311.252 223.712 312.002C224.051 312.189 224.347 312.439 224.813 312.376C224.262 311.918 223.627 311.565 222.992 311.232C221.807 310.628 220.685 309.941 219.521 309.296C219.246 309.151 218.928 309.026 218.865 308.672C219.203 308.006 219.648 307.403 219.838 306.654C221.786 308.069 223.987 309.067 226.189 310.337C226.125 309.879 225.829 309.817 225.617 309.692C224.072 308.797 222.484 307.965 220.939 307.07C220.516 306.82 220.029 306.612 220.219 305.967C221.214 304.656 222.611 304.302 224.559 304.864C226.125 305.343 227.649 306.008 229.3 306.196C230.274 306.3 231.247 306.362 232.221 306.549C232.814 306.695 233.491 306.674 233.872 307.299Z" fill="#FD9993"/>
<path d="M235.142 290.172C235.269 291.795 235.587 293.398 235.587 295.021C235.566 297.768 234.422 299.349 231.734 300.119C231.29 300.244 230.803 300.265 230.761 300.868C230.21 300.723 229.745 300.744 229.596 301.409C229.533 301.659 229.342 301.784 229.088 301.846C227.374 301.909 225.659 302.138 223.945 302.138C223.5 302.138 223.014 302.179 222.654 301.826C222.654 300.036 222.633 298.226 222.633 296.436C222.633 296.061 222.654 295.728 222.294 295.396C220.622 293.918 220.664 293.127 222.463 291.795C223.289 291.005 224.368 290.609 225.405 290.276C227.543 289.61 229.533 288.716 231.247 287.259C231.713 286.843 232.158 286.843 232.666 287.217C233.449 287.8 234.253 288.341 234.909 289.069C234.973 289.486 235.058 289.819 235.142 290.172Z" fill="#FD9993"/>
<path d="M235.184 321.595C235.883 321.699 236.455 322.115 237.068 322.406C237.534 322.615 237.619 322.968 237.28 323.384C236.814 324.092 235.989 324.321 235.333 324.737C234.126 325.507 232.856 326.152 231.713 327.005C232.094 327.089 232.369 326.839 232.644 326.693C234.063 325.861 235.481 325.028 236.92 324.196C237.153 324.05 237.428 323.884 237.703 324.092C237.936 324.3 237.936 324.591 237.873 324.862C237.682 325.611 237.301 326.277 236.772 326.86C234.549 329.253 231.882 331.146 229.448 333.29C229.067 333.623 228.623 333.81 228.157 333.997C226.781 334.06 225.448 334.642 224.008 334.289C222.188 333.852 220.939 332.561 220.77 330.709C220.643 329.232 220.876 327.817 221.659 326.527C221.87 326.027 222.251 325.674 222.717 325.424C225.744 323.801 228.792 322.219 231.882 320.7C232.2 320.554 232.496 320.325 232.877 320.471C233.597 320.534 234.168 320.887 234.719 321.283C234.549 321.72 234.147 321.865 233.787 322.073C232.496 322.843 231.205 323.593 229.914 324.383C229.639 324.55 229.258 324.633 229.11 325.174C231.226 324.03 233.216 322.843 235.184 321.595Z" fill="#FD9993"/>
<path d="M232.856 320.513C229.491 322.219 226.125 323.926 222.781 325.674C222.357 325.902 222.019 326.256 221.638 326.568C221.087 325.008 221.236 323.364 221.109 321.761C220.897 319.16 220.749 316.538 220.579 313.937C224.516 316.122 228.623 317.995 232.645 320.013C232.708 320.159 232.772 320.346 232.856 320.513Z" fill="black"/>
<path d="M228.136 334.018C229.999 332.499 231.819 330.938 233.703 329.461C234.825 328.566 235.841 327.567 236.772 326.485C237.322 325.861 237.703 325.112 237.64 324.071C236.222 324.904 234.888 325.673 233.555 326.464C233.047 326.756 232.539 327.089 232.009 327.38C231.755 327.505 231.438 327.796 231.205 327.359C231.015 327.005 231.332 326.88 231.565 326.735C231.84 326.568 232.094 326.402 232.369 326.256C233.999 325.32 235.629 324.362 237.259 323.426C237.746 322.781 238.254 323.01 238.846 323.322C242.466 325.112 246.107 326.86 249.726 328.628C250.044 328.774 250.404 328.857 250.679 329.232C248.647 330.397 246.551 330.689 244.329 330.002C242.847 329.544 241.365 329.128 239.905 328.608C239.27 328.379 238.804 328.462 238.254 328.795C235.82 330.272 233.364 331.667 230.951 333.165C230.126 333.685 229.194 333.852 228.284 334.122C228.242 334.081 228.178 334.06 228.136 334.018Z" fill="black"/>
<path d="M222.632 301.846C224.897 301.888 227.141 301.638 229.406 301.555C229.787 301.347 230.168 301.305 230.507 301.659C233.364 302.408 233.915 304.406 233.872 307.278C232.666 306.862 231.417 306.674 230.168 306.612C228.136 306.529 226.316 305.738 224.432 305.134C222.781 304.614 221.405 304.843 220.262 306.175C219.733 306.071 220.177 305.592 219.944 305.363C219.881 304.677 219.754 304.011 220.008 303.324C220.473 302.138 221.574 302.013 222.632 301.846Z" fill="black"/>
<path d="M234.888 289.132C233.957 288.716 233.237 287.987 232.433 287.384C232.052 287.092 231.84 287.072 231.48 287.405C229.787 288.903 227.839 289.902 225.617 290.484C224.516 290.776 223.5 291.358 222.463 291.816C222.23 288.258 224.093 286.198 227.691 286.01C228.644 285.969 229.596 285.99 230.528 286.031C233.047 286.156 234.063 286.864 234.888 289.132Z" fill="black"/>
<path d="M219.944 305.384C220.05 305.655 220.156 305.925 220.262 306.196C220.325 306.716 220.833 306.758 221.172 306.945C222.823 307.902 224.516 308.818 226.188 309.754C226.442 309.9 226.845 310.025 226.675 310.42C226.485 310.857 226.146 310.628 225.892 310.483C224.008 309.442 222.124 308.381 220.219 307.34C219.923 307.174 219.817 306.986 219.838 306.674C220.092 306.258 219.817 305.8 219.944 305.384Z" fill="#060303"/>
<path d="M218.865 308.693C220.876 309.817 222.908 310.919 224.919 312.043C225.194 312.189 225.554 312.355 225.363 312.73C225.151 313.104 224.834 312.896 224.538 312.73C222.569 311.648 220.622 310.587 218.653 309.525C218.399 309.151 218.42 308.859 218.865 308.693Z" fill="#070404"/>
<path d="M243.44 392.223C242.36 392.306 241.259 392.181 240.18 392.452C235.1 392.639 230.041 392.993 224.982 393.346C223.31 393.43 221.617 393.471 219.944 393.617C219.225 393.679 219.013 393.513 219.055 392.826C219.14 390.558 219.182 388.29 219.225 386.021C219.585 385.834 219.987 385.917 220.368 385.917C237.619 385.917 254.87 385.917 272.121 385.917C272.544 385.917 272.968 385.98 273.37 386.021C273.433 386.812 273.433 387.603 273.56 388.394C273.687 389.205 273.37 389.351 272.608 389.413C268.163 389.788 263.739 390.246 259.294 390.683C259.061 390.704 258.807 390.787 258.574 390.828C255.039 391.141 251.525 391.453 247.991 391.786C246.509 391.911 244.985 392.077 243.44 392.223Z" fill="#202B6D"/>
<path d="M268.798 370.518C268.777 376.012 264.226 380.444 258.616 380.444C253.007 380.444 248.456 375.887 248.499 370.352C248.541 364.9 253.134 360.467 258.765 360.488C264.332 360.488 268.798 364.962 268.798 370.518Z" fill="#FEFEFD"/>
<path d="M228.813 360.467C234.38 360.488 238.931 364.983 238.931 370.477C238.91 375.95 234.338 380.445 228.771 380.424C223.162 380.403 218.632 375.95 218.632 370.456C218.611 364.879 223.141 360.446 228.813 360.467Z" fill="#FEFEFD"/>
<path d="M194.734 349.251C194.734 355.931 194.713 362.611 194.756 369.291C194.756 370.123 194.523 370.352 193.697 370.331C191.623 370.269 189.549 370.269 187.453 370.331C186.522 370.352 186.268 370.123 186.268 369.186C186.31 360.322 186.289 351.457 186.289 342.592C186.289 338.097 186.31 333.581 186.268 329.086C186.246 328.129 186.543 327.921 187.453 327.963C189.527 328.025 191.602 328.025 193.697 327.963C194.523 327.942 194.756 328.171 194.756 329.003C194.713 335.745 194.734 342.509 194.734 349.251Z" fill="#FEFEFE"/>
<path d="M178.69 296.374C177.102 296.186 176.721 296.415 176.235 297.81C175.875 298.829 175.663 299.87 175.473 300.931C174.986 303.595 171.408 305.03 169.355 303.407C168.424 302.658 168.064 301.68 168.339 300.536C168.678 299.121 169.059 297.726 169.482 296.332C169.906 294.959 170.879 294.126 172.34 293.897C172.932 293.793 173.102 293.981 172.911 294.563C172.446 295.874 172.022 297.185 171.578 298.496C171.324 299.245 171.197 299.995 172.17 300.286C173.081 300.556 173.398 299.911 173.631 299.183C174.054 297.83 174.541 296.499 174.965 295.146C175.113 294.667 175.324 294.438 175.854 294.667C176.848 295.083 178.055 295.125 178.69 296.374Z" fill="#FEFEFE"/>
<path d="M171.916 298.933C172.657 296.707 173.44 294.376 174.245 292.045C174.372 291.691 174.647 291.567 175.007 291.712C175.409 291.879 175.409 292.212 175.303 292.586C174.795 294.126 174.287 295.687 173.779 297.227C173.546 297.955 173.292 298.663 173.038 299.391C172.911 299.724 172.678 299.911 172.297 299.807C171.874 299.682 171.811 299.391 171.916 298.933Z" fill="#FCFDFD"/>
<path d="M194.734 324.695C194.734 324.841 194.734 324.966 194.734 325.112C194.777 327.692 194.777 327.692 192.152 327.484C191.644 327.442 191.538 327.255 191.496 326.797C191.369 324.758 191.369 324.758 193.486 324.758C193.888 324.737 194.311 324.716 194.734 324.695Z" fill="#FBFBFB"/>
<path d="M99.9062 353.85C99.8639 354.765 99.3348 354.932 98.4669 354.911C93.2598 354.869 88.0528 354.869 82.8457 354.869C83.4595 350.708 84.0946 346.546 84.7084 342.384C85.1106 339.762 85.4704 337.119 85.8937 334.497C85.9996 333.873 85.9361 333.664 85.2164 333.602C82.8034 333.373 80.9407 332.312 80.0305 329.981C79.713 329.19 79.7341 328.337 79.6918 327.526C79.4166 323.322 79.2473 319.098 78.9933 314.894C78.6758 309.713 78.316 304.552 77.9985 299.37C77.8291 296.769 77.7445 294.209 79.6918 292.024C81.872 289.59 84.6026 288.362 87.8199 288.175C89.5768 288.071 91.3336 288.154 93.1117 288.154C93.4292 288.154 93.7678 288.112 93.8737 288.528C94.2123 288.903 94.1488 289.382 94.1488 289.819C94.1488 293.481 94.1277 297.144 94.17 300.806C94.17 301.826 93.8737 302.471 92.8153 302.845C91.4395 303.324 90.9103 304.718 91.2701 306.508C91.5453 307.923 92.392 308.568 93.9583 308.589C96.8159 308.63 97.3874 308.048 97.3451 305.197C97.3239 303.907 96.7735 303.074 95.5459 302.721C94.6992 302.471 94.3817 301.971 94.3817 301.118C94.3817 297.206 94.3817 293.294 94.3817 289.402C94.3817 289.028 94.3605 288.632 94.678 288.341C95.44 288.008 96.2444 288.175 97.0275 288.237C97.4932 288.736 97.4721 289.402 97.5144 290.006C97.8531 294.563 98.2764 299.1 98.6574 303.636C98.9537 307.257 99.2924 310.857 99.6099 314.478C99.8216 316.954 100.033 319.431 100.224 321.928C100.245 322.178 100.224 322.406 100.097 322.635C99.6734 323.052 99.1231 322.947 98.5939 322.968C97.0487 322.989 95.5035 322.947 93.9583 323.156C93.2598 323.239 93.027 323.489 93.154 324.154C93.6197 326.527 94.0007 328.92 94.4664 331.292C94.6145 332.041 94.9955 332.353 95.7575 332.333C97.0275 332.312 98.2976 332.312 99.5676 332.333C100.054 332.333 100.562 332.27 100.965 332.666C101.388 333.852 101.261 335.079 101.134 336.266C100.901 338.222 100.922 340.199 100.816 342.176C100.626 345.63 100.414 349.084 100.33 352.539C100.266 352.976 100.351 353.496 99.9062 353.85Z" fill="#6DB5DE"/>
<path d="M99.9487 322.594C98.9539 311.128 97.9802 299.662 96.9854 288.216L97.0277 288.154C97.2817 287.883 97.6203 287.821 97.9802 287.8C99.6524 287.779 101.325 287.779 102.997 287.8C103.357 287.8 103.695 287.862 103.949 288.133C104.732 288.154 105.494 288.175 106.278 288.195C106.616 288.362 106.743 288.695 106.87 289.028C109.156 295.458 111.718 301.784 114.321 308.11C114.448 308.402 114.554 308.693 114.575 309.005C114.342 312.293 114.512 315.56 114.469 318.848C114.469 319.389 114.533 319.951 114.3 320.492C114.215 320.679 114.067 320.867 113.877 320.929C112.099 321.574 110.384 322.552 108.5 322.677C106.045 322.823 103.589 323.093 101.134 322.948C100.69 322.906 100.266 322.968 99.9487 322.594Z" fill="black"/>
<path d="M114.342 308.714C111.993 303.303 109.834 297.789 107.78 292.274C107.272 290.921 106.786 289.548 106.278 288.195C108.288 288.154 110.278 288.05 112.289 288.299C114.575 288.591 116.438 289.673 117.792 291.463C119.697 293.98 122.068 296.041 124.375 298.163C126.259 299.911 128.376 301.43 130.344 303.116C131.043 303.719 131.382 303.615 131.868 302.887C132.821 301.472 133.879 300.14 134.874 298.767C135.742 297.581 135.721 297.581 136.949 298.288C139.743 300.348 142.537 302.45 145.437 304.364C145.775 304.677 145.796 304.926 145.479 305.322C142.981 308.443 140.526 311.585 138.049 314.728C137.689 314.374 137.753 313.895 137.732 313.458C137.711 312.355 137.774 311.252 137.711 310.15C137.626 308.61 136.885 307.902 135.319 307.798C134.747 307.756 134.197 307.777 133.625 307.777C129.159 307.777 124.693 307.777 120.227 307.777C118.216 307.777 116.141 307.486 114.342 308.714Z" fill="#6DB5DE"/>
<path d="M91.7146 270.258C91.5453 270.153 91.4818 270.008 91.4818 269.82C91.503 268.135 91.3548 266.429 91.6723 264.743C92.0321 262.891 93.4715 261.559 95.3765 261.517C99.1442 261.413 102.912 261.351 106.659 261.289C108.881 261.268 110.617 262.662 111.167 264.785C111.4 265.659 111.59 266.533 111.633 267.427C111.654 267.948 111.612 268.551 112.162 268.926C111.569 269.467 110.765 269.238 110.088 269.467C108.987 269.425 107.907 269.8 106.807 269.675C105.325 269.134 103.843 269.134 102.404 269.862C101.346 269.945 100.308 270.216 99.2501 270.133C97.091 270.258 94.932 270.32 92.7942 270.486C92.4132 270.507 92.0322 270.528 91.7146 270.258Z" fill="#6DB5DE"/>
<path d="M99.3559 269.841C100.393 269.779 101.43 269.716 102.467 269.654C102.594 270.07 102.256 270.278 102.065 270.57C101.07 272.11 101.409 274.024 102.848 274.981C104.457 276.043 106.362 275.689 107.463 274.128C108.161 273.129 108.183 273.129 108.902 274.128C109.558 275.023 110.405 275.564 111.548 275.606C111.866 275.626 112.183 275.606 112.416 275.876C112.437 280.392 110.384 282.66 105.452 283.576C103.632 283.909 103.991 283.555 103.949 285.365C103.928 286.302 103.949 287.238 103.949 288.175C101.642 288.175 99.3348 288.195 97.0276 288.195C97.0064 287.425 97.0064 286.635 96.9852 285.865C96.9852 285.761 97.0064 285.657 97.0064 285.553C96.6466 281.848 98.4458 278.477 98.6786 274.856C98.7633 273.587 98.8903 272.318 98.9961 271.027C99.0384 270.59 98.9961 270.153 99.3559 269.841Z" fill="#FD9993"/>
<path d="M99.3559 269.841C99.2289 272.671 99.0173 275.502 98.4881 278.269C98.4034 278.685 98.3822 279.122 98.1917 279.476C97.2181 281.162 97.4509 282.993 97.4297 284.803C97.4297 285.178 97.6202 285.677 97.0064 285.802C94.7627 285.844 92.4978 285.865 90.2541 285.927C89.5768 285.948 88.8994 286.01 88.4549 285.344C87.9892 284.637 88.3279 284.033 88.7301 283.43C90.4446 280.87 91.122 277.999 91.249 274.981C91.3125 273.379 91.4606 271.797 91.7146 270.237C94.2547 270.112 96.7947 269.966 99.3559 269.841Z" fill="black"/>
<path d="M112.437 275.855C110.469 276.022 109.029 275.293 108.204 273.296C107.844 274.086 107.505 274.69 106.913 275.127C105.494 276.209 103.462 276.063 102.192 274.836C100.986 273.649 100.859 271.652 101.917 270.278C102.086 270.07 102.277 269.862 102.467 269.654C103.843 268.718 105.262 268.718 106.722 269.425C107.378 269.633 107.738 270.195 108.183 270.736C108.775 270.133 109.177 269.404 110.024 269.217C110.723 268.967 111.421 268.863 112.162 268.905C113.94 269.3 115.062 270.466 115.189 272.026C115.337 273.816 114.469 275.002 112.437 275.855Z" fill="#010101"/>
<path d="M94.6358 288.32C94.6358 292.649 94.6569 296.977 94.6358 301.305C94.6358 301.951 94.7628 302.263 95.4824 302.388C96.9641 302.658 97.6203 303.532 97.6203 305.03C97.6203 305.488 97.6203 305.925 97.6203 306.383C97.578 308.006 96.6466 308.922 94.9745 308.943C94.8686 308.943 94.7628 308.943 94.6569 308.943C91.5454 308.943 90.5082 307.777 90.8892 304.718C91.0374 303.553 91.7147 302.679 92.9001 302.471C93.7256 302.325 93.8314 301.909 93.8314 301.201C93.8103 296.977 93.8314 292.753 93.8526 288.528C94.0643 288.237 94.2971 288.029 94.6358 288.32Z" fill="#FDFDFE"/>
<path d="M99.9063 353.85C100.203 347.44 100.52 341.031 100.817 334.622C100.838 333.977 100.817 333.311 100.795 332.666C101.092 332.27 101.536 332.291 101.96 332.291C105.664 332.27 109.347 332.27 113.051 332.291C113.411 332.291 113.75 332.312 114.067 332.499C114.512 332.853 114.448 333.373 114.448 333.852C114.469 335.1 114.427 336.349 114.469 337.597C114.533 339.533 115.252 340.219 117.179 340.219C119.93 340.24 122.661 340.219 125.413 340.24C125.942 340.24 126.577 340.115 126.937 340.698C128.101 345.422 129.244 350.166 130.408 354.89C123.994 354.89 117.581 354.89 111.167 354.89C110.384 354.162 110.384 353.142 110.088 352.227C109.622 350.853 109.622 350.812 108.204 350.812C107.463 350.812 106.722 350.791 105.981 350.832C105.24 350.853 104.902 351.207 104.923 351.935C104.944 352.518 104.923 353.101 104.923 353.704C104.923 354.12 104.944 354.536 104.627 354.89C103.441 354.89 102.235 354.849 101.049 354.932C100.182 354.973 99.8217 354.682 99.9063 353.85Z" fill="#8F3600"/>
<path d="M137.033 370.435C137.012 376.012 132.461 380.444 126.81 380.424C121.264 380.403 116.671 375.825 116.713 370.393C116.776 364.879 121.306 360.467 126.915 360.467C132.525 360.467 137.054 364.92 137.033 370.435Z" fill="#FDFEFD"/>
<path d="M107.146 370.497C107.124 375.97 102.552 380.444 96.9642 380.424C91.3762 380.403 86.8464 375.908 86.8464 370.414C86.8464 364.92 91.3973 360.446 96.9854 360.446C102.658 360.446 107.167 364.9 107.146 370.497Z" fill="#FDFEFD"/>
<path d="M104.626 354.849C104.626 353.663 104.648 352.497 104.584 351.311C104.563 350.77 104.753 350.562 105.283 350.562C106.616 350.541 107.95 350.5 109.283 350.416C109.812 350.395 109.939 350.666 110.045 351.061C110.405 352.331 110.786 353.579 111.146 354.849C108.987 354.849 106.807 354.849 104.626 354.849Z" fill="#6DB5DE"/>
<path d="M126.937 340.656C125.582 340.407 124.206 340.573 122.83 340.552C120.819 340.511 118.808 340.552 116.819 340.552C115.041 340.552 114.194 339.72 114.173 337.951C114.152 336.182 114.173 334.414 114.173 332.666C114.554 332.229 115.083 332.333 115.549 332.333C118.089 332.312 120.608 332.312 123.148 332.333C124.185 332.333 125.201 332.249 126.196 332.062C127.953 331.75 128.926 330.626 129.35 328.961C129.413 328.296 128.884 328.566 128.63 328.566C126.979 328.545 125.328 328.566 123.677 328.545C123.211 328.545 122.682 328.67 122.322 328.191C122.619 327.63 123.169 327.754 123.635 327.754C125.01 327.734 126.386 327.754 127.762 327.734C128.037 327.734 128.334 327.754 128.609 327.713C128.947 327.671 129.371 327.671 129.328 327.172C129.307 326.756 128.926 326.735 128.609 326.735C127.064 326.693 125.497 326.735 123.952 326.693C123.381 326.672 122.724 326.88 122.322 326.256C122.661 325.757 123.19 325.882 123.656 325.882C125.264 325.861 126.873 325.882 128.482 325.861C128.778 325.861 129.201 326.09 129.35 325.569C129.011 324.321 128.143 323.676 126.915 323.384C125.624 323.072 124.291 322.947 123 322.552C122.513 322.032 121.835 322.136 121.222 321.969C119.168 320.991 117.052 320.346 114.723 320.742C114.512 320.783 114.3 320.742 114.152 320.554C114.152 317.204 114.131 313.833 114.152 310.482C114.152 309.9 114.258 309.317 114.321 308.734C115.02 307.777 115.972 307.465 117.136 307.486C123.105 307.507 129.074 307.507 135.065 307.507C137.181 307.507 137.965 308.297 137.986 310.399C137.986 311.856 138.007 313.292 138.028 314.748C138.007 316.018 137.986 317.308 137.965 318.577C137.965 324.904 137.965 331.23 137.965 337.556C137.965 339.991 137.351 340.573 134.832 340.594C132.207 340.615 129.561 340.448 126.937 340.656Z" fill="#202B6D"/>
<path d="M165.079 278.769C165.609 278.623 165.884 278.789 165.757 279.372C163.958 280.641 162.158 281.89 160.338 283.159C160.084 283.347 159.788 283.784 159.449 283.388C159.068 282.931 159.597 282.743 159.894 282.535C161.608 281.266 163.344 280.017 165.079 278.769Z" fill="#050303"/>
<path d="M162.582 276.729C163.047 276.625 163.238 276.833 163.238 277.291C161.418 278.581 159.597 279.892 157.756 281.183C157.481 281.37 157.163 281.765 156.846 281.37C156.465 280.891 157.036 280.725 157.311 280.517C159.068 279.247 160.825 277.999 162.582 276.729Z" fill="#060404"/>
<path d="M149.797 285.844C149.86 285.886 149.987 285.927 150.093 286.01C151.152 286.76 152.189 287.529 153.226 288.279C153.438 288.445 153.734 288.632 153.501 288.945C153.226 289.361 152.93 289.049 152.697 288.882C151.681 288.154 150.665 287.405 149.649 286.655C149.458 286.51 149.204 286.364 149.31 286.073C149.374 285.948 149.522 285.823 149.797 285.844Z" fill="#0A0606"/>
<path d="M253.134 316.351C252.796 313.354 252.478 310.503 252.16 307.652C252.097 307.07 252.034 306.487 251.97 305.904C251.928 305.613 251.97 305.301 252.309 305.259C252.69 305.218 252.711 305.571 252.753 305.842C253.007 308.069 253.261 310.316 253.515 312.543C253.663 313.854 253.79 315.165 253.96 316.455C254.044 317.204 253.854 317.516 253.05 317.183C252.012 316.767 250.954 316.372 249.917 315.976C249.642 315.872 249.388 315.706 249.515 315.373C249.663 315.019 249.959 315.144 250.234 315.248C251.123 315.602 252.055 315.935 253.134 316.351Z" fill="#FBFBFC"/>
<path d="M235.184 321.595C235.206 321.928 234.952 322.073 234.698 322.219C232.962 323.239 231.205 324.279 229.469 325.299C229.215 325.445 228.898 325.757 228.644 325.361C228.348 324.924 228.792 324.758 229.088 324.591C230.951 323.489 232.835 322.406 234.698 321.304C234.888 321.366 235.057 321.428 235.184 321.595Z" fill="#060404"/>
<path d="M230.507 301.659C230.147 301.618 229.787 301.576 229.406 301.555C229.406 301.077 229.3 300.598 230.02 300.473C230.464 300.39 230.697 300.431 230.761 300.889C230.824 301.181 231.015 301.534 230.507 301.659Z" fill="#DFD9DC"/>
<path d="M251.716 277.021C251.716 276.188 251.737 275.356 251.716 274.523C251.695 274.003 251.885 273.816 252.393 274.003C252.88 274.19 253.409 274.315 253.854 274.565C254.827 275.106 255.484 275.876 255.484 277.041C255.484 278.228 254.764 278.977 253.833 279.518C251.885 280.621 251.716 280.517 251.716 278.373C251.716 277.936 251.716 277.478 251.716 277.021Z" fill="#FC9993"/>
<path d="M244.011 273.629C243.969 274.024 243.736 274.253 243.334 274.232C242.974 274.211 242.741 274.045 242.72 273.67C242.72 273.275 242.931 272.984 243.334 272.984C243.736 272.963 243.969 273.233 244.011 273.629Z" fill="#0E0908"/>
<path d="M234.465 310.316C234.38 310.649 234.211 310.857 233.809 310.628C231.798 309.505 229.787 308.402 227.776 307.278C227.543 307.153 227.395 306.924 227.607 306.695C227.882 306.404 228.178 306.612 228.453 306.758C230.274 307.777 232.115 308.776 233.936 309.796C234.169 309.921 234.401 310.025 234.465 310.316Z" fill="#0A0606"/>
<path d="M234.063 292.232C234.063 292.524 233.914 292.711 233.639 292.732C233.364 292.753 233.152 292.607 233.11 292.357C233.068 292.066 233.237 291.837 233.576 291.837C233.872 291.837 234.02 292.004 234.063 292.232Z" fill="#170E0E"/>
<path d="M228.919 292.461C228.877 292.732 228.729 292.919 228.432 292.919C228.157 292.919 227.967 292.732 227.967 292.461C227.945 292.149 228.157 292.024 228.432 292.024C228.707 292.004 228.877 292.17 228.919 292.461Z" fill="#1C1110"/>
<path d="M267.972 370.56C267.909 375.741 263.739 379.674 258.341 379.612C253.304 379.55 249.239 375.346 249.303 370.269C249.366 365.233 253.6 361.216 258.807 361.258C263.951 361.32 268.036 365.461 267.972 370.56Z" fill="#E98F27"/>
<path d="M219.436 370.456C219.436 365.337 223.522 361.3 228.707 361.279C233.914 361.258 238.106 365.358 238.084 370.498C238.063 375.575 233.914 379.633 228.729 379.612C223.543 379.612 219.457 375.575 219.436 370.456Z" fill="#E98F27"/>
<path d="M122.449 326.194C123.656 326.527 124.883 326.277 126.09 326.339C126.958 326.381 127.847 326.381 128.715 326.339C129.434 326.298 129.773 326.402 129.773 327.255C129.773 328.129 129.286 328.067 128.715 328.067C126.958 328.046 125.201 328.046 123.444 328.067C123.105 328.067 122.746 327.942 122.428 328.191C122.64 328.649 123.063 328.545 123.444 328.545C125.053 328.566 126.683 328.545 128.291 328.566C128.736 328.566 129.223 328.504 129.561 328.899C129.392 330.772 127.91 332.249 125.921 332.437C122.64 332.728 119.338 332.562 116.036 332.603C115.401 332.624 114.766 332.624 114.152 332.645C109.686 332.645 105.219 332.645 100.774 332.666C98.9327 332.666 97.1123 332.624 95.2708 332.666C94.5723 332.686 94.2971 332.457 94.1701 331.771C93.7256 329.045 93.2176 326.319 92.6884 323.613C92.5614 322.927 92.7096 322.802 93.3658 322.781C95.546 322.76 97.7262 322.656 99.9064 322.594C102.785 322.531 105.706 322.698 108.543 322.344C110.448 322.115 112.268 321.158 114.109 320.534C116.692 319.93 119.062 320.45 121.285 321.782C120.883 322.177 120.375 322.094 119.888 322.094C118.618 322.115 117.369 322.073 116.099 322.198C118.385 322.427 120.692 322.219 122.978 322.365C124.375 322.635 125.794 322.843 127.191 323.176C128.418 323.468 129.307 324.175 129.519 325.507C129.18 325.923 128.693 325.84 128.249 325.84C126.64 325.861 125.01 325.84 123.402 325.861C123.084 325.861 122.64 325.715 122.449 326.194Z" fill="#FD9993"/>
<path d="M110.024 269.238C109.305 269.779 108.606 270.362 108.289 271.423C107.781 270.653 107.357 269.966 106.722 269.425C107.823 269.363 108.924 269.3 110.024 269.238Z" fill="#F4948F"/>
<path d="M96.1174 279.143C93.8737 278.81 92.3496 277.499 92.392 275.98C92.4131 274.44 93.9584 273.192 96.1174 272.963C96.1174 275.023 96.1174 277.083 96.1174 279.143Z" fill="#FC9993"/>
<path d="M107.442 272.38C107.421 273.899 106.235 275.044 104.69 275.044C103.166 275.044 101.981 273.858 102.002 272.318C102.023 270.861 103.23 269.675 104.69 269.675C106.193 269.675 107.463 270.903 107.442 272.38Z" fill="#FC9993"/>
<path d="M112.628 274.856C111.294 275.231 110.299 274.96 109.537 274.024C108.86 273.192 108.775 271.943 109.326 271.007C109.918 270.029 110.913 269.592 112.183 269.779C112.056 270.466 112.437 271.152 112.162 271.839C111.548 272.38 111.781 272.817 112.353 273.192C112.522 273.733 112.649 274.274 112.628 274.856Z" fill="#FC9993"/>
<path d="M112.628 274.856C112.141 274.378 112.268 273.754 112.225 273.171C112.289 272.713 112.268 272.276 112.035 271.86C111.971 271.423 111.929 270.965 111.866 270.528C111.823 270.216 111.739 269.904 112.183 269.779C113.496 270.07 114.258 270.882 114.363 272.047C114.49 273.421 113.961 274.274 112.628 274.856Z" fill="#EBE8E8"/>
<path d="M96.8372 305.717C96.8372 307.777 96.4562 308.131 94.276 308.131C92.1805 308.131 91.7148 307.673 91.7148 305.551C91.7148 303.615 92.2864 303.095 94.4454 303.095C96.3927 303.095 96.8372 303.574 96.8372 305.717Z" fill="#6DB5DE"/>
<path d="M126.915 361.279C132.101 361.279 136.208 365.316 136.229 370.435C136.25 375.533 132.122 379.612 126.937 379.633C121.793 379.654 117.56 375.533 117.538 370.518C117.517 365.378 121.687 361.279 126.915 361.279Z" fill="#459257"/>
<path d="M106.341 370.477C106.341 375.554 102.15 379.633 96.9854 379.612C91.7994 379.591 87.6719 375.513 87.6719 370.435C87.6719 365.274 91.7994 361.258 97.07 361.258C102.235 361.279 106.341 365.358 106.341 370.477Z" fill="#459257"/>
<path d="M123.021 322.365C122.809 322.677 122.47 322.635 122.174 322.635C120.142 322.635 118.089 322.635 116.057 322.635C115.718 322.635 115.252 322.719 115.252 322.24C115.252 321.761 115.718 321.824 116.057 321.824C117.814 321.803 119.571 321.803 121.327 321.803C121.899 321.99 122.746 321.366 123.021 322.365Z" fill="#040203"/>
<path d="M129.582 328.899C127.402 328.899 125.222 328.899 123.063 328.878C122.64 328.878 122.005 328.982 122.449 328.191C124.735 328.191 127.021 328.212 129.307 328.212C129.582 328.212 129.942 328.129 130.048 328.462C130.154 328.795 129.815 328.837 129.582 328.899Z" fill="#0E0908"/>
<path d="M122.449 326.194C122.343 325.549 122.343 325.528 123.042 325.528C125.222 325.507 127.381 325.507 129.561 325.507C129.773 325.57 130.006 325.611 129.963 325.882C129.9 326.298 129.561 326.173 129.286 326.173C127.021 326.194 124.735 326.194 122.449 326.194Z" fill="#0E0908"/>
<path d="M261.537 369.811C262.469 369.103 263.231 368.541 264.12 367.855C264.12 369.623 264.12 371.226 264.12 373.015C263.231 372.35 262.469 371.767 261.707 371.205C261.622 371.309 261.537 371.351 261.537 371.392C261.432 373.598 261.368 373.64 259.146 373.64C258.024 373.64 256.902 373.661 255.759 373.64C254.552 373.619 254.171 373.265 254.15 372.1C254.129 370.997 254.129 369.894 254.15 368.77C254.171 367.626 254.552 367.251 255.759 367.23C257.071 367.21 258.362 367.23 259.675 367.23C261.199 367.23 261.495 367.543 261.537 369.062C261.537 369.249 261.537 369.415 261.537 369.811Z" fill="#FEFEFE"/>
<path d="M231.819 376.054C231.184 375.991 230.485 375.742 229.85 375.388C226.612 373.598 224.347 370.997 223.416 367.418C223.077 366.148 223.733 365.045 225.024 365.004C226.104 364.962 226.146 366.294 226.802 366.918C227.035 367.147 227.247 367.376 226.908 367.792C225.935 369.041 225.977 369.519 226.972 370.706C227.586 371.434 228.242 372.1 229.025 372.662C229.66 373.12 230.358 373.224 230.951 372.662C231.353 372.266 231.65 372.35 232.031 372.641C232.369 372.891 232.771 373.057 233.068 373.348C233.428 373.681 234.274 373.661 234.02 374.472C233.703 375.471 232.877 376.116 231.819 376.054Z" fill="#FEFEFE"/>
<path d="M105.875 272.588C105.833 273.004 105.579 273.233 105.177 273.233C104.838 273.233 104.584 273.046 104.563 272.651C104.542 272.234 104.753 271.985 105.177 271.964C105.6 271.922 105.812 272.214 105.875 272.588Z" fill="#110A0A"/>
<path d="M112.035 271.86C112.776 272.193 112.797 272.651 112.226 273.171C111.823 273.192 111.421 273.171 111.337 272.671C111.231 272.151 111.548 271.922 112.035 271.86Z" fill="#121111"/>
<path d="M132.419 367.813C132.419 369.623 132.419 371.247 132.419 373.057C131.509 372.35 130.725 371.746 129.942 371.143C129.858 371.247 129.794 371.288 129.794 371.351C129.709 373.577 129.667 373.619 127.445 373.619C126.238 373.619 125.053 373.598 123.846 373.619C122.873 373.64 122.428 373.119 122.407 372.225C122.386 371.018 122.386 369.811 122.407 368.583C122.428 367.647 122.957 367.189 123.867 367.189C125.201 367.168 126.556 367.168 127.889 367.189C129.413 367.189 129.752 367.542 129.773 369.02C129.773 369.228 129.773 369.436 129.773 369.832C130.704 369.103 131.509 368.5 132.419 367.813Z" fill="#FEFEFE"/>
<path d="M100.203 376.054C98.869 375.866 97.599 375.284 96.4983 374.389C94.17 372.516 92.2861 370.331 91.6511 367.314C91.3971 366.044 91.9474 365.295 93.2174 364.921C93.7466 364.754 93.8948 365.108 94.0006 365.378C94.3393 366.19 95.6305 366.731 95.1436 367.667C94.3181 369.228 94.1911 369.499 95.3765 370.83C95.8421 371.351 96.3501 371.829 96.8582 372.308C97.6413 373.036 98.4669 373.307 99.377 372.495C99.5887 372.308 99.7792 372.266 100.033 372.433C100.732 372.911 101.43 373.348 102.15 373.806C102.298 373.91 102.404 374.014 102.383 374.222C102.277 375.055 101.155 376.074 100.203 376.054Z" fill="#FEFEFE"/>
<path d="M266.562 526.562V524.844C266.562 524.388 266.744 523.951 267.066 523.628C267.388 523.306 267.825 523.125 268.281 523.125H277.219C277.675 523.125 278.112 523.306 278.434 523.628C278.756 523.951 278.938 524.388 278.938 524.844V535.156C278.938 535.612 278.756 536.049 278.434 536.372C278.112 536.694 277.675 536.875 277.219 536.875H268.281C267.825 536.875 267.388 536.694 267.066 536.372C266.744 536.049 266.562 535.612 266.562 535.156V533.438" stroke="white" stroke-width="1.375" stroke-linecap="round" stroke-linejoin="round"/>
<path d="M270.688 533.438L274.125 530L270.688 526.562" stroke="white" stroke-width="1.375" stroke-linecap="round" stroke-linejoin="round"/>
<path d="M261.062 530H273.438" stroke="white" stroke-width="1.375" stroke-linecap="round" stroke-linejoin="round"/>
<path d="M134 171C133.4 171 133 171.4 133 172V176H129C128.4 176 128 176.4 128 177V178C128 178.6 128.4 179 129 179H133V183C133 183.6 133.4 184 134 184H135C135.6 184 136 183.6 136 183V179H140C140.6 179 141 178.6 141 178V177C141 176.4 140.6 176 140 176H136V172C136 171.4 135.6 171 135 171H134Z" fill="#4C73F4"/>
<g clip-path="url(#clip1_511_233)">
<path d="M40.9293 245.956C40.4448 245.602 39.8858 245.689 39.532 246.174L37.173 249.404L33.9426 247.045C33.4581 246.691 32.8992 246.778 32.5453 247.263L31.9556 248.071C31.6017 248.555 31.6889 249.114 32.1734 249.468L35.4038 251.827L33.0449 255.057C32.691 255.542 32.7782 256.101 33.2627 256.455L34.0703 257.044C34.5549 257.398 35.1138 257.311 35.4676 256.826L37.8266 253.596L41.057 255.955C41.5415 256.309 42.1005 256.222 42.4543 255.737L43.044 254.93C43.3979 254.445 43.3107 253.886 42.8262 253.532L39.5958 251.173L41.9548 247.943C42.3086 247.458 42.2215 246.899 41.7369 246.546L40.9293 245.956Z" fill="#4C73F4"/>
</g>
<g clip-path="url(#clip2_511_233)">
<path d="M329.104 297.935C328.569 298.208 328.394 298.746 328.667 299.28L330.483 302.844L326.918 304.66C326.384 304.932 326.209 305.47 326.481 306.005L326.935 306.896C327.208 307.431 327.746 307.606 328.28 307.333L331.844 305.517L333.66 309.082C333.933 309.616 334.471 309.791 335.005 309.519L335.896 309.065C336.431 308.792 336.606 308.254 336.333 307.72L334.517 304.156L338.082 302.34C338.616 302.067 338.791 301.529 338.519 300.995L338.065 300.104C337.792 299.569 337.254 299.394 336.72 299.667L333.156 301.482L331.34 297.918C331.068 297.384 330.53 297.209 329.995 297.481L329.104 297.935Z" fill="#4C73F4"/>
</g>
<path d="M243.603 190.075C243.022 189.928 242.536 190.218 242.389 190.8L241.412 194.679L237.533 193.702C236.951 193.555 236.466 193.845 236.319 194.427L236.075 195.397C235.928 195.978 236.218 196.464 236.8 196.611L240.679 197.588L239.702 201.467C239.555 202.049 239.845 202.534 240.427 202.681L241.397 202.925C241.978 203.072 242.464 202.782 242.611 202.2L243.588 198.321L247.467 199.298C248.049 199.445 248.534 199.155 248.681 198.573L248.925 197.603C249.072 197.022 248.782 196.536 248.2 196.389L244.321 195.412L245.298 191.533C245.445 190.951 245.155 190.466 244.573 190.319L243.603 190.075Z" fill="#4C73F4"/>
</g>
<defs>
<clipPath id="clip0_511_233">
<rect width="360" height="640" fill="white"/>
</clipPath>
<clipPath id="clip1_511_233">
<rect width="15" height="15" fill="white" transform="translate(35.866 241.02) rotate(36.1384)"/>
</clipPath>
<clipPath id="clip2_511_233">
<rect width="15" height="15" fill="white" transform="translate(322.413 300.222) rotate(-26.997)"/>
</clipPath>
</defs>
</svg>
