<svg width="50" height="50" viewBox="0 0 50 50" fill="none" xmlns="http://www.w3.org/2000/svg">
<path d="M11.7709 42.2778C11.7709 42.2778 10.3125 31.9305 18.6459 31.9305C20.8632 33.409 22.8313 34.5687 24.9653 34.5646L25.157 34.634C27.2917 34.6382 29.2598 33.3396 31.4764 31.8618C39.507 31.8375 38.0799 42.209 38.2403 42.2785" fill="white"/>
<path d="M17.3034 41.5313C18.454 41.5313 19.3868 40.5985 19.3868 39.4479C19.3868 38.2973 18.454 37.3646 17.3034 37.3646C16.1528 37.3646 15.2201 38.2973 15.2201 39.4479C15.2201 40.5985 16.1528 41.5313 17.3034 41.5313Z" fill="#9B9B9A"/>
<path d="M31.5139 31.8528C29.3125 33.3201 27.8507 34.2833 25.0292 34.6924C34.1007 34.9778 34.0313 39.4917 34.5604 42.2695H38.1111C38.1111 42.2695 39.9264 31.8514 31.5139 31.8528Z" fill="#A2C2CA"/>
<path d="M18.7244 13.0097V7.475C18.7244 7.475 23.391 7.65555 25.1063 5.64166C26.8216 7.65555 31.4883 7.475 31.4883 7.475V12.9889L25.1896 12.3778L18.7244 13.0097Z" fill="white"/>
<path d="M23.7312 9.83961H24.7326V10.841H25.4375V9.83961H26.4388V9.13475H25.4375V8.13336H24.7326V9.13475H23.7312V9.83961Z" fill="#DF394C"/>
<path d="M32.9479 20.3285C31.6645 20.5132 31.2833 16.8562 31.2833 16.8562C31.0166 20.5854 27.2527 16.518 27.2527 16.518C27.8611 18.893 23.6944 16.118 23.6944 16.118C24.6923 18.234 20.4951 15.4479 20.4951 15.4479C20.4951 15.4479 18.5986 19.6667 17.284 20.2924C17.275 20.4889 17.2604 20.684 17.2604 20.884C17.2604 26.3201 20.7854 30.7264 25.134 30.7264C29.4826 30.7264 33.0083 26.3201 33.0083 20.884C33.0083 20.6687 32.993 20.459 32.9826 20.2479C32.9694 20.275 32.9618 20.3021 32.9479 20.3285Z" fill="#E3E4E3"/>
<path d="M33.0167 20.1806C32.9958 20.2292 32.9681 20.2778 32.9472 20.3264C31.6625 20.5139 31.2806 16.8542 31.2806 16.8542C31.0167 20.5833 27.2528 16.5208 27.2528 16.5208C27.8639 18.8958 23.6972 16.1181 23.6972 16.1181C24.6903 18.2361 20.4958 15.4514 20.4958 15.4514C20.4958 15.4514 18.5444 19.7917 17.2319 20.3194C17.225 20.3194 17.225 20.3264 17.2181 20.3264C17.1208 20.0972 17.0375 19.8681 16.9681 19.6458C16.6245 18.6694 16.5529 17.6179 16.7608 16.6038C16.9688 15.5898 17.4485 14.6513 18.1486 13.8889C18.1075 13.8298 18.0769 13.764 18.0583 13.6944C18.0342 13.5992 18.0272 13.5005 18.0375 13.4028C18.0375 13.3889 18.0306 13.3681 18.0306 13.3542V12.25C18.4264 11.75 18.1208 11.9236 18.6486 11.6806L19.0097 12.9375L19.4194 12.5972C23.145 11.5983 27.0677 11.596 30.7944 12.5903V11.5139C31.3078 12.004 31.7686 12.5463 32.1694 13.1319C32.1764 13.1389 32.1764 13.1458 32.1833 13.1528C32.6527 13.8252 33.0222 14.562 33.2806 15.3403C33.8234 16.9269 33.7287 18.6623 33.0167 20.1806Z" fill="#A57939"/>
<path d="M31.968 6.97223C31.9009 6.90794 31.8212 6.85813 31.734 6.82588C31.6468 6.79362 31.5539 6.77962 31.4611 6.78473C31.3639 6.78473 31.2458 6.79167 31.1139 6.79167C29.725 6.78473 26.8083 6.5139 25.6625 5.22223C25.6333 5.18032 25.5982 5.14289 25.5583 5.11112C25.4862 5.04852 25.4007 5.00337 25.3083 4.97917C25.2825 4.9658 25.254 4.95867 25.225 4.95834C25.1868 4.94649 25.1468 4.94178 25.1069 4.94445C25.067 4.9422 25.0271 4.9469 24.9889 4.95834C24.9598 4.95867 24.9313 4.9658 24.9055 4.97917C24.7766 5.01449 24.6623 5.08989 24.5791 5.19445C24.5722 5.2014 24.5652 5.21528 24.5514 5.22223C23.8213 5.90008 22.9043 6.34285 21.9194 6.49306C20.9891 6.6828 20.0424 6.7805 19.093 6.78473C18.968 6.78473 18.85 6.78473 18.7527 6.77778C18.5628 6.77399 18.3787 6.84364 18.2389 6.97223C18.106 7.1048 18.0311 7.28457 18.0305 7.47223V13.3542C18.0305 13.3681 18.0375 13.3889 18.0375 13.4028C18.0271 13.5005 18.0342 13.5992 18.0583 13.6945C18.0769 13.764 18.1075 13.8298 18.1486 13.8889C18.2133 13.9821 18.2994 14.0585 18.3997 14.1117C18.4999 14.1648 18.6115 14.1932 18.725 14.1945C18.7935 14.1931 18.8613 14.1814 18.9264 14.1597C22.9495 12.9095 27.2574 12.9095 31.2805 14.1597C31.4353 14.2078 31.6021 14.2001 31.7518 14.1379C31.9015 14.0757 32.0247 13.9631 32.1 13.8195C32.1204 13.7844 32.1367 13.7471 32.1486 13.7083C32.1623 13.6681 32.1693 13.6259 32.1694 13.5833C32.1798 13.5236 32.1798 13.4625 32.1694 13.4028C32.1781 13.388 32.1829 13.3713 32.1833 13.3542V7.47223C32.1833 7.37863 32.1642 7.28603 32.1271 7.20006C32.0901 7.1141 32.036 7.03657 31.968 6.97223ZM30.7944 12.5903C27.0676 11.596 23.145 11.5984 19.4194 12.5972V8.16667C19.5722 8.16667 19.7527 8.15973 19.9472 8.14584C21.3639 8.06251 23.6694 7.75001 25.1069 6.59028C26.5444 7.75001 28.85 8.06251 30.2666 8.14584C30.4611 8.15973 30.6416 8.16667 30.7944 8.16667V12.5903Z" fill="black"/>
<path d="M25.4376 8.13332V9.13471H26.4389V9.83957H25.4376V10.841H24.7327V9.84027H23.7313V9.13541H24.7327V8.13402H25.4376V8.13332ZM25.4376 7.43958H24.7327C24.5485 7.43958 24.3719 7.51274 24.2417 7.64297C24.1114 7.77321 24.0383 7.94984 24.0383 8.13402V8.44096H23.7313C23.5471 8.44096 23.3705 8.51413 23.2403 8.64436C23.11 8.7746 23.0369 8.95123 23.0369 9.13541V9.84027C23.0369 10.0244 23.11 10.2011 23.2403 10.3313C23.3705 10.4615 23.5471 10.5347 23.7313 10.5347H24.0383V10.8417C24.0383 10.9329 24.0562 11.0232 24.0911 11.1074C24.126 11.1917 24.1772 11.2682 24.2417 11.3327C24.3061 11.3972 24.3827 11.4483 24.4669 11.4832C24.5512 11.5181 24.6415 11.5361 24.7327 11.5361H25.4376C25.6217 11.5361 25.7984 11.4629 25.9286 11.3327C26.0588 11.2025 26.132 11.0258 26.132 10.8417V10.5347H26.4389C26.6231 10.5347 26.7998 10.4615 26.93 10.3313C27.0602 10.2011 27.1334 10.0244 27.1334 9.84027V9.13541C27.1334 8.95123 27.0602 8.7746 26.93 8.64436C26.7998 8.51413 26.6231 8.44096 26.4389 8.44096H26.132V8.13402C26.132 7.94984 26.0588 7.77321 25.9286 7.64297C25.7984 7.51274 25.6217 7.43958 25.4376 7.43958Z" fill="black"/>
<path d="M29.3438 20.1875C29.3438 20.4622 29.2624 20.7307 29.1098 20.9591C28.9571 21.1875 28.7402 21.3655 28.4864 21.4707C28.2326 21.5758 27.9534 21.6033 27.684 21.5497C27.4146 21.4961 27.1671 21.3638 26.9728 21.1696C26.7786 20.9754 26.6463 20.7279 26.5927 20.4585C26.5391 20.189 26.5666 19.9098 26.6718 19.656C26.7769 19.4022 26.9549 19.1853 27.1833 19.0327C27.4117 18.8801 27.6802 18.7986 27.9549 18.7986C28.3233 18.7986 28.6766 18.9449 28.937 19.2054C29.1975 19.4659 29.3438 19.8191 29.3438 20.1875Z" fill="black"/>
<path d="M23.7882 20.1875C23.7882 20.4622 23.7067 20.7307 23.5541 20.9591C23.4015 21.1875 23.1846 21.3655 22.9308 21.4707C22.677 21.5758 22.3977 21.6033 22.1283 21.5497C21.8589 21.4961 21.6114 21.3638 21.4172 21.1696C21.2229 20.9754 21.0907 20.7279 21.0371 20.4585C20.9835 20.189 21.011 19.9098 21.1161 19.656C21.2212 19.4022 21.3992 19.1853 21.6276 19.0327C21.856 18.8801 22.1246 18.7986 22.3993 18.7986C22.7676 18.7986 23.1209 18.9449 23.3814 19.2054C23.6418 19.4659 23.7882 19.8191 23.7882 20.1875Z" fill="black"/>
<path d="M25.177 27.1333C24.3435 27.1254 23.5235 26.9216 22.7833 26.5382C22.7017 26.4974 22.6289 26.4409 22.5691 26.372C22.5093 26.303 22.4637 26.223 22.4348 26.1364C22.406 26.0498 22.3944 25.9584 22.4009 25.8674C22.4074 25.7764 22.4317 25.6875 22.4725 25.6059C22.5133 25.5243 22.5698 25.4515 22.6388 25.3917C22.7077 25.3319 22.7877 25.2863 22.8743 25.2574C22.9609 25.2286 23.0523 25.2171 23.1433 25.2235C23.2343 25.23 23.3232 25.2543 23.4048 25.2951C23.9495 25.5888 24.5586 25.7426 25.1774 25.7426C25.7962 25.7426 26.4053 25.5888 26.95 25.2951C27.0316 25.2543 27.1204 25.23 27.2115 25.2235C27.3025 25.2171 27.3939 25.2286 27.4805 25.2574C27.567 25.2863 27.6471 25.3319 27.716 25.3917C27.785 25.4515 27.8414 25.5243 27.8823 25.6059C27.9231 25.6875 27.9474 25.7764 27.9539 25.8674C27.9603 25.9584 27.9488 26.0498 27.92 26.1364C27.8911 26.223 27.8455 26.303 27.7857 26.372C27.7259 26.4409 27.6531 26.4974 27.5715 26.5382C26.8311 26.9217 26.0108 27.1255 25.177 27.1333Z" fill="black"/>
<path d="M25.1771 31.6701C20.4528 31.6701 16.6091 26.943 16.6091 21.1326L16.5257 20.1799C16.5179 20.089 16.5281 19.9974 16.5557 19.9105C16.5832 19.8235 16.6277 19.7429 16.6864 19.6731C16.7452 19.6033 16.8171 19.5458 16.8981 19.5038C16.979 19.4619 17.0675 19.4362 17.1584 19.4285C17.2494 19.4198 17.3413 19.4294 17.4286 19.4567C17.5159 19.484 17.5969 19.5284 17.6668 19.5874C17.7367 19.6464 17.7942 19.7187 17.8358 19.8002C17.8774 19.8816 17.9023 19.9706 17.9091 20.0618L17.9952 21.0736C17.998 26.1778 21.2188 30.2812 25.1771 30.2812C29.1355 30.2812 32.357 26.1771 32.357 21.1326C32.357 20.8086 32.3438 20.488 32.3174 20.1708C32.3101 20.0799 32.3208 19.9884 32.3489 19.9016C32.3769 19.8148 32.4218 19.7344 32.4809 19.665C32.54 19.5955 32.6123 19.5384 32.6935 19.4969C32.7747 19.4553 32.8633 19.4302 32.9542 19.4229C33.0451 19.4156 33.1366 19.4263 33.2234 19.4544C33.3102 19.4824 33.3906 19.5273 33.4601 19.5864C33.5295 19.6455 33.5866 19.7178 33.6282 19.799C33.6697 19.8802 33.6948 19.9688 33.7021 20.0597C33.7308 20.4125 33.7454 20.7701 33.7459 21.1326C33.7459 26.943 29.9021 31.6701 25.1764 31.6701H25.1771Z" fill="black"/>
<path d="M32.8521 21.0278C32.5429 21.0256 32.2436 20.9189 32.0028 20.725C31.4991 20.2379 31.1465 19.6158 30.9875 18.9333C30.9143 18.9727 30.8381 19.0064 30.7597 19.034C29.7417 19.3903 28.507 18.5938 27.6445 17.8569C27.6081 17.8905 27.5696 17.9216 27.5292 17.95C26.8 18.4674 25.4986 17.9861 24.2931 17.3021C24.2707 17.3261 24.2471 17.3488 24.2222 17.3701C23.9715 17.5875 23.4049 18.0736 20.7903 16.4632C20.0875 17.9153 18.7264 20.4354 17.5195 20.9514C17.3477 21.0288 17.1522 21.035 16.9758 20.9686C16.7995 20.9022 16.6566 20.7687 16.5785 20.5972C16.4752 20.3537 16.3839 20.1052 16.3049 19.8528C15.9233 18.7572 15.8468 17.5784 16.0838 16.4427C16.3207 15.307 16.8621 14.2572 17.65 13.4056C17.8143 13.2335 17.9907 13.0734 18.1778 12.9264C18.3228 12.815 18.506 12.7653 18.6875 12.7881C18.869 12.8109 19.0341 12.9044 19.1471 13.0483C19.26 13.1921 19.3116 13.3747 19.2907 13.5564C19.2698 13.7382 19.1781 13.9043 19.0354 14.0188C18.8993 14.126 18.771 14.2427 18.6514 14.3681C18.0681 15.0033 17.6601 15.7793 17.4675 16.6199C17.2749 17.4605 17.3043 18.3367 17.5528 19.1625C18.4737 17.9237 19.2487 16.5829 19.8625 15.1667C19.9038 15.0748 19.9647 14.993 20.0408 14.927C20.1169 14.861 20.2064 14.8123 20.3032 14.7843C20.4 14.7564 20.5017 14.7498 20.6013 14.7651C20.7009 14.7804 20.7959 14.8172 20.8799 14.8729C21.5543 15.3263 22.265 15.723 23.0049 16.059C23.0151 15.9388 23.0566 15.8233 23.1251 15.724C23.1935 15.6246 23.2867 15.5448 23.3955 15.4925C23.5042 15.4401 23.6247 15.417 23.745 15.4254C23.8654 15.4337 23.9815 15.4734 24.082 15.5403C24.8513 16.0809 25.7005 16.498 26.5986 16.7764C26.5934 16.7486 26.5872 16.7211 26.5799 16.6938C26.5413 16.5441 26.5538 16.3858 26.6153 16.244C26.6769 16.1022 26.784 15.985 26.9197 15.911C27.0553 15.8369 27.2118 15.8103 27.3644 15.8352C27.5169 15.8601 27.6568 15.9352 27.7618 16.0486C28.6854 17.0438 29.9104 17.859 30.2979 17.7243C30.3778 17.6965 30.5403 17.4681 30.5875 16.8049C30.5998 16.6318 30.6765 16.4696 30.8025 16.3503C30.9285 16.231 31.0946 16.1633 31.2681 16.1604C31.441 16.16 31.608 16.2231 31.7376 16.3376C31.8671 16.4522 31.9501 16.6103 31.9708 16.7819C32.0488 17.6973 32.2882 18.5916 32.6778 19.4236C32.9731 18.838 33.1254 18.1908 33.1222 17.535C33.1191 16.8792 32.9606 16.2334 32.6597 15.6507C32.4159 15.154 32.0738 14.712 31.6542 14.3514C31.5587 14.2709 31.4583 14.1965 31.3535 14.1285C31.2764 14.0797 31.2097 14.0162 31.1572 13.9416C31.1047 13.8671 31.0674 13.7829 31.0474 13.6939C31.0274 13.6049 31.0251 13.5128 31.0407 13.423C31.0563 13.3331 31.0894 13.2472 31.1382 13.1701C31.187 13.0931 31.2505 13.0264 31.3251 12.9739C31.3996 12.9213 31.4838 12.884 31.5728 12.864C31.6618 12.844 31.7538 12.8418 31.8437 12.8574C31.9336 12.8729 32.0195 12.9061 32.0965 12.9549C32.2516 13.0553 32.4005 13.1649 32.5424 13.2833C33.573 14.1712 34.2473 15.4023 34.4406 16.7488C34.6339 18.0954 34.3331 19.4664 33.5938 20.6083L33.5493 20.6743C33.4309 20.8466 33.2518 20.9678 33.0479 21.0139C32.9831 21.0232 32.9176 21.0278 32.8521 21.0278Z" fill="black"/>
<path d="M17.3035 42.2257C16.7541 42.2257 16.2171 42.0628 15.7603 41.7576C15.3035 41.4523 14.9474 41.0185 14.7372 40.5109C14.527 40.0034 14.472 39.4448 14.5791 38.906C14.6863 38.3672 14.9509 37.8722 15.3394 37.4837C15.7278 37.0953 16.2228 36.8307 16.7616 36.7235C17.3005 36.6163 17.859 36.6713 18.3665 36.8816C18.8741 37.0918 19.3079 37.4479 19.6132 37.9047C19.9184 38.3615 20.0813 38.8985 20.0813 39.4479C20.0806 40.1844 19.7877 40.8905 19.2669 41.4113C18.7461 41.9321 18.04 42.225 17.3035 42.2257ZM17.3035 38.059C17.0288 38.059 16.7603 38.1405 16.5319 38.2931C16.3035 38.4457 16.1255 38.6626 16.0204 38.9164C15.9152 39.1702 15.8877 39.4495 15.9413 39.7189C15.9949 39.9883 16.1272 40.2358 16.3214 40.43C16.5157 40.6242 16.7632 40.7565 17.0326 40.8101C17.302 40.8637 17.5813 40.8362 17.835 40.7311C18.0888 40.626 18.3057 40.4479 18.4584 40.2195C18.611 39.9911 18.6924 39.7226 18.6924 39.4479C18.6919 39.0797 18.5454 38.7268 18.285 38.4664C18.0247 38.2061 17.6717 38.0596 17.3035 38.059Z" fill="black"/>
<path d="M17.3028 38.059C17.1473 38.0588 16.9965 38.0063 16.8743 37.9101C16.7522 37.8139 16.6659 37.6796 16.6292 37.5285C16.5875 37.3583 15.6479 33.334 18.3861 30.4924C18.4495 30.4267 18.5251 30.3742 18.6088 30.3377C18.6924 30.3013 18.7824 30.2817 18.8736 30.2801C18.9648 30.2784 19.0555 30.2948 19.1404 30.3282C19.2253 30.3615 19.3028 30.4113 19.3684 30.4747C19.4341 30.538 19.4866 30.6136 19.5231 30.6973C19.5595 30.7809 19.5791 30.8709 19.5807 30.9621C19.5824 31.0534 19.566 31.144 19.5326 31.2289C19.4993 31.3138 19.4495 31.3913 19.3861 31.457C17.1723 33.7535 17.9702 37.166 17.9785 37.2C18.0033 37.3023 18.0046 37.4088 17.9822 37.5116C17.9599 37.6144 17.9144 37.7108 17.8493 37.7934C17.7843 37.8761 17.7012 37.9429 17.6066 37.9888C17.5119 38.0347 17.408 38.0585 17.3028 38.0583V38.059Z" fill="black"/>
<path d="M38.2444 42.3069C38.1442 42.3075 38.045 42.2864 37.9538 42.2448C37.8626 42.2033 37.7814 42.1425 37.7161 42.0665C37.6507 41.9906 37.6026 41.9013 37.5751 41.8049C37.5476 41.7086 37.5414 41.6073 37.5569 41.5083C37.5652 41.4528 38.3625 35.8653 34.5618 33.9556C34.4802 33.9146 34.4076 33.858 34.3479 33.789C34.2883 33.7199 34.2428 33.6398 34.2141 33.5532C34.1854 33.4666 34.174 33.3752 34.1807 33.2842C34.1873 33.1932 34.2118 33.1044 34.2527 33.0229C34.2937 32.9414 34.3503 32.8687 34.4193 32.8091C34.4883 32.7494 34.5684 32.7039 34.6551 32.6752C34.7417 32.6465 34.8331 32.6352 34.9241 32.6418C35.015 32.6485 35.1038 32.6729 35.1854 32.7139C39.8937 35.0792 38.9708 41.4486 38.9298 41.7187C38.9045 41.8824 38.8215 42.0316 38.6958 42.1395C38.5701 42.2474 38.41 42.3067 38.2444 42.3069Z" fill="black"/>
<path d="M25.1194 35.7743H25.0472L25.0187 35.7736C23.3715 35.7514 21.7729 35.1972 19.7055 33.9354C19.555 33.8366 19.4487 33.6831 19.4092 33.5074C19.3696 33.3316 19.3999 33.1474 19.4936 32.9936C19.5873 32.8398 19.7371 32.7284 19.9114 32.6829C20.0857 32.6375 20.2709 32.6615 20.4278 32.75C22.2923 33.8882 23.691 34.3785 25.091 34.3854C26.6532 34.3098 28.1644 33.8055 29.459 32.9278C29.6177 32.8342 29.807 32.8075 29.9854 32.8536C30.1637 32.8996 30.3165 33.0146 30.4101 33.1733C30.5036 33.3319 30.5303 33.5213 30.4843 33.6996C30.4382 33.878 30.3232 34.0308 30.1646 34.1243C28.6765 35.1115 26.9507 35.6811 25.1673 35.7736H25.1187L25.1194 35.7743Z" fill="black"/>
<path d="M11.9396 42.3069C11.7741 42.3066 11.6142 42.2471 11.4886 42.1393C11.3631 42.0314 11.2802 41.8823 11.2549 41.7187C11.2111 41.4326 10.2354 34.6812 15.4354 32.5139C15.6054 32.443 15.7966 32.4425 15.967 32.5126C16.1373 32.5826 16.2729 32.7175 16.3438 32.8875C16.4147 33.0575 16.4151 33.2487 16.3451 33.419C16.275 33.5894 16.1401 33.7249 15.9702 33.7958C11.7778 35.5437 12.6188 41.4486 12.6278 41.509C12.6432 41.608 12.6369 41.7091 12.6094 41.8054C12.5818 41.9017 12.5337 41.9909 12.4683 42.0668C12.4029 42.1426 12.3219 42.2034 12.2307 42.2449C12.1395 42.2864 12.0404 42.3075 11.9403 42.3069H11.9396Z" fill="black"/>
<path d="M31.5069 42.9528C31.4833 42.9528 31.4604 42.9521 31.4375 42.95C31.2545 42.9319 31.0862 42.842 30.9694 42.7C30.8526 42.5579 30.7969 42.3754 30.8146 42.1924L30.8632 41.6736C30.6888 41.5858 30.5322 41.4664 30.4014 41.3215C29.4548 40.291 29.6958 37.9243 29.7757 37.3243C29.7639 36.3174 30.2132 34.5924 31.8937 34.1035C31.6384 33.1425 31.1928 32.2426 30.5833 31.457C30.4554 31.3243 30.3854 31.1464 30.3887 30.9621C30.392 30.7779 30.4684 30.6026 30.601 30.4747C30.7336 30.3468 30.9116 30.2768 31.0958 30.2801C31.28 30.2834 31.4554 30.3598 31.5833 30.4924C32.8041 31.7577 33.4208 34.4007 33.4465 34.5132C33.4693 34.613 33.4697 34.7167 33.4478 34.8167C33.4258 34.9167 33.382 35.0106 33.3195 35.0917C33.257 35.1728 33.1773 35.2391 33.0861 35.2858C32.995 35.3325 32.8947 35.3584 32.7923 35.3618C31.2055 35.4146 31.159 37.0243 31.1653 37.3465C31.166 37.3844 31.1637 37.4223 31.1583 37.4597C31.0518 38.2212 31.0563 38.994 31.1715 39.7542C31.2431 39.6671 31.3352 39.5992 31.4396 39.5566C31.544 39.5141 31.6574 39.4982 31.7694 39.5104C31.9526 39.528 32.1214 39.6176 32.2386 39.7595C32.3558 39.9015 32.4118 40.0841 32.3944 40.2674L32.3146 41.1042C32.316 41.1385 32.3151 41.1728 32.3118 41.207L32.1972 42.3292C32.1797 42.5002 32.0993 42.6587 31.9717 42.7739C31.844 42.8891 31.6782 42.9528 31.5062 42.9528H31.5069Z" fill="black"/>
<path d="M34.3139 42.9528C34.142 42.9526 33.9762 42.8887 33.8487 42.7734C33.7212 42.6581 33.641 42.4995 33.6236 42.3285L33.5097 41.2063C33.5064 41.173 33.5055 41.1396 33.507 41.1063L33.4271 40.2667C33.4184 40.1759 33.4276 40.0844 33.4543 39.9972C33.481 39.91 33.5247 39.829 33.5827 39.7587C33.6408 39.6884 33.7121 39.6302 33.7926 39.5875C33.8732 39.5448 33.9613 39.5184 34.0521 39.5097C34.1641 39.4974 34.2773 39.5133 34.3816 39.5558C34.4859 39.5984 34.5779 39.6663 34.6493 39.7535C34.7643 38.9935 34.7686 38.2209 34.6618 37.4597C34.6565 37.4211 34.6541 37.3821 34.6549 37.3431C34.6618 37.0243 34.6146 35.4146 33.0278 35.3618C32.9348 35.3616 32.8429 35.3426 32.7574 35.3062C32.6719 35.2697 32.5945 35.2164 32.53 35.1495C32.4655 35.0826 32.415 35.0035 32.3816 34.9167C32.3483 34.8299 32.3326 34.7374 32.3357 34.6444C32.3388 34.5515 32.3605 34.4602 32.3995 34.3758C32.4385 34.2915 32.4941 34.2158 32.5629 34.1533C32.6317 34.0908 32.7124 34.0427 32.8001 34.012C32.8878 33.9813 32.9809 33.9684 33.0736 33.9743C35.4604 34.0528 36.0576 36.1646 36.0445 37.3243C36.1236 37.9243 36.3653 40.2903 35.4195 41.3222C35.2878 41.4667 35.1308 41.5858 34.9563 41.6736L35.0056 42.1931C35.023 42.376 34.9672 42.5583 34.8505 42.7002C34.7337 42.8421 34.5655 42.9319 34.3827 42.95C34.3598 42.9522 34.3369 42.9533 34.3139 42.9535V42.9528Z" fill="black"/>
<path d="M24.9403 42.3076C24.8119 42.3077 24.6861 42.2722 24.5766 42.2052C24.4672 42.1381 24.3784 42.0421 24.3201 41.9278L20.3917 34.1965C20.3499 34.1152 20.3246 34.0264 20.3172 33.9352C20.3098 33.8441 20.3205 33.7524 20.3487 33.6654C20.3769 33.5784 20.4219 33.4978 20.4813 33.4282C20.5407 33.3587 20.6133 33.3016 20.6948 33.2602C20.7763 33.2187 20.8652 33.1938 20.9564 33.1868C21.0476 33.1799 21.1393 33.191 21.2261 33.2195C21.313 33.2481 21.3934 33.2935 21.4627 33.3532C21.532 33.4129 21.5888 33.4857 21.6298 33.5674L25.559 41.2986C25.6128 41.4044 25.6385 41.5222 25.6338 41.6408C25.6291 41.7593 25.5941 41.8747 25.5321 41.9759C25.4701 42.0771 25.3832 42.1607 25.2797 42.2188C25.1763 42.2769 25.0596 42.3075 24.941 42.3076H24.9403Z" fill="black"/>
<path d="M24.9389 42.3077C24.8197 42.3076 24.7024 42.2768 24.5985 42.2183C24.4946 42.1598 24.4075 42.0755 24.3456 41.9736C24.2837 41.8717 24.2491 41.7555 24.2451 41.6363C24.2412 41.5171 24.268 41.3989 24.3229 41.2931L28.2521 33.7222C28.337 33.5588 28.4834 33.4357 28.659 33.3802C28.8346 33.3247 29.0251 33.3412 29.1886 33.4261C29.352 33.511 29.4751 33.6573 29.5306 33.8329C29.5862 34.0086 29.5697 34.1991 29.4848 34.3625L25.5563 41.9333C25.4976 42.0463 25.4089 42.141 25.3001 42.207C25.1912 42.2731 25.0662 42.3079 24.9389 42.3077Z" fill="black"/>
</svg>
