<svg width="16" height="17" viewBox="0 0 16 17" fill="none" xmlns="http://www.w3.org/2000/svg">
<path d="M13.3333 5.66667H15.1111C15.3469 5.66667 15.573 5.75196 15.7397 5.90377C15.9064 6.05559 16 6.26149 16 6.47619V16.1905C16 16.4052 15.9064 16.6111 15.7397 16.7629C15.573 16.9147 15.3469 17 15.1111 17H0.888889C0.653141 17 0.427048 16.9147 0.260349 16.7629C0.0936505 16.6111 0 16.4052 0 16.1905V6.47619C0 6.26149 0.0936505 6.05559 0.260349 5.90377C0.427048 5.75196 0.653141 5.66667 0.888889 5.66667H2.66667V4.85714C2.66667 3.56895 3.22857 2.33352 4.22876 1.42262C5.22896 0.511733 6.58551 0 8 0C9.41449 0 10.771 0.511733 11.7712 1.42262C12.7714 2.33352 13.3333 3.56895 13.3333 4.85714V5.66667ZM11.5556 5.66667V4.85714C11.5556 3.99835 11.181 3.17472 10.5142 2.56746C9.84736 1.9602 8.94299 1.61905 8 1.61905C7.05701 1.61905 6.15264 1.9602 5.48584 2.56746C4.81905 3.17472 4.44444 3.99835 4.44444 4.85714V5.66667H11.5556ZM7.11111 10.5238V12.1429H8.88889V10.5238H7.11111ZM3.55556 10.5238V12.1429H5.33333V10.5238H3.55556ZM10.6667 10.5238V12.1429H12.4444V10.5238H10.6667Z" fill="white"/>
</svg>
