<svg width="19" height="19" viewBox="0 0 19 19" fill="none" xmlns="http://www.w3.org/2000/svg">
<path d="M16.554 15.3603C17.4965 14.2264 18.152 12.8821 18.465 11.4413C18.7781 10.0005 18.7395 8.50543 18.3526 7.08265C17.9657 5.65987 17.2418 4.35121 16.2421 3.26738C15.2424 2.18355 13.9964 1.35643 12.6095 0.855997C11.2226 0.35556 9.7355 0.196528 8.2741 0.392353C6.81271 0.588178 5.41998 1.1331 4.21372 1.98102C3.00747 2.82894 2.02318 3.95491 1.34412 5.26369C0.665062 6.57247 0.311212 8.02555 0.312504 9.5C0.312999 11.6434 1.06834 13.7182 2.44597 15.3603L2.43285 15.3715C2.47879 15.4266 2.53129 15.4738 2.57854 15.5283C2.6376 15.5959 2.70125 15.6596 2.76229 15.7252C2.94604 15.9247 3.13504 16.1163 3.33322 16.2961C3.3936 16.3512 3.45594 16.4024 3.51697 16.4549C3.72697 16.6361 3.94288 16.808 4.16666 16.9681C4.19554 16.9878 4.22179 17.0134 4.25066 17.0337V17.0259C5.78767 18.1075 7.62123 18.688 9.50066 18.688C11.3801 18.688 13.2137 18.1075 14.7507 17.0259V17.0337C14.7795 17.0134 14.8051 16.9878 14.8347 16.9681C15.0578 16.8073 15.2744 16.6361 15.4844 16.4549C15.5454 16.4024 15.6077 16.3506 15.6681 16.2961C15.8663 16.1157 16.0553 15.9247 16.239 15.7252C16.3001 15.6596 16.3631 15.5959 16.4228 15.5283C16.4694 15.4738 16.5225 15.4266 16.5685 15.3708L16.554 15.3603ZM9.50001 4.25C10.0841 4.25 10.655 4.4232 11.1407 4.74769C11.6263 5.07219 12.0048 5.5334 12.2283 6.07301C12.4519 6.61263 12.5103 7.2064 12.3964 7.77925C12.2824 8.3521 12.0012 8.8783 11.5882 9.2913C11.1752 9.7043 10.649 9.98556 10.0761 10.0995C9.50328 10.2135 8.90951 10.155 8.36989 9.93146C7.83028 9.70794 7.36906 9.32943 7.04457 8.84379C6.72008 8.35815 6.54688 7.7872 6.54688 7.20312C6.54688 6.41991 6.85801 5.66877 7.41183 5.11495C7.96565 4.56113 8.71679 4.25 9.50001 4.25ZM4.2546 15.3603C4.26598 14.4986 4.61616 13.6761 5.22936 13.0706C5.84257 12.4651 6.6695 12.1254 7.53126 12.125H11.4688C12.3305 12.1254 13.1574 12.4651 13.7706 13.0706C14.3839 13.6761 14.734 14.4986 14.7454 15.3603C13.3062 16.6573 11.4374 17.375 9.50001 17.375C7.56258 17.375 5.69386 16.6573 4.2546 15.3603Z" fill="white"/>
</svg>
